{
.appVersion = "1286";
DisplayStrings = (
"harry otter",
history,
"Harry potter",
"8",
"tfEven if",
"/idotless íîïì",
"ÍÎÏÌ",
"/zeroinferior/oneinferior/twoinferior/threeinferior/fourinferior/fiveinferior/sixinferior/seveninferior/eightinferior/nineinferior",
"/zerosuperior ¹/foursuperior/fivesuperior/sixsuperior/sevensuperior/eightsuperior/ninesuperior",
"Neural nn",
n,
"nñ",
"nñ",
"Ñ",
"/Wcircumflex",
"ã",
"Ã",
"Û",
"Ü",
"/Wdieresis",
"ê",
"õ",
"ü",
"/Wgrave",
"/Wacute",
"Ú",
"Corey Hu"
);
copyright = "Copyright 2020 The Urbanist Project Authors (github.com/coreywho)";
customParameters = (
{
name = Axes;
value = (
{
Name = Weight;
Tag = wght;
},
{
Name = Italic;
Tag = ital;
}
);
},
{
name = fsType;
value = (
);
},
{
name = licenseURL;
value = "http://scripts.sil.org/OFL";
},
{
name = vendorID;
value = KERN;
},
{
name = versionString;
value = "Version 1.2; befe77262ef67d88f1d94aa3d2e49ef1327b4483";
},
{
name = license;
value = "This Font Software is licensed under the SIL Open Font License, Version 1.1. This license is available with a FAQ at: http://scripts.sil.org/OFL";
},
{
name = "Enforce Compatibility Check";
value = 1;
},
{
name = "Variable Font Origin";
value = "B3D2A076-B51C-44C1-915C-935C098147A8";
}
);
date = "2020-02-03 04:54:54 +0000";
designer = "Corey Hu";
designerURL = github.com/coreywho;
disablesAutomaticAlignment = 1;
familyName = Urbanist;
featurePrefixes = (
{
automatic = 1;
code = "languagesystem DFLT dflt;\012";
name = Languagesystems;
}
);
features = (
{
automatic = 1;
code = "feature subs;\012feature sinf;\012feature sups;\012feature frac;\012feature ordn;\012";
name = aalt;
},
{
automatic = 1;
code = "lookup ccmp_Other_1 {\012	@CombiningTopAccents = [acutecomb circumflexcomb dieresiscomb dotaccentcomb gravecomb ringcomb tildecomb];\012	@CombiningNonTopAccents = [cedillacomb];\012	sub [i]' @CombiningTopAccents by [idotless];\012	sub [i]' @CombiningNonTopAccents @CombiningTopAccents by [idotless];\012} ccmp_Other_1;\012";
name = ccmp;
},
{

glyphs = (
{
glyphname = A;
lastChange = "2020-02-03 19:54:53 +0000";
layers = (
{
layerId = "10BC12B3-5274-42E3-B5BC-F74F362F0DF4";
paths = (
{
closed = 1;
nodes = (
"80 0 LINE",
"398 0 LINE",
"478 220 LINE",
"1036 220 LINE",
"1116 0 LINE",
"1434 0 LINE",
"926 1400 LINE",
"588 1400 LINE"
);
},
{
closed = 1;
nodes = (
"756 984 LINE",
"926 520 LINE",
"588 520 LINE"
);
}
);
width = 1514;
},
{
layerId = "9AF1F7D9-E035-453E-B2A8-46DE370997D0";
paths = (
{
closed = 1;
nodes = (
"80 0 LINE",
"144 0 LINE",
"268 340 LINE",
"1004 340 LINE",
"1128 0 LINE",
"1192 0 LINE",
"682 1400 LINE",
"590 1400 LINE"
);
},
{
closed = 1;
nodes = (
"636 1350 LINE",
"982 400 LINE",
"290 400 LINE"
);
}
);
width = 1272;
},
{
layerId = "F9B50E00-60B3-4906-8473-0A03A162A9E3";
paths = (
{
closed = 1;
nodes = (
"77 0 LINE",
"401 0 LINE",
"511 220 LINE",
"1069 220 LINE",
"1118 0 LINE",
"1431 0 LINE",
"1120 1400 LINE",
"782 1400 LINE"
);
},
{
closed = 1;
nodes = (
"899 984 LINE",
"1002 520 LINE",
"664 520 LINE"
);
}
);
width = 1514;
},
{
layerId = "81C5C66F-25B8-499A-A0AB-712FDA102FD8";
paths = (
{
closed = 1;
nodes = (
"79 0 LINE",
"145 0 LINE",
"316 340 LINE",
"1052 340 LINE",
"1129 0 LINE",
"1191 0 LINE",
"878 1400 LINE",
"786 1400 LINE"
);
},
{
closed = 1;
nodes = (
"827 1350 LINE",
"1039 400 LINE",
"347 400 LINE"
);
}
);
width = 1272;
}
);
leftKerningGroup = A;
rightKerningGroup = A;
unicode = 0041;
},
{
glyphname = AE;
lastChange = "2020-02-03 19:54:53 +0000";
layers = (
{
layerId = "10BC12B3-5274-42E3-B5BC-F74F362F0DF4";
paths = (
{
closed = 1;
nodes = (
"398 0 LINE",
"478 220 LINE",
"858 220 LINE",
"858 0 LINE",
"1610 0 LINE",
"1610 300 LINE",
"1158 300 LINE",
"1158 550 LINE",
"1514 550 LINE",
"1514 850 LINE",
"1158 850 LINE",
"1158 1100 LINE",
"1610 1100 LINE",
"1610 1400 LINE",
"588 1400 LINE",
"80 0 LINE"
);
},
{
closed = 1;
nodes = (
"798 1100 LINE",
"858 1100 LINE",
"858 520 LINE",
"588 520 LINE"
);
}
);
width = 1710;
},
{
layerId = "9AF1F7D9-E035-453E-B2A8-46DE370997D0";
paths = (
{
closed = 1;
nodes = (
"144 0 LINE",
"268 340 LINE",
"782 340 LINE",
"782 0 LINE",
"1474 0 LINE",
"1474 60 LINE",
"842 60 LINE",
"842 670 LINE",
"1378 670 LINE",
"1378 730 LINE",
"842 730 LINE",
"842 1340 LINE",
"1474 1340 LINE",
"1474 1400 LINE",
"590 1400 LINE",
"80 0 LINE"
);
},
{
closed = 1;
nodes = (
"634 1340 LINE",
"782 1340 LINE",
"782 400 LINE",
"290 400 LINE"
);
}
);
width = 1574;
},
{
layerId = "F9B50E00-60B3-4906-8473-0A03A162A9E3";
paths = (
{
closed = 1;
nodes = (
"401 0 LINE",
"511 220 LINE",
"889 220 LINE",
"858 0 LINE",
"1610 0 LINE",
"1652 300 LINE",
"1200 300 LINE",
"1235 550 LINE",
"1591 550 LINE",
"1633 850 LINE",
"1277 850 LINE",
"1313 1100 LINE",
"1765 1100 LINE",
"1807 1400 LINE",
"782 1400 LINE",
"77 0 LINE"
);
},
{
closed = 1;
nodes = (
"955 1100 LINE",
"1013 1100 LINE",
"931 520 LINE",
"664 520 LINE"
);
}
);
width = 1710;
},
{
layerId = "81C5C66F-25B8-499A-A0AB-712FDA102FD8";
paths = (
{
closed = 1;
nodes = (
"145 0 LINE",
"316 340 LINE",
"830 340 LINE",
"782 0 LINE",
"1474 0 LINE",
"1482 60 LINE",
"850 60 LINE",
"936 670 LINE",
"1472 670 LINE",
"1481 730 LINE",
"945 730 LINE",
"1030 1340 LINE",
"1662 1340 LINE",
"1671 1400 LINE",
"786 1400 LINE",
"79 0 LINE"
);
},
{
closed = 1;
nodes = (
"823 1340 LINE",
"970 1340 LINE",
"838 400 LINE",
"347 400 LINE"
);
}
);
width = 1574;
}
);
leftKerningGroup = A;
leftMetricsKey = A;
rightKerningGroup = E;
rightMetricsKey = E;
unicode = 00C6;
},
{
glyphname = B;
lastChange = "2020-02-03 19:54:53 +0000";
layers = (
{
layerId = "10BC12B3-5274-42E3-B5BC-F74F362F0DF4";
paths = (
{
closed = 1;
nodes = (
"704 0 LINE SMOOTH",
"936 0 OFFCURVE",
"1126 170 OFFCURVE",
"1126 382 CURVE SMOOTH",
"1126 506 OFFCURVE",
"1108 721 OFFCURVE",
"930 765 CURVE",
"1034 813 OFFCURVE",
"1060 926 OFFCURVE",
"1060 1014 CURVE SMOOTH",
"1060 1248 OFFCURVE",
"880 1400 OFFCURVE",
"650 1400 CURVE SMOOTH",
"120 1400 LINE",
"120 0 LINE"
);
},
{
closed = 1;
nodes = (
"420 625 LINE",
"672 625 LINE SMOOTH",
"776 625 OFFCURVE",
"860 536 OFFCURVE",
"860 444 CURVE SMOOTH",
"860 334 OFFCURVE",
"776 254 OFFCURVE",
"672 254 CURVE SMOOTH",
"420 254 LINE"
);
},
{
closed = 1;
nodes = (
"420 1144 LINE",
"614 1144 LINE SMOOTH",
"694 1144 OFFCURVE",
"760 1098 OFFCURVE",
"760 1016 CURVE SMOOTH",
"760 934 OFFCURVE",
"694 875 OFFCURVE",
"614 875 CURVE SMOOTH",
"420 875 LINE"
);
}
);
width = 1206;
},
{
layerId = "9AF1F7D9-E035-453E-B2A8-46DE370997D0";
paths = (
{
closed = 1;
nodes = (
"630 0 LINE SMOOTH",
"828 0 OFFCURVE",
"990 152 OFFCURVE",
"990 402 CURVE SMOOTH",
"990 566 OFFCURVE",
"892 731 OFFCURVE",
"732 776 CURVE",
"808 788 OFFCURVE",
"912 912 OFFCURVE",
"912 1060 CURVE SMOOTH",
"912 1282 OFFCURVE",
"756 1398 OFFCURVE",
"564 1398 CURVE SMOOTH",
"120 1398 LINE",
"120 0 LINE"
);
},
{
closed = 1;
nodes = (
"180 740 LINE",
"630 740 LINE SMOOTH",
"796 740 OFFCURVE",
"930 578 OFFCURVE",
"930 402 CURVE SMOOTH",
"930 206 OFFCURVE",
"796 60 OFFCURVE",
"630 60 CURVE SMOOTH",
"180 60 LINE"
);
},
{
closed = 1;
nodes = (
"180 1338 LINE",
"564 1338 LINE SMOOTH",
"722 1338 OFFCURVE",
"852 1250 OFFCURVE",
"852 1060 CURVE SMOOTH",
"852 890 OFFCURVE",
"722 800 OFFCURVE",
"564 800 CURVE SMOOTH",
"180 800 LINE"
);
}
);
width = 1070;
},
{
layerId = "F9B50E00-60B3-4906-8473-0A03A162A9E3";
paths = (
{
closed = 1;
nodes = (
"712 0 LINE SMOOTH",
"944 0 OFFCURVE",
"1149 162 OFFCURVE",
"1177 365 CURVE SMOOTH",
"1196 498 OFFCURVE",
"1201 719 OFFCURVE",
"1036 760 CURVE",
"1155 810 OFFCURVE",
"1189 918 OFFCURVE",
"1200 997 CURVE SMOOTH",
"1234 1240 OFFCURVE",
"1068 1400 OFFCURVE",
"838 1400 CURVE SMOOTH",
"317 1400 LINE",
"120 0 LINE"
);
},
{
closed = 1;
nodes = (
"508 625 LINE",
"768 625 LINE SMOOTH",
"872 625 OFFCURVE",
"937 544 OFFCURVE",
"925 461 CURVE SMOOTH",
"908 342 OFFCURVE",
"803 254 OFFCURVE",
"699 254 CURVE SMOOTH",
"456 254 LINE"
);
},
{
closed = 1;
nodes = (
"581 1144 LINE",
"783 1144 LINE SMOOTH",
"863 1144 OFFCURVE",
"915 1106 OFFCURVE",
"905 1033 CURVE SMOOTH",
"892 942 OFFCURVE",
"809 875 OFFCURVE",
"729 875 CURVE SMOOTH",
"543 875 LINE"
);
}
);
width = 1206;
},
{
layerId = "81C5C66F-25B8-499A-A0AB-712FDA102FD8";
paths = (
{
closed = 1;
nodes = (
"632 0 LINE SMOOTH",
"830 0 OFFCURVE",
"1011 150 OFFCURVE",
"1046 399 CURVE SMOOTH",
"1069 564 OFFCURVE",
"993 731 OFFCURVE",
"841 775 CURVE",
"920 788 OFFCURVE",
"1040 910 OFFCURVE",
"1061 1057 CURVE SMOOTH",
"1092 1280 OFFCURVE",
"951 1398 OFFCURVE",
"759 1398 CURVE SMOOTH",
"316 1398 LINE",
"120 0 LINE"
);
},
{
closed = 1;
nodes = (
"284 740 LINE",
"736 740 LINE SMOOTH",
"902 740 OFFCURVE",
"1011 580 OFFCURVE",
"987 405 CURVE SMOOTH",
"959 208 OFFCURVE",
"803 60 OFFCURVE",
"637 60 CURVE SMOOTH",
"188 60 LINE"
);
},
{
closed = 1;
nodes = (
"368 1338 LINE",
"754 1338 LINE SMOOTH",
"912 1338 OFFCURVE",
"1028 1252 OFFCURVE",
"1001 1063 CURVE SMOOTH",
"977 892 OFFCURVE",
"833 800 OFFCURVE",
"675 800 CURVE SMOOTH",
"292 800 LINE"
);
}
);
width = 1070;
}
);
leftKerningGroup = H;
rightKerningGroup = B;
unicode = 0042;
},
{
glyphname = C;
lastChange = "2020-02-03 19:54:53 +0000";
layers = (
{
layerId = "10BC12B3-5274-42E3-B5BC-F74F362F0DF4";
paths = (
{
closed = 1;
nodes = (
"974 -26 OFFCURVE",
"1172 88 OFFCURVE",
"1298 262 CURVE",
"1030 408 LINE",
"960 326 OFFCURVE",
"860 274 OFFCURVE",
"748 274 CURVE",
"534 274 OFFCURVE",
"360 466 OFFCURVE",
"360 700 CURVE",
"360 936 OFFCURVE",
"534 1126 OFFCURVE",
"748 1126 CURVE",
"860 1126 OFFCURVE",
"960 1074 OFFCURVE",
"1030 994 CURVE",
"1298 1138 LINE",
"1172 1312 OFFCURVE",
"974 1426 OFFCURVE",
"748 1426 CURVE",
"368 1426 OFFCURVE",
"60 1102 OFFCURVE",
"60 700 CURVE",
"60 300 OFFCURVE",
"368 -26 OFFCURVE",
"748 -26 CURVE"
);
}
);
width = 1398;
},
{
layerId = "9AF1F7D9-E035-453E-B2A8-46DE370997D0";
paths = (
{
closed = 1;
nodes = (
"974 -26 OFFCURVE",
"1172 86 OFFCURVE",
"1298 262 CURVE",
"1246 290 LINE",
"1136 138 OFFCURVE",
"952 34 OFFCURVE",
"748 34 CURVE SMOOTH",
"402 34 OFFCURVE",
"120 332 OFFCURVE",
"120 700 CURVE SMOOTH",
"120 1058 OFFCURVE",
"396 1366 OFFCURVE",
"748 1366 CURVE SMOOTH",
"942 1366 OFFCURVE",
"1132 1266 OFFCURVE",
"1246 1108 CURVE",
"1298 1136 LINE",
"1172 1312 OFFCURVE",
"974 1426 OFFCURVE",
"748 1426 CURVE SMOOTH",
"368 1426 OFFCURVE",
"60 1100 OFFCURVE",
"60 700 CURVE SMOOTH",
"60 298 OFFCURVE",
"368 -26 OFFCURVE",
"748 -26 CURVE SMOOTH"
);
}
);
width = 1398;
},
{
layerId = "F9B50E00-60B3-4906-8473-0A03A162A9E3";
paths = (
{
closed = 1;
nodes = (
"979 -26 OFFCURVE",
"1188 81 OFFCURVE",
"1339 255 CURVE",
"1081 414 LINE",
"1001 332 OFFCURVE",
"890 274 OFFCURVE",
"770 274 CURVE",
"564 274 OFFCURVE",
"424 458 OFFCURVE",
"456 683 CURVE",
"490 928 OFFCURVE",
"701 1126 OFFCURVE",
"923 1126 CURVE",
"1027 1126 OFFCURVE",
"1117 1080 OFFCURVE",
"1176 1000 CURVE",
"1454 1131 LINE",
"1350 1305 OFFCURVE",
"1166 1426 OFFCURVE",
"932 1426 CURVE",
"560 1426 OFFCURVE",
"216 1110 OFFCURVE",
"161 717 CURVE",
"103 308 OFFCURVE",
"373 -26 OFFCURVE",
"761 -26 CURVE"
);
}
);
width = 1398;
},
{
layerId = "81C5C66F-25B8-499A-A0AB-712FDA102FD8";
paths = (
{
closed = 1;
nodes = (
"972 -26 OFFCURVE",
"1185 85 OFFCURVE",
"1336 261 CURVE",
"1286 291 LINE",
"1155 139 OFFCURVE",
"955 34 OFFCURVE",
"749 34 CURVE SMOOTH",
"405 34 OFFCURVE",
"166 330 OFFCURVE",
"218 697 CURVE SMOOTH",
"268 1056 OFFCURVE",
"590 1366 OFFCURVE",
"943 1366 CURVE SMOOTH",
"1136 1366 OFFCURVE",
"1311 1267 OFFCURVE",
"1403 1109 CURVE",
"1457 1135 LINE",
"1355 1311 OFFCURVE",
"1173 1426 OFFCURVE",
"945 1426 CURVE SMOOTH",
"567 1426 OFFCURVE",
"215 1102 OFFCURVE",
"159 703 CURVE SMOOTH",
"102 300 OFFCURVE",
"366 -26 OFFCURVE",
"748 -26 CURVE SMOOTH"
);
}
);
width = 1398;
}
);
leftKerningGroup = O;
rightKerningGroup = C;
unicode = 0043;
},
{
glyphname = D;
lastChange = "2020-02-03 19:54:53 +0000";
layers = (
{
layerId = "10BC12B3-5274-42E3-B5BC-F74F362F0DF4";
paths = (
{
closed = 1;
nodes = (
"584 0 LINE SMOOTH",
"970 0 OFFCURVE",
"1284 314 OFFCURVE",
"1284 700 CURVE SMOOTH",
"1284 1086 OFFCURVE",
"970 1400 OFFCURVE",
"584 1400 CURVE SMOOTH",
"120 1400 LINE",
"120 0 LINE"
);
},
{
closed = 1;
nodes = (
"420 1100 LINE",
"584 1100 LINE SMOOTH",
"802 1100 OFFCURVE",
"984 920 OFFCURVE",
"984 700 CURVE SMOOTH",
"984 478 OFFCURVE",
"800 300 OFFCURVE",
"584 300 CURVE SMOOTH",
"420 300 LINE"
);
}
);
width = 1344;
},
{
layerId = "9AF1F7D9-E035-453E-B2A8-46DE370997D0";
paths = (
{
closed = 1;
nodes = (
"582 0 LINE SMOOTH",
"970 0 OFFCURVE",
"1282 314 OFFCURVE",
"1282 700 CURVE SMOOTH",
"1282 1086 OFFCURVE",
"970 1400 OFFCURVE",
"582 1400 CURVE SMOOTH",
"120 1400 LINE",
"120 0 LINE"
);
},
{
closed = 1;
nodes = (
"180 1340 LINE",
"582 1340 LINE SMOOTH",
"936 1340 OFFCURVE",
"1222 1054 OFFCURVE",
"1222 700 CURVE SMOOTH",
"1222 346 OFFCURVE",
"938 60 OFFCURVE",
"582 60 CURVE SMOOTH",
"180 60 LINE"
);
}
);
width = 1342;
},
{
layerId = "F9B50E00-60B3-4906-8473-0A03A162A9E3";
paths = (
{
closed = 1;
nodes = (
"592 0 LINE SMOOTH",
"978 0 OFFCURVE",
"1327 306 OFFCURVE",
"1380 683 CURVE SMOOTH",
"1435 1078 OFFCURVE",
"1158 1400 OFFCURVE",
"772 1400 CURVE SMOOTH",
"317 1400 LINE",
"120 0 LINE"
);
},
{
closed = 1;
nodes = (
"575 1100 LINE",
"747 1100 LINE SMOOTH",
"965 1100 OFFCURVE",
"1114 928 OFFCURVE",
"1085 717 CURVE SMOOTH",
"1052 486 OFFCURVE",
"834 300 OFFCURVE",
"618 300 CURVE SMOOTH",
"462 300 LINE"
);
}
);
width = 1344;
},
{
layerId = "81C5C66F-25B8-499A-A0AB-712FDA102FD8";
paths = (
{
closed = 1;
nodes = (
"584 0 LINE SMOOTH",
"972 0 OFFCURVE",
"1326 312 OFFCURVE",
"1380 697 CURVE SMOOTH",
"1434 1084 OFFCURVE",
"1165 1400 OFFCURVE",
"777 1400 CURVE SMOOTH",
"317 1400 LINE",
"120 0 LINE"
);
},
{
closed = 1;
nodes = (
"368 1340 LINE",
"772 1340 LINE SMOOTH",
"1126 1340 OFFCURVE",
"1370 1056 OFFCURVE",
"1321 703 CURVE SMOOTH",
"1271 348 OFFCURVE",
"945 60 OFFCURVE",
"589 60 CURVE SMOOTH",
"188 60 LINE"
);
}
);
width = 1342;
}
);
leftKerningGroup = H;
rightKerningGroup = O;
unicode = 0044;
},
{
glyphname = Eth;
lastChange = "2020-02-03 19:54:53 +0000";
layers = (
{
layerId = "10BC12B3-5274-42E3-B5BC-F74F362F0DF4";
paths = (
{
closed = 1;
nodes = (
"702 0 LINE SMOOTH",
"1088 0 OFFCURVE",
"1402 314 OFFCURVE",
"1402 700 CURVE SMOOTH",
"1402 1086 OFFCURVE",
"1088 1400 OFFCURVE",
"702 1400 CURVE SMOOTH",
"240 1400 LINE",
"240 900 LINE",
"100 900 LINE",
"100 600 LINE",
"240 600 LINE",
"240 0 LINE"
);
},
{
closed = 1;
nodes = (
"540 600 LINE",
"778 600 LINE",
"778 900 LINE",
"540 900 LINE",
"540 1100 LINE",
"702 1100 LINE SMOOTH",
"922 1100 OFFCURVE",
"1102 920 OFFCURVE",
"1102 700 CURVE SMOOTH",
"1102 480 OFFCURVE",
"922 300 OFFCURVE",
"702 300 CURVE SMOOTH",
"540 300 LINE"
);
}
);
width = 1462;
},
{
layerId = "9AF1F7D9-E035-453E-B2A8-46DE370997D0";
paths = (
{
closed = 1;
nodes = (
"692 0 LINE SMOOTH",
"1078 0 OFFCURVE",
"1392 314 OFFCURVE",
"1392 700 CURVE SMOOTH",
"1392 1086 OFFCURVE",
"1078 1400 OFFCURVE",
"692 1400 CURVE SMOOTH",
"228 1400 LINE",
"228 830 LINE",
"100 830 LINE",
"100 770 LINE",
"228 770 LINE",
"228 0 LINE"
);
},
{
closed = 1;
nodes = (
"288 770 LINE",
"686 770 LINE",
"686 830 LINE",
"288 830 LINE",
"288 1340 LINE",
"692 1340 LINE SMOOTH",
"1036 1340 OFFCURVE",
"1332 1060 OFFCURVE",
"1332 700 CURVE SMOOTH",
"1332 354 OFFCURVE",
"1052 60 OFFCURVE",
"692 60 CURVE SMOOTH",
"288 60 LINE"
);
}
);
width = 1452;
},
{
layerId = "F9B50E00-60B3-4906-8473-0A03A162A9E3";
paths = (
{
closed = 1;
nodes = (
"710 0 LINE SMOOTH",
"1096 0 OFFCURVE",
"1445 306 OFFCURVE",
"1498 683 CURVE SMOOTH",
"1553 1078 OFFCURVE",
"1276 1400 OFFCURVE",
"890 1400 CURVE SMOOTH",
"437 1400 LINE",
"366 900 LINE",
"226 900 LINE",
"184 600 LINE",
"324 600 LINE",
"240 0 LINE"
);
},
{
closed = 1;
nodes = (
"624 600 LINE",
"862 600 LINE",
"904 900 LINE",
"666 900 LINE",
"695 1100 LINE",
"865 1100 LINE SMOOTH",
"1085 1100 OFFCURVE",
"1232 928 OFFCURVE",
"1203 717 CURVE SMOOTH",
"1171 488 OFFCURVE",
"956 300 OFFCURVE",
"736 300 CURVE SMOOTH",
"582 300 LINE"
);
}
);
width = 1462;
},
{
layerId = "81C5C66F-25B8-499A-A0AB-712FDA102FD8";
paths = (
{
closed = 1;
nodes = (
"694 0 LINE SMOOTH",
"1080 0 OFFCURVE",
"1436 312 OFFCURVE",
"1490 697 CURVE SMOOTH",
"1544 1084 OFFCURVE",
"1273 1400 OFFCURVE",
"887 1400 CURVE SMOOTH",
"425 1400 LINE",
"345 830 LINE",
"217 830 LINE",
"208 770 LINE",
"336 770 LINE",
"228 0 LINE"
);
},
{
closed = 1;
nodes = (
"396 770 LINE",
"794 770 LINE",
"803 830 LINE",
"405 830 LINE",
"476 1340 LINE",
"882 1340 LINE SMOOTH",
"1226 1340 OFFCURVE",
"1481 1062 OFFCURVE",
"1431 703 CURVE SMOOTH",
"1382 356 OFFCURVE",
"1059 60 OFFCURVE",
"699 60 CURVE SMOOTH",
"296 60 LINE"
);
}
);
width = 1452;
}
);
leftKerningGroup = H;
leftMetricsKey = "=D-20";
rightKerningGroup = O;
rightMetricsKey = D;
unicode = 00D0;
},
{
glyphname = E;
lastChange = "2020-02-03 19:54:53 +0000";
layers = (
{
layerId = "10BC12B3-5274-42E3-B5BC-F74F362F0DF4";
paths = (
{
closed = 1;
nodes = (
"1012 0 LINE",
"1012 300 LINE",
"420 300 LINE",
"420 600 LINE",
"876 600 LINE",
"876 900 LINE",
"420 900 LINE",
"420 1100 LINE",
"1012 1100 LINE",
"1012 1400 LINE",
"120 1400 LINE",
"120 0 LINE"
);
}
);
width = 1112;
},
{
layerId = "9AF1F7D9-E035-453E-B2A8-46DE370997D0";
paths = (
{
closed = 1;
nodes = (
"952 0 LINE",
"952 60 LINE",
"180 60 LINE",
"180 740 LINE",
"836 740 LINE",
"836 800 LINE",
"180 800 LINE",
"180 1340 LINE",
"952 1340 LINE",
"952 1400 LINE",
"120 1400 LINE",
"120 0 LINE"
);
}
);
width = 1052;
},
{
layerId = "F9B50E00-60B3-4906-8473-0A03A162A9E3";
paths = (
{
closed = 1;
nodes = (
"1012 0 LINE",
"1054 300 LINE",
"462 300 LINE",
"504 600 LINE",
"960 600 LINE",
"1002 900 LINE",
"546 900 LINE",
"575 1100 LINE",
"1167 1100 LINE",
"1209 1400 LINE",
"317 1400 LINE",
"120 0 LINE"
);
}
);
width = 1112;
},
{
layerId = "81C5C66F-25B8-499A-A0AB-712FDA102FD8";
paths = (
{
closed = 1;
nodes = (
"952 0 LINE",
"960 60 LINE",
"188 60 LINE",
"284 740 LINE",
"940 740 LINE",
"948 800 LINE",
"292 800 LINE",
"368 1340 LINE",
"1140 1340 LINE",
"1149 1400 LINE",
"317 1400 LINE",
"120 0 LINE"
);
}
);
width = 1052;
}
);
leftKerningGroup = H;
rightKerningGroup = E;
unicode = 0045;
},
{
glyphname = F;
lastChange = "2020-02-03 19:54:53 +0000";
layers = (
{
layerId = "10BC12B3-5274-42E3-B5BC-F74F362F0DF4";
paths = (
{
closed = 1;
nodes = (
"420 0 LINE",
"420 600 LINE",
"856 600 LINE",
"856 900 LINE",
"420 900 LINE",
"420 1100 LINE",
"952 1100 LINE",
"952 1400 LINE",
"120 1400 LINE",
"120 0 LINE"
);
}
);
width = 972;
},
{
layerId = "9AF1F7D9-E035-453E-B2A8-46DE370997D0";
paths = (
{
closed = 1;
nodes = (
"180 0 LINE",
"180 740 LINE",
"836 740 LINE",
"836 800 LINE",
"180 800 LINE",
"180 1340 LINE",
"932 1340 LINE",
"932 1400 LINE",
"120 1400 LINE",
"120 0 LINE"
);
}
);
width = 1012;
},
{
layerId = "F9B50E00-60B3-4906-8473-0A03A162A9E3";
paths = (
{
closed = 1;
nodes = (
"420 0 LINE",
"504 600 LINE",
"940 600 LINE",
"982 900 LINE",
"546 900 LINE",
"575 1100 LINE",
"1107 1100 LINE",
"1149 1400 LINE",
"317 1400 LINE",
"120 0 LINE"
);
}
);
width = 972;
},
{
layerId = "81C5C66F-25B8-499A-A0AB-712FDA102FD8";
paths = (
{
closed = 1;
nodes = (
"180 0 LINE",
"284 740 LINE",
"940 740 LINE",
"948 800 LINE",
"292 800 LINE",
"368 1340 LINE",
"1120 1340 LINE",
"1129 1400 LINE",
"317 1400 LINE",
"120 0 LINE"
);
}
);
width = 1012;
}
);
leftKerningGroup = H;
rightKerningGroup = F;
unicode = 0046;
},
{
glyphname = G;
lastChange = "2020-02-03 19:54:53 +0000";
layers = (
{
layerId = "10BC12B3-5274-42E3-B5BC-F74F362F0DF4";
paths = (
{
closed = 1;
nodes = (
"1144 -26 OFFCURVE",
"1456 322 OFFCURVE",
"1436 740 CURVE",
"894 740 LINE",
"894 480 LINE",
"1082 480 LINE",
"1000 338 OFFCURVE",
"874 274 OFFCURVE",
"752 274 CURVE SMOOTH",
"536 274 OFFCURVE",
"360 460 OFFCURVE",
"360 696 CURVE SMOOTH",
"360 952 OFFCURVE",
"550 1126 OFFCURVE",
"750 1126 CURVE SMOOTH",
"848 1126 OFFCURVE",
"948 1084 OFFCURVE",
"1030 992 CURVE",
"1298 1136 LINE",
"1146 1338 OFFCURVE",
"948 1424 OFFCURVE",
"754 1424 CURVE SMOOTH",
"398 1424 OFFCURVE",
"60 1130 OFFCURVE",
"60 702 CURVE SMOOTH",
"60 304 OFFCURVE",
"356 -26 OFFCURVE",
"748 -26 CURVE SMOOTH"
);
}
);
width = 1497;
},
{
layerId = "9AF1F7D9-E035-453E-B2A8-46DE370997D0";
paths = (
{
closed = 1;
nodes = (
"1110 -26 OFFCURVE",
"1412 272 OFFCURVE",
"1436 642 CURVE",
"896 642 LINE",
"896 582 LINE",
"1368 582 LINE",
"1322 282 OFFCURVE",
"1064 34 OFFCURVE",
"750 34 CURVE SMOOTH",
"402 34 OFFCURVE",
"120 336 OFFCURVE",
"120 700 CURVE SMOOTH",
"120 1058 OFFCURVE",
"398 1366 OFFCURVE",
"750 1366 CURVE SMOOTH",
"940 1366 OFFCURVE",
"1126 1272 OFFCURVE",
"1246 1108 CURVE",
"1300 1138 LINE",
"1174 1312 OFFCURVE",
"974 1426 OFFCURVE",
"750 1426 CURVE SMOOTH",
"368 1426 OFFCURVE",
"60 1100 OFFCURVE",
"60 700 CURVE SMOOTH",
"60 300 OFFCURVE",
"368 -26 OFFCURVE",
"750 -26 CURVE SMOOTH"
);
}
);
width = 1496;
},
{
layerId = "F9B50E00-60B3-4906-8473-0A03A162A9E3";
paths = (
{
closed = 1;
nodes = (
"1149 -26 OFFCURVE",
"1500 314 OFFCURVE",
"1538 732 CURVE",
"998 740 LINE",
"961 480 LINE",
"1146 487 LINE",
"1044 345 OFFCURVE",
"904 274 OFFCURVE",
"774 274 CURVE SMOOTH",
"566 274 OFFCURVE",
"423 452 OFFCURVE",
"455 679 CURVE SMOOTH",
"493 944 OFFCURVE",
"717 1126 OFFCURVE",
"925 1126 CURVE SMOOTH",
"1015 1126 OFFCURVE",
"1107 1090 OFFCURVE",
"1176 998 CURVE",
"1453 1129 LINE",
"1328 1331 OFFCURVE",
"1140 1424 OFFCURVE",
"937 1424 CURVE SMOOTH",
"590 1424 OFFCURVE",
"220 1138 OFFCURVE",
"161 719 CURVE SMOOTH",
"104 312 OFFCURVE",
"361 -26 OFFCURVE",
"761 -26 CURVE SMOOTH"
);
}
);
width = 1497;
},
{
layerId = "81C5C66F-25B8-499A-A0AB-712FDA102FD8";
paths = (
{
closed = 1;
nodes = (
"1108 -26 OFFCURVE",
"1450 270 OFFCURVE",
"1526 640 CURVE",
"986 642 LINE",
"978 582 LINE",
"1450 584 LINE",
"1362 284 OFFCURVE",
"1067 34 OFFCURVE",
"751 34 CURVE SMOOTH",
"405 34 OFFCURVE",
"167 334 OFFCURVE",
"218 697 CURVE SMOOTH",
"268 1056 OFFCURVE",
"592 1366 OFFCURVE",
"945 1366 CURVE SMOOTH",
"1134 1366 OFFCURVE",
"1306 1273 OFFCURVE",
"1403 1109 CURVE",
"1459 1137 LINE",
"1357 1311 OFFCURVE",
"1173 1426 OFFCURVE",
"947 1426 CURVE SMOOTH",
"567 1426 OFFCURVE",
"215 1102 OFFCURVE",
"159 703 CURVE SMOOTH",
"102 302 OFFCURVE",
"366 -26 OFFCURVE",
"750 -26 CURVE SMOOTH"
);
}
);
width = 1496;
}
);
leftKerningGroup = O;
rightKerningGroup = O;
unicode = 0047;
},
{
glyphname = H;
lastChange = "2020-02-03 19:54:53 +0000";
layers = (
{
layerId = "10BC12B3-5274-42E3-B5BC-F74F362F0DF4";
paths = (
{
closed = 1;
nodes = (
"916 900 LINE",
"420 900 LINE",
"420 1400 LINE",
"120 1400 LINE",
"120 0 LINE",
"420 0 LINE",
"420 600 LINE",
"916 600 LINE",
"916 0 LINE",
"1216 0 LINE",
"1216 1400 LINE",
"916 1400 LINE"
);
}
);
width = 1336;
},
{
layerId = "9AF1F7D9-E035-453E-B2A8-46DE370997D0";
paths = (
{
closed = 1;
nodes = (
"1034 800 LINE",
"180 800 LINE",
"180 1400 LINE",
"120 1400 LINE",
"120 0 LINE",
"180 0 LINE",
"180 740 LINE",
"1034 740 LINE",
"1034 0 LINE",
"1094 0 LINE",
"1094 1400 LINE",
"1034 1400 LINE"
);
}
);
width = 1214;
},
{
layerId = "F9B50E00-60B3-4906-8473-0A03A162A9E3";
paths = (
{
closed = 1;
nodes = (
"1042 900 LINE",
"546 900 LINE",
"617 1400 LINE",
"317 1400 LINE",
"120 0 LINE",
"420 0 LINE",
"504 600 LINE",
"1000 600 LINE",
"916 0 LINE",
"1216 0 LINE",
"1413 1400 LINE",
"1113 1400 LINE"
);
}
);
width = 1336;
},
{
layerId = "81C5C66F-25B8-499A-A0AB-712FDA102FD8";
paths = (
{
closed = 1;
nodes = (
"1146 800 LINE",
"292 800 LINE",
"377 1400 LINE",
"317 1400 LINE",
"120 0 LINE",
"180 0 LINE",
"284 740 LINE",
"1138 740 LINE",
"1034 0 LINE",
"1094 0 LINE",
"1291 1400 LINE",
"1231 1400 LINE"
);
}
);
width = 1214;
}
);
leftKerningGroup = H;
rightKerningGroup = H;
unicode = 0048;
},
{
glyphname = I;
lastChange = "2020-02-03 19:54:53 +0000";
layers = (
{
layerId = "10BC12B3-5274-42E3-B5BC-F74F362F0DF4";
paths = (
{
closed = 1;
nodes = (
"450 0 LINE",
"450 1400 LINE",
"150 1400 LINE",
"150 0 LINE"
);
}
);
width = 600;
},
{
layerId = "9AF1F7D9-E035-453E-B2A8-46DE370997D0";
paths = (
{
closed = 1;
nodes = (
"210 0 LINE",
"210 1400 LINE",
"150 1400 LINE",
"150 0 LINE"
);
}
);
width = 360;
},
{
layerId = "F9B50E00-60B3-4906-8473-0A03A162A9E3";
paths = (
{
closed = 1;
nodes = (
"450 0 LINE",
"647 1400 LINE",
"347 1400 LINE",
"150 0 LINE"
);
}
);
width = 600;
},
{
layerId = "81C5C66F-25B8-499A-A0AB-712FDA102FD8";
paths = (
{
closed = 1;
nodes = (
"210 0 LINE",
"407 1400 LINE",
"347 1400 LINE",
"150 0 LINE"
);
}
);
width = 360;
}
);
leftKerningGroup = H;
rightKerningGroup = H;
unicode = 0049;
},
{
glyphname = J;
lastChange = "2020-02-03 19:54:53 +0000";
layers = (
{
layerId = "10BC12B3-5274-42E3-B5BC-F74F362F0DF4";
paths = (
{
closed = 1;
nodes = (
"602 -26 OFFCURVE",
"814 186 OFFCURVE",
"814 446 CURVE SMOOTH",
"814 1400 LINE",
"514 1400 LINE",
"514 446 LINE SMOOTH",
"514 352 OFFCURVE",
"436 274 OFFCURVE",
"342 274 CURVE SMOOTH",
"290 274 OFFCURVE",
"254 296 OFFCURVE",
"232 314 CURVE",
"40 84 LINE",
"124 12 OFFCURVE",
"232 -26 OFFCURVE",
"342 -26 CURVE SMOOTH"
);
}
);
width = 934;
},
{
layerId = "9AF1F7D9-E035-453E-B2A8-46DE370997D0";
paths = (
{
closed = 1;
nodes = (
"460 -26 OFFCURVE",
"618 152 OFFCURVE",
"618 346 CURVE SMOOTH",
"618 1400 LINE",
"558 1400 LINE",
"558 346 LINE SMOOTH",
"558 184 OFFCURVE",
"426 34 OFFCURVE",
"264 34 CURVE SMOOTH",
"196 34 OFFCURVE",
"130 58 OFFCURVE",
"78 102 CURVE",
"40 56 LINE",
"102 2 OFFCURVE",
"182 -26 OFFCURVE",
"264 -26 CURVE SMOOTH"
);
}
);
width = 738;
},
{
layerId = "F9B50E00-60B3-4906-8473-0A03A162A9E3";
paths = (
{
closed = 1;
nodes = (
"607 -26 OFFCURVE",
"839 178 OFFCURVE",
"876 438 CURVE SMOOTH",
"1011 1400 LINE",
"711 1400 LINE",
"578 454 LINE SMOOTH",
"565 360 OFFCURVE",
"466 274 OFFCURVE",
"364 274 CURVE SMOOTH",
"320 274 OFFCURVE",
"288 291 OFFCURVE",
"269 309 CURVE",
"56 89 LINE",
"133 17 OFFCURVE",
"237 -26 OFFCURVE",
"355 -26 CURVE SMOOTH"
);
}
);
width = 934;
},
{
layerId = "81C5C66F-25B8-499A-A0AB-712FDA102FD8";
paths = (
{
closed = 1;
nodes = (
"458 -26 OFFCURVE",
"639 150 OFFCURVE",
"666 344 CURVE SMOOTH",
"815 1400 LINE",
"755 1400 LINE",
"607 348 LINE SMOOTH",
"584 186 OFFCURVE",
"429 34 OFFCURVE",
"265 34 CURVE SMOOTH",
"199 34 OFFCURVE",
"137 57 OFFCURVE",
"91 101 CURVE",
"49 57 LINE",
"104 3 OFFCURVE",
"180 -26 OFFCURVE",
"264 -26 CURVE SMOOTH"
);
}
);
width = 738;
}
);
leftKerningGroup = J;
rightKerningGroup = J;
unicode = 004A;
},
{
glyphname = K;
lastChange = "2020-02-03 19:54:53 +0000";
layers = (
{
layerId = "10BC12B3-5274-42E3-B5BC-F74F362F0DF4";
paths = (
{
closed = 1;
nodes = (
"656 740 LINE",
"1210 1400 LINE",
"818 1400 LINE",
"420 924 LINE",
"420 1400 LINE",
"120 1400 LINE",
"120 0 LINE",
"420 0 LINE",
"420 458 LINE",
"460 506 LINE",
"818 0 LINE",
"1210 0 LINE"
);
}
);
width = 1230;
},
{
layerId = "9AF1F7D9-E035-453E-B2A8-46DE370997D0";
paths = (
{
closed = 1;
nodes = (
"378 738 LINE",
"934 1400 LINE",
"856 1400 LINE",
"180 594 LINE",
"180 1400 LINE",
"120 1400 LINE",
"120 0 LINE",
"180 0 LINE",
"180 500 LINE",
"338 690 LINE",
"848 0 LINE",
"924 0 LINE"
);
}
);
width = 984;
},
{
layerId = "F9B50E00-60B3-4906-8473-0A03A162A9E3";
paths = (
{
closed = 1;
nodes = (
"760 740 LINE",
"1410 1400 LINE",
"1012 1400 LINE",
"547 924 LINE",
"617 1400 LINE",
"317 1400 LINE",
"120 0 LINE",
"420 0 LINE",
"488 458 LINE",
"538 506 LINE",
"821 0 LINE",
"1207 0 LINE"
);
}
);
width = 1230;
},
{
layerId = "81C5C66F-25B8-499A-A0AB-712FDA102FD8";
paths = (
{
closed = 1;
nodes = (
"482 738 LINE",
"1131 1400 LINE",
"1052 1400 LINE",
"263 594 LINE",
"377 1400 LINE",
"317 1400 LINE",
"120 0 LINE",
"180 0 LINE",
"251 500 LINE",
"436 690 LINE",
"849 0 LINE",
"923 0 LINE"
);
}
);
width = 984;
}
);
leftKerningGroup = H;
rightKerningGroup = K;
unicode = 004B;
},
{
glyphname = L;
lastChange = "2020-02-03 19:54:53 +0000";
layers = (
{
layerId = "10BC12B3-5274-42E3-B5BC-F74F362F0DF4";
paths = (
{
closed = 1;
nodes = (
"970 0 LINE",
"970 300 LINE",
"420 300 LINE",
"420 1400 LINE",
"120 1400 LINE",
"120 0 LINE"
);
}
);
width = 1070;
},
{
layerId = "9AF1F7D9-E035-453E-B2A8-46DE370997D0";
paths = (
{
closed = 1;
nodes = (
"870 0 LINE",
"870 60 LINE",
"180 60 LINE",
"180 1400 LINE",
"120 1400 LINE",
"120 0 LINE"
);
}
);
width = 970;
},
{
layerId = "F9B50E00-60B3-4906-8473-0A03A162A9E3";
paths = (
{
closed = 1;
nodes = (
"970 0 LINE",
"1012 300 LINE",
"462 300 LINE",
"617 1400 LINE",
"317 1400 LINE",
"120 0 LINE"
);
}
);
width = 1070;
},
{
layerId = "81C5C66F-25B8-499A-A0AB-712FDA102FD8";
paths = (
{
closed = 1;
nodes = (
"870 0 LINE",
"878 60 LINE",
"188 60 LINE",
"377 1400 LINE",
"317 1400 LINE",
"120 0 LINE"
);
}
);
width = 970;
}
);
leftKerningGroup = H;
leftMetricsKey = H;
rightKerningGroup = L;
unicode = 004C;
},
{
glyphname = M;
lastChange = "2020-02-03 19:54:53 +0000";
layers = (
{
layerId = "10BC12B3-5274-42E3-B5BC-F74F362F0DF4";
paths = (
{
closed = 1;
nodes = (
"426 0 LINE",
"572 756 LINE",
"858 0 LINE",
"1066 0 LINE",
"1352 756 LINE",
"1498 0 LINE",
"1804 0 LINE",
"1532 1400 LINE",
"1276 1400 LINE",
"962 574 LINE",
"648 1400 LINE",
"392 1400 LINE",
"120 0 LINE"
);
}
);
width = 1924;
},
{
layerId = "9AF1F7D9-E035-453E-B2A8-46DE370997D0";
paths = (
{
closed = 1;
nodes = (
"180 0 LINE",
"418 1228 LINE",
"830 138 LINE",
"860 138 LINE",
"1272 1228 LINE",
"1510 0 LINE",
"1572 0 LINE",
"1300 1400 LINE",
"1274 1400 LINE",
"846 268 LINE",
"416 1400 LINE",
"390 1400 LINE",
"120 0 LINE"
);
}
);
width = 1692;
},
{
layerId = "F9B50E00-60B3-4906-8473-0A03A162A9E3";
paths = (
{
closed = 1;
nodes = (
"428 0 LINE",
"682 756 LINE",
"861 0 LINE",
"1069 0 LINE",
"1462 756 LINE",
"1499 0 LINE",
"1802 0 LINE",
"1727 1400 LINE",
"1470 1400 LINE",
"1037 574 LINE",
"842 1400 LINE",
"587 1400 LINE",
"118 0 LINE"
);
}
);
width = 1924;
},
{
layerId = "81C5C66F-25B8-499A-A0AB-712FDA102FD8";
paths = (
{
closed = 1;
nodes = (
"180 0 LINE",
"591 1228 LINE",
"850 138 LINE",
"880 138 LINE",
"1445 1228 LINE",
"1510 0 LINE",
"1572 0 LINE",
"1496 1400 LINE",
"1470 1400 LINE",
"883 268 LINE",
"612 1400 LINE",
"586 1400 LINE",
"120 0 LINE"
);
}
);
width = 1692;
}
);
leftKerningGroup = M;
rightKerningGroup = M;
unicode = 004D;
},
{
glyphname = N;
lastChange = "2020-02-03 19:54:53 +0000";
layers = (
{
layerId = "10BC12B3-5274-42E3-B5BC-F74F362F0DF4";
paths = (
{
closed = 1;
nodes = (
"420 0 LINE",
"420 858 LINE",
"932 0 LINE",
"1256 0 LINE",
"1256 1400 LINE",
"956 1400 LINE",
"956 542 LINE",
"444 1400 LINE",
"120 1400 LINE",
"120 0 LINE"
);
}
);
width = 1376;
},
{
layerId = "9AF1F7D9-E035-453E-B2A8-46DE370997D0";
paths = (
{
closed = 1;
nodes = (
"210 0 LINE",
"210 1292 LINE",
"1064 0 LINE",
"1128 0 LINE",
"1128 1400 LINE",
"1068 1400 LINE",
"1068 108 LINE",
"216 1400 LINE",
"150 1400 LINE",
"150 0 LINE"
);
}
);
width = 1278;
},
{
layerId = "F9B50E00-60B3-4906-8473-0A03A162A9E3";
paths = (
{
closed = 1;
nodes = (
"420 0 LINE",
"544 858 LINE",
"935 0 LINE",
"1256 0 LINE",
"1453 1400 LINE",
"1153 1400 LINE",
"1029 542 LINE",
"638 1400 LINE",
"317 1400 LINE",
"120 0 LINE"
);
}
);
width = 1376;
},
{
layerId = "81C5C66F-25B8-499A-A0AB-712FDA102FD8";
paths = (
{
closed = 1;
nodes = (
"210 0 LINE",
"392 1292 LINE",
"1065 0 LINE",
"1128 0 LINE",
"1325 1400 LINE",
"1265 1400 LINE",
"1083 108 LINE",
"412 1400 LINE",
"347 1400 LINE",
"150 0 LINE"
);
}
);
width = 1278;
}
);
leftKerningGroup = H;
rightKerningGroup = H;
unicode = 004E;
},
{
glyphname = O;
lastChange = "2020-02-03 19:54:53 +0000";
layers = (
{
layerId = "10BC12B3-5274-42E3-B5BC-F74F362F0DF4";
paths = (
{
closed = 1;
nodes = (
"1150 -26 OFFCURVE",
"1460 300 OFFCURVE",
"1460 700 CURVE SMOOTH",
"1460 1100 OFFCURVE",
"1150 1426 OFFCURVE",
"770 1426 CURVE SMOOTH",
"390 1426 OFFCURVE",
"80 1100 OFFCURVE",
"80 700 CURVE SMOOTH",
"80 300 OFFCURVE",
"390 -26 OFFCURVE",
"770 -26 CURVE SMOOTH"
);
},
{
closed = 1;
nodes = (
"556 274 OFFCURVE",
"380 466 OFFCURVE",
"380 700 CURVE SMOOTH",
"380 934 OFFCURVE",
"556 1126 OFFCURVE",
"770 1126 CURVE SMOOTH",
"984 1126 OFFCURVE",
"1160 934 OFFCURVE",
"1160 700 CURVE SMOOTH",
"1160 466 OFFCURVE",
"984 274 OFFCURVE",
"770 274 CURVE SMOOTH"
);
}
);
width = 1540;
},
{
layerId = "9AF1F7D9-E035-453E-B2A8-46DE370997D0";
paths = (
{
closed = 1;
nodes = (
"1150 -26 OFFCURVE",
"1460 300 OFFCURVE",
"1460 700 CURVE SMOOTH",
"1460 1100 OFFCURVE",
"1150 1426 OFFCURVE",
"770 1426 CURVE SMOOTH",
"390 1426 OFFCURVE",
"80 1100 OFFCURVE",
"80 700 CURVE SMOOTH",
"80 300 OFFCURVE",
"390 -26 OFFCURVE",
"770 -26 CURVE SMOOTH"
);
},
{
closed = 1;
nodes = (
"422 34 OFFCURVE",
"140 334 OFFCURVE",
"140 700 CURVE SMOOTH",
"140 1060 OFFCURVE",
"418 1366 OFFCURVE",
"770 1366 CURVE SMOOTH",
"1118 1366 OFFCURVE",
"1400 1064 OFFCURVE",
"1400 700 CURVE SMOOTH",
"1400 340 OFFCURVE",
"1122 34 OFFCURVE",
"770 34 CURVE SMOOTH"
);
}
);
width = 1540;
},
{
layerId = "F9B50E00-60B3-4906-8473-0A03A162A9E3";
paths = (
{
closed = 1;
nodes = (
"1155 -26 OFFCURVE",
"1501 292 OFFCURVE",
"1556 683 CURVE SMOOTH",
"1613 1092 OFFCURVE",
"1342 1426 OFFCURVE",
"954 1426 CURVE SMOOTH",
"582 1426 OFFCURVE",
"236 1108 OFFCURVE",
"181 717 CURVE SMOOTH",
"123 308 OFFCURVE",
"395 -26 OFFCURVE",
"783 -26 CURVE SMOOTH"
);
},
{
closed = 1;
nodes = (
"586 274 OFFCURVE",
"444 458 OFFCURVE",
"476 683 CURVE SMOOTH",
"510 926 OFFCURVE",
"723 1126 OFFCURVE",
"945 1126 CURVE SMOOTH",
"1151 1126 OFFCURVE",
"1292 942 OFFCURVE",
"1261 717 CURVE SMOOTH",
"1227 474 OFFCURVE",
"1014 274 OFFCURVE",
"792 274 CURVE SMOOTH"
);
}
);
width = 1540;
},
{
layerId = "81C5C66F-25B8-499A-A0AB-712FDA102FD8";
paths = (
{
closed = 1;
nodes = (
"1148 -26 OFFCURVE",
"1502 298 OFFCURVE",
"1558 697 CURVE SMOOTH",
"1614 1098 OFFCURVE",
"1349 1426 OFFCURVE",
"967 1426 CURVE SMOOTH",
"589 1426 OFFCURVE",
"235 1102 OFFCURVE",
"179 703 CURVE SMOOTH",
"122 302 OFFCURVE",
"388 -26 OFFCURVE",
"770 -26 CURVE SMOOTH"
);
},
{
closed = 1;
nodes = (
"425 34 OFFCURVE",
"187 332 OFFCURVE",
"238 697 CURVE SMOOTH",
"289 1058 OFFCURVE",
"612 1366 OFFCURVE",
"965 1366 CURVE SMOOTH",
"1312 1366 OFFCURVE",
"1550 1066 OFFCURVE",
"1499 703 CURVE SMOOTH",
"1448 342 OFFCURVE",
"1125 34 OFFCURVE",
"771 34 CURVE SMOOTH"
);
}
);
width = 1540;
}
);
leftKerningGroup = O;
rightKerningGroup = O;
unicode = 004F;
},
{
glyphname = Oslash;
lastChange = "2020-02-03 19:54:53 +0000";
layers = (
{
layerId = "10BC12B3-5274-42E3-B5BC-F74F362F0DF4";
paths = (
{
closed = 1;
nodes = (
"548 14 LINE",
"618 -12 OFFCURVE",
"692 -26 OFFCURVE",
"770 -26 CURVE SMOOTH",
"1150 -26 OFFCURVE",
"1460 300 OFFCURVE",
"1460 700 CURVE SMOOTH",
"1460 906 OFFCURVE",
"1378 1092 OFFCURVE",
"1246 1226 CURVE",
"1332 1372 LINE",
"1072 1522 LINE",
"994 1388 LINE",
"924 1412 OFFCURVE",
"850 1426 OFFCURVE",
"770 1426 CURVE SMOOTH",
"390 1426 OFFCURVE",
"80 1100 OFFCURVE",
"80 700 CURVE SMOOTH",
"80 494 OFFCURVE",
"164 308 OFFCURVE",
"294 176 CURVE",
"210 28 LINE",
"470 -122 LINE"
);
},
{
closed = 1;
nodes = (
"408 522 OFFCURVE",
"380 608 OFFCURVE",
"380 700 CURVE SMOOTH",
"380 934 OFFCURVE",
"556 1126 OFFCURVE",
"770 1126 CURVE SMOOTH",
"794 1126 OFFCURVE",
"818 1124 OFFCURVE",
"840 1120 CURVE",
"454 452 LINE"
);
},
{
closed = 1;
nodes = (
"748 274 OFFCURVE",
"724 276 OFFCURVE",
"702 282 CURVE",
"1088 948 LINE",
"1134 878 OFFCURVE",
"1160 792 OFFCURVE",
"1160 700 CURVE SMOOTH",
"1160 466 OFFCURVE",
"984 274 OFFCURVE",
"770 274 CURVE SMOOTH"
);
}
);
width = 1540;
},
{
layerId = "9AF1F7D9-E035-453E-B2A8-46DE370997D0";
paths = (
{
closed = 1;
nodes = (
"438 64 LINE",
"538 8 OFFCURVE",
"650 -26 OFFCURVE",
"770 -26 CURVE SMOOTH",
"1150 -26 OFFCURVE",
"1460 300 OFFCURVE",
"1460 700 CURVE SMOOTH",
"1460 952 OFFCURVE",
"1338 1174 OFFCURVE",
"1154 1304 CURVE",
"1228 1432 LINE",
"1176 1462 LINE",
"1104 1336 LINE",
"1004 1394 OFFCURVE",
"892 1426 OFFCURVE",
"770 1426 CURVE SMOOTH",
"390 1426 OFFCURVE",
"80 1100 OFFCURVE",
"80 700 CURVE SMOOTH",
"80 450 OFFCURVE",
"204 228 OFFCURVE",
"388 96 CURVE",
"314 -32 LINE",
"366 -62 LINE"
);
},
{
closed = 1;
nodes = (
"250 270 OFFCURVE",
"140 472 OFFCURVE",
"140 700 CURVE SMOOTH",
"140 1060 OFFCURVE",
"418 1366 OFFCURVE",
"770 1366 CURVE SMOOTH",
"880 1366 OFFCURVE",
"984 1336 OFFCURVE",
"1074 1284 CURVE",
"418 150 LINE"
);
},
{
closed = 1;
nodes = (
"662 34 OFFCURVE",
"558 64 OFFCURVE",
"468 116 CURVE",
"1124 1252 LINE",
"1290 1130 OFFCURVE",
"1400 928 OFFCURVE",
"1400 700 CURVE SMOOTH",
"1400 340 OFFCURVE",
"1122 34 OFFCURVE",
"770 34 CURVE SMOOTH"
);
}
);
width = 1540;
},
{
layerId = "F9B50E00-60B3-4906-8473-0A03A162A9E3";
paths = (
{
closed = 1;
nodes = (
"561 17 LINE",
"625 -9 OFFCURVE",
"697 -26 OFFCURVE",
"783 -26 CURVE SMOOTH",
"1155 -26 OFFCURVE",
"1501 292 OFFCURVE",
"1556 683 CURVE SMOOTH",
"1586 898 OFFCURVE",
"1525 1086 OFFCURVE",
"1412 1220 CURVE",
"1526 1372 LINE",
"1281 1522 LINE",
"1178 1385 LINE",
"1114 1409 OFFCURVE",
"1042 1426 OFFCURVE",
"954 1426 CURVE SMOOTH",
"582 1426 OFFCURVE",
"236 1108 OFFCURVE",
"181 717 CURVE SMOOTH",
"151 502 OFFCURVE",
"214 314 OFFCURVE",
"325 182 CURVE",
"213 28 LINE",
"458 -122 LINE"
);
},
{
closed = 1;
nodes = (
"476 515 OFFCURVE",
"464 600 OFFCURVE",
"476 683 CURVE SMOOTH",
"510 926 OFFCURVE",
"723 1126 OFFCURVE",
"945 1126 CURVE SMOOTH",
"961 1126 OFFCURVE",
"984 1125 OFFCURVE",
"1006 1121 CURVE",
"509 445 LINE"
);
},
{
closed = 1;
nodes = (
"778 274 OFFCURVE",
"754 274 OFFCURVE",
"733 280 CURVE",
"1230 955 LINE",
"1263 885 OFFCURVE",
"1272 800 OFFCURVE",
"1261 717 CURVE SMOOTH",
"1227 474 OFFCURVE",
"1014 274 OFFCURVE",
"792 274 CURVE SMOOTH"
);
}
);
width = 1540;
},
{
layerId = "81C5C66F-25B8-499A-A0AB-712FDA102FD8";
paths = (
{
closed = 1;
nodes = (
"449 65 LINE",
"541 9 OFFCURVE",
"648 -26 OFFCURVE",
"770 -26 CURVE SMOOTH",
"1148 -26 OFFCURVE",
"1502 298 OFFCURVE",
"1558 697 CURVE SMOOTH",
"1594 950 OFFCURVE",
"1501 1173 OFFCURVE",
"1336 1303 CURVE",
"1430 1432 LINE",
"1380 1462 LINE",
"1290 1335 LINE",
"1198 1393 OFFCURVE",
"1091 1426 OFFCURVE",
"967 1426 CURVE SMOOTH",
"589 1426 OFFCURVE",
"235 1102 OFFCURVE",
"179 703 CURVE SMOOTH",
"143 452 OFFCURVE",
"238 229 OFFCURVE",
"403 97 CURVE",
"309 -32 LINE",
"358 -62 LINE"
);
},
{
closed = 1;
nodes = (
"286 269 OFFCURVE",
"206 470 OFFCURVE",
"238 697 CURVE SMOOTH",
"289 1058 OFFCURVE",
"612 1366 OFFCURVE",
"965 1366 CURVE SMOOTH",
"1074 1366 OFFCURVE",
"1173 1337 OFFCURVE",
"1256 1285 CURVE",
"437 149 LINE"
);
},
{
closed = 1;
nodes = (
"665 34 OFFCURVE",
"565 63 OFFCURVE",
"483 115 CURVE",
"1302 1253 LINE",
"1450 1131 OFFCURVE",
"1531 930 OFFCURVE",
"1499 703 CURVE SMOOTH",
"1448 342 OFFCURVE",
"1125 34 OFFCURVE",
"771 34 CURVE SMOOTH"
);
}
);
width = 1540;
}
);
leftKerningGroup = O;
leftMetricsKey = O;
rightKerningGroup = O;
rightMetricsKey = O;
unicode = 00D8;
},
{
glyphname = OE;
lastChange = "2020-02-03 19:54:53 +0000";
layers = (
{
layerId = "10BC12B3-5274-42E3-B5BC-F74F362F0DF4";
paths = (
{
closed = 1;
nodes = (
"916 -26 OFFCURVE",
"1052 22 OFFCURVE",
"1164 104 CURVE",
"1164 0 LINE",
"1996 0 LINE",
"1996 300 LINE",
"1464 300 LINE",
"1464 550 LINE",
"1900 550 LINE",
"1900 850 LINE",
"1464 850 LINE",
"1464 1100 LINE",
"1996 1100 LINE",
"1996 1400 LINE",
"1164 1400 LINE",
"1164 1296 LINE",
"1052 1378 OFFCURVE",
"916 1426 OFFCURVE",
"770 1426 CURVE SMOOTH",
"390 1426 OFFCURVE",
"80 1100 OFFCURVE",
"80 700 CURVE SMOOTH",
"80 300 OFFCURVE",
"390 -26 OFFCURVE",
"770 -26 CURVE SMOOTH"
);
},
{
closed = 1;
nodes = (
"556 274 OFFCURVE",
"380 466 OFFCURVE",
"380 700 CURVE SMOOTH",
"380 934 OFFCURVE",
"556 1126 OFFCURVE",
"770 1126 CURVE SMOOTH",
"984 1126 OFFCURVE",
"1160 934 OFFCURVE",
"1160 700 CURVE SMOOTH",
"1160 466 OFFCURVE",
"984 274 OFFCURVE",
"770 274 CURVE SMOOTH"
);
}
);
width = 2096;
},
{
layerId = "9AF1F7D9-E035-453E-B2A8-46DE370997D0";
paths = (
{
closed = 1;
nodes = (
"1050 -26 OFFCURVE",
"1292 152 OFFCURVE",
"1400 404 CURVE",
"1400 0 LINE",
"2106 0 LINE",
"2106 60 LINE",
"1460 60 LINE",
"1460 670 LINE",
"2010 670 LINE",
"2010 730 LINE",
"1460 730 LINE",
"1460 1340 LINE",
"2106 1340 LINE",
"2106 1400 LINE",
"1400 1400 LINE",
"1400 996 LINE",
"1292 1248 OFFCURVE",
"1050 1426 OFFCURVE",
"770 1426 CURVE SMOOTH",
"390 1426 OFFCURVE",
"80 1100 OFFCURVE",
"80 700 CURVE SMOOTH",
"80 300 OFFCURVE",
"390 -26 OFFCURVE",
"770 -26 CURVE SMOOTH"
);
},
{
closed = 1;
nodes = (
"422 34 OFFCURVE",
"140 334 OFFCURVE",
"140 700 CURVE SMOOTH",
"140 1060 OFFCURVE",
"418 1366 OFFCURVE",
"770 1366 CURVE SMOOTH",
"1118 1366 OFFCURVE",
"1400 1064 OFFCURVE",
"1400 700 CURVE SMOOTH",
"1400 340 OFFCURVE",
"1122 34 OFFCURVE",
"770 34 CURVE SMOOTH"
);
}
);
width = 2206;
},
{
layerId = "F9B50E00-60B3-4906-8473-0A03A162A9E3";
paths = (
{
closed = 1;
nodes = (
"921 -26 OFFCURVE",
"1061 17 OFFCURVE",
"1185 99 CURVE",
"1163 0 LINE",
"1996 0 LINE",
"2038 300 LINE",
"1506 300 LINE",
"1541 550 LINE",
"1977 550 LINE",
"2019 850 LINE",
"1583 850 LINE",
"1619 1100 LINE",
"2151 1100 LINE",
"2193 1400 LINE",
"1361 1400 LINE",
"1339 1291 LINE",
"1238 1373 OFFCURVE",
"1108 1426 OFFCURVE",
"954 1426 CURVE SMOOTH",
"582 1426 OFFCURVE",
"236 1108 OFFCURVE",
"181 717 CURVE SMOOTH",
"123 308 OFFCURVE",
"395 -26 OFFCURVE",
"783 -26 CURVE SMOOTH"
);
},
{
closed = 1;
nodes = (
"586 274 OFFCURVE",
"444 458 OFFCURVE",
"476 683 CURVE SMOOTH",
"510 926 OFFCURVE",
"723 1126 OFFCURVE",
"945 1126 CURVE SMOOTH",
"1151 1126 OFFCURVE",
"1292 942 OFFCURVE",
"1261 717 CURVE SMOOTH",
"1227 474 OFFCURVE",
"1014 274 OFFCURVE",
"792 274 CURVE SMOOTH"
);
}
);
width = 2096;
},
{
layerId = "81C5C66F-25B8-499A-A0AB-712FDA102FD8";
paths = (
{
closed = 1;
nodes = (
"1048 -26 OFFCURVE",
"1314 150 OFFCURVE",
"1457 402 CURVE",
"1400 0 LINE",
"2106 0 LINE",
"2114 60 LINE",
"1468 60 LINE",
"1554 670 LINE",
"2104 670 LINE",
"2113 730 LINE",
"1563 730 LINE",
"1648 1340 LINE",
"2294 1340 LINE",
"2303 1400 LINE",
"1597 1400 LINE",
"1539 994 LINE",
"1467 1246 OFFCURVE",
"1249 1426 OFFCURVE",
"967 1426 CURVE SMOOTH",
"589 1426 OFFCURVE",
"235 1102 OFFCURVE",
"179 703 CURVE SMOOTH",
"122 302 OFFCURVE",
"388 -26 OFFCURVE",
"770 -26 CURVE SMOOTH"
);
},
{
closed = 1;
nodes = (
"425 34 OFFCURVE",
"187 332 OFFCURVE",
"238 697 CURVE SMOOTH",
"289 1058 OFFCURVE",
"612 1366 OFFCURVE",
"965 1366 CURVE SMOOTH",
"1312 1366 OFFCURVE",
"1550 1066 OFFCURVE",
"1499 703 CURVE SMOOTH",
"1448 342 OFFCURVE",
"1125 34 OFFCURVE",
"771 34 CURVE SMOOTH"
);
}
);
width = 2206;
}
);
leftKerningGroup = O;
leftMetricsKey = O;
rightKerningGroup = E;
rightMetricsKey = E;
unicode = 0152;
},
{
glyphname = P;
lastChange = "2020-02-03 19:54:53 +0000";
layers = (
{
layerId = "10BC12B3-5274-42E3-B5BC-F74F362F0DF4";
paths = (
{
closed = 1;
nodes = (
"420 0 LINE",
"420 544 LINE",
"648 544 LINE SMOOTH",
"870 544 OFFCURVE",
"1060 736 OFFCURVE",
"1060 972 CURVE SMOOTH",
"1060 1204 OFFCURVE",
"878 1400 OFFCURVE",
"648 1400 CURVE SMOOTH",
"120 1400 LINE",
"120 0 LINE"
);
},
{
closed = 1;
nodes = (
"420 1144 LINE",
"614 1144 LINE SMOOTH",
"694 1144 OFFCURVE",
"760 1076 OFFCURVE",
"760 994 CURVE SMOOTH",
"760 912 OFFCURVE",
"694 844 OFFCURVE",
"614 844 CURVE SMOOTH",
"420 844 LINE"
);
}
);
width = 1140;
},
{
layerId = "9AF1F7D9-E035-453E-B2A8-46DE370997D0";
paths = (
{
closed = 1;
nodes = (
"180 0 LINE",
"180 600 LINE",
"528 600 LINE SMOOTH",
"742 600 OFFCURVE",
"920 770 OFFCURVE",
"920 1000 CURVE SMOOTH",
"920 1228 OFFCURVE",
"748 1400 OFFCURVE",
"528 1400 CURVE SMOOTH",
"120 1400 LINE",
"120 0 LINE"
);
},
{
closed = 1;
nodes = (
"180 1340 LINE",
"528 1340 LINE SMOOTH",
"710 1340 OFFCURVE",
"860 1196 OFFCURVE",
"860 1000 CURVE SMOOTH",
"860 804 OFFCURVE",
"710 660 OFFCURVE",
"528 660 CURVE SMOOTH",
"180 660 LINE"
);
}
);
width = 1000;
},
{
layerId = "F9B50E00-60B3-4906-8473-0A03A162A9E3";
paths = (
{
closed = 1;
nodes = (
"420 0 LINE",
"496 544 LINE",
"733 544 LINE SMOOTH",
"955 544 OFFCURVE",
"1162 728 OFFCURVE",
"1194 955 CURVE SMOOTH",
"1228 1196 OFFCURVE",
"1066 1400 OFFCURVE",
"836 1400 CURVE SMOOTH",
"317 1400 LINE",
"120 0 LINE"
);
},
{
closed = 1;
nodes = (
"581 1144 LINE",
"783 1144 LINE SMOOTH",
"863 1144 OFFCURVE",
"912 1084 OFFCURVE",
"902 1011 CURVE SMOOTH",
"889 920 OFFCURVE",
"804 844 OFFCURVE",
"724 844 CURVE SMOOTH",
"539 844 LINE"
);
}
);
width = 1140;
},
{
layerId = "81C5C66F-25B8-499A-A0AB-712FDA102FD8";
paths = (
{
closed = 1;
nodes = (
"180 0 LINE",
"264 600 LINE",
"614 600 LINE SMOOTH",
"828 600 OFFCURVE",
"1028 768 OFFCURVE",
"1060 997 CURVE SMOOTH",
"1092 1226 OFFCURVE",
"943 1400 OFFCURVE",
"723 1400 CURVE SMOOTH",
"317 1400 LINE",
"120 0 LINE"
);
},
{
closed = 1;
nodes = (
"368 1340 LINE",
"718 1340 LINE SMOOTH",
"900 1340 OFFCURVE",
"1028 1198 OFFCURVE",
"1001 1003 CURVE SMOOTH",
"973 806 OFFCURVE",
"801 660 OFFCURVE",
"619 660 CURVE SMOOTH",
"273 660 LINE"
);
}
);
width = 1000;
}
);
leftKerningGroup = H;
leftMetricsKey = H;
rightKerningGroup = P;
unicode = 0050;
},
{
glyphname = Thorn;
lastChange = "2020-02-03 19:54:53 +0000";
layers = (
{
layerId = "10BC12B3-5274-42E3-B5BC-F74F362F0DF4";
paths = (
{
closed = 1;
nodes = (
"420 0 LINE",
"420 272 LINE",
"648 272 LINE SMOOTH",
"870 272 OFFCURVE",
"1060 464 OFFCURVE",
"1060 700 CURVE SMOOTH",
"1060 932 OFFCURVE",
"878 1128 OFFCURVE",
"648 1128 CURVE SMOOTH",
"420 1128 LINE",
"420 1400 LINE",
"120 1400 LINE",
"120 0 LINE"
);
},
{
closed = 1;
nodes = (
"420 872 LINE",
"614 872 LINE SMOOTH",
"694 872 OFFCURVE",
"760 804 OFFCURVE",
"760 722 CURVE SMOOTH",
"760 640 OFFCURVE",
"694 572 OFFCURVE",
"614 572 CURVE SMOOTH",
"420 572 LINE"
);
}
);
width = 1140;
},
{
layerId = "9AF1F7D9-E035-453E-B2A8-46DE370997D0";
paths = (
{
closed = 1;
nodes = (
"180 0 LINE",
"180 300 LINE",
"528 300 LINE SMOOTH",
"742 300 OFFCURVE",
"920 470 OFFCURVE",
"920 700 CURVE SMOOTH",
"920 928 OFFCURVE",
"748 1100 OFFCURVE",
"528 1100 CURVE SMOOTH",
"180 1100 LINE",
"180 1400 LINE",
"120 1400 LINE",
"120 0 LINE"
);
},
{
closed = 1;
nodes = (
"180 1040 LINE",
"528 1040 LINE SMOOTH",
"710 1040 OFFCURVE",
"860 896 OFFCURVE",
"860 700 CURVE SMOOTH",
"860 504 OFFCURVE",
"710 360 OFFCURVE",
"528 360 CURVE SMOOTH",
"180 360 LINE"
);
}
);
width = 1000;
},
{
layerId = "F9B50E00-60B3-4906-8473-0A03A162A9E3";
paths = (
{
closed = 1;
nodes = (
"420 0 LINE",
"458 272 LINE",
"695 272 LINE SMOOTH",
"917 272 OFFCURVE",
"1124 456 OFFCURVE",
"1156 683 CURVE SMOOTH",
"1190 924 OFFCURVE",
"1028 1128 OFFCURVE",
"798 1128 CURVE SMOOTH",
"579 1128 LINE",
"617 1400 LINE",
"317 1400 LINE",
"120 0 LINE"
);
},
{
closed = 1;
nodes = (
"543 872 LINE",
"745 872 LINE SMOOTH",
"825 872 OFFCURVE",
"874 812 OFFCURVE",
"864 739 CURVE SMOOTH",
"851 648 OFFCURVE",
"766 572 OFFCURVE",
"686 572 CURVE SMOOTH",
"500 572 LINE"
);
}
);
width = 1140;
},
{
layerId = "81C5C66F-25B8-499A-A0AB-712FDA102FD8";
paths = (
{
closed = 1;
nodes = (
"180 0 LINE",
"222 300 LINE",
"572 300 LINE SMOOTH",
"786 300 OFFCURVE",
"986 468 OFFCURVE",
"1018 697 CURVE SMOOTH",
"1050 926 OFFCURVE",
"901 1100 OFFCURVE",
"681 1100 CURVE SMOOTH",
"335 1100 LINE",
"377 1400 LINE",
"317 1400 LINE",
"120 0 LINE"
);
},
{
closed = 1;
nodes = (
"326 1040 LINE",
"676 1040 LINE SMOOTH",
"858 1040 OFFCURVE",
"986 898 OFFCURVE",
"959 703 CURVE SMOOTH",
"931 506 OFFCURVE",
"759 360 OFFCURVE",
"577 360 CURVE SMOOTH",
"231 360 LINE"
);
}
);
width = 1000;
}
);
leftKerningGroup = H;
rightKerningGroup = o;
rightMetricsKey = p;
unicode = 00DE;
},
{
glyphname = Q;
lastChange = "2020-02-03 19:54:53 +0000";
layers = (
{
layerId = "10BC12B3-5274-42E3-B5BC-F74F362F0DF4";
paths = (
{
closed = 1;
nodes = (
"1504 160 LINE",
"1350 314 LINE",
"1418 428 OFFCURVE",
"1460 562 OFFCURVE",
"1460 708 CURVE SMOOTH",
"1460 1108 OFFCURVE",
"1150 1434 OFFCURVE",
"770 1434 CURVE SMOOTH",
"390 1434 OFFCURVE",
"80 1108 OFFCURVE",
"80 708 CURVE SMOOTH",
"80 306 OFFCURVE",
"390 -18 OFFCURVE",
"770 -18 CURVE SMOOTH",
"908 -18 OFFCURVE",
"1036 24 OFFCURVE",
"1142 96 CURVE",
"1292 -52 LINE"
);
},
{
closed = 1;
nodes = (
"556 282 OFFCURVE",
"380 472 OFFCURVE",
"380 708 CURVE SMOOTH",
"380 942 OFFCURVE",
"556 1134 OFFCURVE",
"770 1134 CURVE SMOOTH",
"984 1134 OFFCURVE",
"1160 942 OFFCURVE",
"1160 708 CURVE SMOOTH",
"1160 648 OFFCURVE",
"1148 590 OFFCURVE",
"1126 538 CURVE",
"1052 612 LINE",
"840 400 LINE",
"924 316 LINE",
"876 294 OFFCURVE",
"824 282 OFFCURVE",
"770 282 CURVE SMOOTH"
);
}
);
width = 1584;
},
{
layerId = "9AF1F7D9-E035-453E-B2A8-46DE370997D0";
paths = (
{
closed = 1;
nodes = (
"1454 32 LINE",
"1276 208 LINE",
"1390 338 OFFCURVE",
"1458 510 OFFCURVE",
"1458 700 CURVE SMOOTH",
"1458 1100 OFFCURVE",
"1150 1426 OFFCURVE",
"770 1426 CURVE SMOOTH",
"388 1426 OFFCURVE",
"80 1100 OFFCURVE",
"80 700 CURVE SMOOTH",
"80 300 OFFCURVE",
"388 -26 OFFCURVE",
"770 -26 CURVE SMOOTH",
"948 -26 OFFCURVE",
"1112 46 OFFCURVE",
"1236 166 CURVE",
"1412 -10 LINE"
);
},
{
closed = 1;
nodes = (
"424 34 OFFCURVE",
"140 334 OFFCURVE",
"140 700 CURVE SMOOTH",
"140 1058 OFFCURVE",
"418 1366 OFFCURVE",
"770 1366 CURVE SMOOTH",
"1114 1366 OFFCURVE",
"1398 1066 OFFCURVE",
"1398 700 CURVE SMOOTH",
"1398 536 OFFCURVE",
"1340 376 OFFCURVE",
"1234 252 CURVE",
"966 520 LINE",
"924 476 LINE",
"1192 208 LINE",
"1082 98 OFFCURVE",
"924 34 OFFCURVE",
"770 34 CURVE SMOOTH"
);
}
);
width = 1538;
},
{
layerId = "F9B50E00-60B3-4906-8473-0A03A162A9E3";
paths = (
{
closed = 1;
nodes = (
"1527 160 LINE",
"1395 307 LINE",
"1482 421 OFFCURVE",
"1538 554 OFFCURVE",
"1557 691 CURVE SMOOTH",
"1615 1100 OFFCURVE",
"1343 1434 OFFCURVE",
"955 1434 CURVE SMOOTH",
"583 1434 OFFCURVE",
"237 1116 OFFCURVE",
"182 725 CURVE SMOOTH",
"124 314 OFFCURVE",
"396 -18 OFFCURVE",
"784 -18 CURVE SMOOTH",
"914 -18 OFFCURVE",
"1046 19 OFFCURVE",
"1162 91 CURVE",
"1291 -52 LINE"
);
},
{
closed = 1;
nodes = (
"587 282 OFFCURVE",
"445 464 OFFCURVE",
"477 691 CURVE SMOOTH",
"511 934 OFFCURVE",
"724 1134 OFFCURVE",
"946 1134 CURVE SMOOTH",
"1152 1134 OFFCURVE",
"1294 950 OFFCURVE",
"1262 725 CURVE SMOOTH",
"1252 656 OFFCURVE",
"1229 598 OFFCURVE",
"1199 546 CURVE",
"1132 612 LINE",
"896 400 LINE",
"964 319 LINE",
"910 297 OFFCURVE",
"855 282 OFFCURVE",
"793 282 CURVE SMOOTH"
);
}
);
width = 1584;
},
{
layerId = "81C5C66F-25B8-499A-A0AB-712FDA102FD8";
paths = (
{
closed = 1;
nodes = (
"1459 32 LINE",
"1306 207 LINE",
"1438 337 OFFCURVE",
"1529 508 OFFCURVE",
"1556 697 CURVE SMOOTH",
"1612 1098 OFFCURVE",
"1349 1426 OFFCURVE",
"967 1426 CURVE SMOOTH",
"587 1426 OFFCURVE",
"235 1102 OFFCURVE",
"179 703 CURVE SMOOTH",
"122 302 OFFCURVE",
"386 -26 OFFCURVE",
"770 -26 CURVE SMOOTH",
"946 -26 OFFCURVE",
"1120 45 OFFCURVE",
"1260 165 CURVE",
"1412 -10 LINE"
);
},
{
closed = 1;
nodes = (
"427 34 OFFCURVE",
"187 332 OFFCURVE",
"238 697 CURVE SMOOTH",
"288 1056 OFFCURVE",
"612 1366 OFFCURVE",
"965 1366 CURVE SMOOTH",
"1308 1366 OFFCURVE",
"1548 1068 OFFCURVE",
"1497 703 CURVE SMOOTH",
"1474 538 OFFCURVE",
"1392 377 OFFCURVE",
"1269 253 CURVE",
"1038 520 LINE",
"991 476 LINE",
"1221 209 LINE",
"1095 99 OFFCURVE",
"927 34 OFFCURVE",
"771 34 CURVE SMOOTH"
);
}
);
width = 1538;
}
);
leftKerningGroup = O;
rightKerningGroup = O;
unicode = 0051;
},
{
glyphname = R;
lastChange = "2020-02-03 19:54:53 +0000";
layers = (
{
layerId = "10BC12B3-5274-42E3-B5BC-F74F362F0DF4";
paths = (
{
closed = 1;
nodes = (
"420 0 LINE",
"420 544 LINE",
"524 544 LINE",
"840 0 LINE",
"1186 0 LINE",
"854 572 LINE",
"1004 644 OFFCURVE",
"1100 792 OFFCURVE",
"1100 972 CURVE SMOOTH",
"1100 1206 OFFCURVE",
"920 1400 OFFCURVE",
"690 1400 CURVE SMOOTH",
"120 1400 LINE",
"120 0 LINE"
);
},
{
closed = 1;
nodes = (
"420 1144 LINE",
"654 1144 LINE SMOOTH",
"734 1144 OFFCURVE",
"800 1076 OFFCURVE",
"800 994 CURVE SMOOTH",
"800 912 OFFCURVE",
"734 844 OFFCURVE",
"654 844 CURVE SMOOTH",
"420 844 LINE"
);
}
);
width = 1266;
},
{
layerId = "9AF1F7D9-E035-453E-B2A8-46DE370997D0";
paths = (
{
closed = 1;
nodes = (
"210 0 LINE",
"210 600 LINE",
"542 600 LINE",
"890 0 LINE",
"960 0 LINE",
"612 602 LINE",
"810 618 OFFCURVE",
"970 782 OFFCURVE",
"970 1000 CURVE SMOOTH",
"970 1228 OFFCURVE",
"798 1400 OFFCURVE",
"578 1400 CURVE SMOOTH",
"150 1400 LINE",
"150 0 LINE"
);
},
{
closed = 1;
nodes = (
"210 1340 LINE",
"578 1340 LINE SMOOTH",
"760 1340 OFFCURVE",
"910 1196 OFFCURVE",
"910 1000 CURVE SMOOTH",
"910 804 OFFCURVE",
"760 660 OFFCURVE",
"578 660 CURVE SMOOTH",
"210 660 LINE"
);
}
);
width = 1070;
},
{
layerId = "F9B50E00-60B3-4906-8473-0A03A162A9E3";
paths = (
{
closed = 1;
nodes = (
"420 0 LINE",
"496 544 LINE",
"604 544 LINE",
"843 0 LINE",
"1183 0 LINE",
"938 568 LINE",
"1102 640 OFFCURVE",
"1210 784 OFFCURVE",
"1234 955 CURVE SMOOTH",
"1268 1198 OFFCURVE",
"1108 1400 OFFCURVE",
"878 1400 CURVE SMOOTH",
"317 1400 LINE",
"120 0 LINE"
);
},
{
closed = 1;
nodes = (
"581 1144 LINE",
"823 1144 LINE SMOOTH",
"903 1144 OFFCURVE",
"952 1084 OFFCURVE",
"942 1011 CURVE SMOOTH",
"929 920 OFFCURVE",
"844 844 OFFCURVE",
"764 844 CURVE SMOOTH",
"539 844 LINE"
);
}
);
width = 1266;
},
{
layerId = "81C5C66F-25B8-499A-A0AB-712FDA102FD8";
paths = (
{
closed = 1;
nodes = (
"210 0 LINE",
"294 600 LINE",
"627 600 LINE",
"891 0 LINE",
"959 0 LINE",
"698 602 LINE",
"899 618 OFFCURVE",
"1080 780 OFFCURVE",
"1110 997 CURVE SMOOTH",
"1142 1226 OFFCURVE",
"993 1400 OFFCURVE",
"773 1400 CURVE SMOOTH",
"347 1400 LINE",
"150 0 LINE"
);
},
{
closed = 1;
nodes = (
"398 1340 LINE",
"768 1340 LINE SMOOTH",
"950 1340 OFFCURVE",
"1078 1198 OFFCURVE",
"1051 1003 CURVE SMOOTH",
"1023 806 OFFCURVE",
"851 660 OFFCURVE",
"669 660 CURVE SMOOTH",
"303 660 LINE"
);
}
);
width = 1070;
}
);
leftKerningGroup = H;
rightKerningGroup = R;
unicode = 0052;
},
{
glyphname = S;
lastChange = "2020-02-03 19:54:53 +0000";
layers = (
{
layerId = "10BC12B3-5274-42E3-B5BC-F74F362F0DF4";
paths = (
{
closed = 1;
nodes = (
"918 -26 OFFCURVE",
"1164 150 OFFCURVE",
"1164 412 CURVE SMOOTH",
"1164 670 OFFCURVE",
"920 808 OFFCURVE",
"632 850 CURVE SMOOTH",
"506 868 OFFCURVE",
"400 880 OFFCURVE",
"400 988 CURVE SMOOTH",
"400 1066 OFFCURVE",
"516 1126 OFFCURVE",
"632 1124 CURVE SMOOTH",
"762 1124 OFFCURVE",
"862 1066 OFFCURVE",
"882 1008 CURVE",
"1164 1110 LINE",
"1094 1308 OFFCURVE",
"868 1426 OFFCURVE",
"632 1426 CURVE SMOOTH",
"350 1426 OFFCURVE",
"100 1250 OFFCURVE",
"100 988 CURVE SMOOTH",
"100 714 OFFCURVE",
"328 594 OFFCURVE",
"632 550 CURVE SMOOTH",
"744 534 OFFCURVE",
"864 496 OFFCURVE",
"864 412 CURVE SMOOTH",
"864 330 OFFCURVE",
"752 274 OFFCURVE",
"632 274 CURVE SMOOTH",
"502 274 OFFCURVE",
"402 334 OFFCURVE",
"382 392 CURVE",
"100 288 LINE",
"172 92 OFFCURVE",
"396 -26 OFFCURVE",
"632 -26 CURVE SMOOTH"
);
}
);
width = 1264;
},
{
layerId = "9AF1F7D9-E035-453E-B2A8-46DE370997D0";
paths = (
{
closed = 1;
nodes = (
"858 -26 OFFCURVE",
"1088 120 OFFCURVE",
"1088 350 CURVE SMOOTH",
"1088 576 OFFCURVE",
"856 682 OFFCURVE",
"598 730 CURVE SMOOTH",
"352 776 OFFCURVE",
"170 826 OFFCURVE",
"170 1042 CURVE SMOOTH",
"170 1232 OFFCURVE",
"370 1358 OFFCURVE",
"598 1358 CURVE SMOOTH",
"780 1358 OFFCURVE",
"984 1276 OFFCURVE",
"1040 1118 CURVE",
"1098 1138 LINE",
"1028 1320 OFFCURVE",
"806 1418 OFFCURVE",
"598 1418 CURVE SMOOTH",
"340 1418 OFFCURVE",
"110 1272 OFFCURVE",
"110 1042 CURVE SMOOTH",
"110 790 OFFCURVE",
"320 718 OFFCURVE",
"598 666 CURVE SMOOTH",
"814 626 OFFCURVE",
"1028 546 OFFCURVE",
"1028 350 CURVE SMOOTH",
"1028 158 OFFCURVE",
"824 34 OFFCURVE",
"598 34 CURVE SMOOTH",
"416 34 OFFCURVE",
"212 116 OFFCURVE",
"156 274 CURVE",
"100 252 LINE",
"160 78 OFFCURVE",
"380 -26 OFFCURVE",
"598 -26 CURVE SMOOTH"
);
}
);
width = 1198;
},
{
layerId = "F9B50E00-60B3-4906-8473-0A03A162A9E3";
paths = (
{
closed = 1;
nodes = (
"923 -26 OFFCURVE",
"1184 142 OFFCURVE",
"1220 395 CURVE SMOOTH",
"1257 662 OFFCURVE",
"1025 807 OFFCURVE",
"735 847 CURVE SMOOTH",
"620 867 OFFCURVE",
"522 872 OFFCURVE",
"536 971 CURVE SMOOTH",
"549 1058 OFFCURVE",
"683 1126 OFFCURVE",
"807 1124 CURVE SMOOTH",
"928 1124 OFFCURVE",
"1016 1074 OFFCURVE",
"1028 1016 CURVE",
"1317 1102 LINE",
"1274 1300 OFFCURVE",
"1060 1426 OFFCURVE",
"816 1426 CURVE SMOOTH",
"542 1426 OFFCURVE",
"277 1258 OFFCURVE",
"241 1005 CURVE SMOOTH",
"202 722 OFFCURVE",
"420 595 OFFCURVE",
"726 553 CURVE SMOOTH",
"828 535 OFFCURVE",
"935 504 OFFCURVE",
"924 429 CURVE SMOOTH",
"912 338 OFFCURVE",
"782 274 OFFCURVE",
"654 274 CURVE SMOOTH",
"532 274 OFFCURVE",
"445 326 OFFCURVE",
"433 384 CURVE",
"144 296 LINE",
"189 100 OFFCURVE",
"401 -26 OFFCURVE",
"645 -26 CURVE SMOOTH"
);
}
);
width = 1264;
},
{
layerId = "81C5C66F-25B8-499A-A0AB-712FDA102FD8";
paths = (
{
closed = 1;
nodes = (
"856 -26 OFFCURVE",
"1105 118 OFFCURVE",
"1137 347 CURVE SMOOTH",
"1169 574 OFFCURVE",
"950 682 OFFCURVE",
"697 729 CURVE SMOOTH",
"459 776 OFFCURVE",
"286 824 OFFCURVE",
"316 1039 CURVE SMOOTH",
"343 1230 OFFCURVE",
"563 1358 OFFCURVE",
"792 1358 CURVE SMOOTH",
"973 1358 OFFCURVE",
"1164 1278 OFFCURVE",
"1198 1120 CURVE",
"1257 1136 LINE",
"1213 1318 OFFCURVE",
"1004 1418 OFFCURVE",
"794 1418 CURVE SMOOTH",
"538 1418 OFFCURVE",
"289 1274 OFFCURVE",
"257 1045 CURVE SMOOTH",
"221 792 OFFCURVE",
"423 718 OFFCURVE",
"695 667 CURVE SMOOTH",
"904 626 OFFCURVE",
"1105 548 OFFCURVE",
"1078 353 CURVE SMOOTH",
"1050 160 OFFCURVE",
"827 34 OFFCURVE",
"599 34 CURVE SMOOTH",
"419 34 OFFCURVE",
"228 114 OFFCURVE",
"194 272 CURVE",
"136 254 LINE",
"172 80 OFFCURVE",
"378 -26 OFFCURVE",
"598 -26 CURVE SMOOTH"
);
}
);
width = 1198;
}
);
leftKerningGroup = S;
rightKerningGroup = S;
unicode = 0053;
},
{
glyphname = Germandbls;
lastChange = "2020-02-03 19:54:53 +0000";
layers = (
{
layerId = "10BC12B3-5274-42E3-B5BC-F74F362F0DF4";
paths = (
{
closed = 1;
nodes = (
"420 0 LINE",
"420 950 LINE SMOOTH",
"420 1058 OFFCURVE",
"508 1144 OFFCURVE",
"594 1144 CURVE SMOOTH",
"680 1144 OFFCURVE",
"758 1148 OFFCURVE",
"758 1074 CURVE SMOOTH",
"758 1040 OFFCURVE",
"590 858 OFFCURVE",
"590 704 CURVE SMOOTH",
"590 594 LINE",
"672 594 LINE SMOOTH",
"776 594 OFFCURVE",
"920 556 OFFCURVE",
"920 424 CURVE SMOOTH",
"920 292 OFFCURVE",
"776 254 OFFCURVE",
"672 254 CURVE SMOOTH",
"590 254 LINE",
"650 0 LINE",
"704 0 LINE SMOOTH",
"936 0 OFFCURVE",
"1186 150 OFFCURVE",
"1186 422 CURVE SMOOTH",
"1186 586 OFFCURVE",
"1010 770 OFFCURVE",
"832 734 CURVE",
"974 906 OFFCURVE",
"1058 972 OFFCURVE",
"1058 1068 CURVE SMOOTH",
"1058 1248 OFFCURVE",
"858 1400 OFFCURVE",
"650 1400 CURVE SMOOTH",
"358 1400 OFFCURVE",
"120 1162 OFFCURVE",
"120 870 CURVE SMOOTH",
"120 0 LINE"
);
}
);
width = 1246;
},
{
layerId = "9AF1F7D9-E035-453E-B2A8-46DE370997D0";
paths = (
{
closed = 1;
nodes = (
"180 0 LINE",
"180 994 LINE SMOOTH",
"180 1184 OFFCURVE",
"332 1338 OFFCURVE",
"522 1338 CURVE SMOOTH",
"672 1338 OFFCURVE",
"804 1282 OFFCURVE",
"806 1152 CURVE SMOOTH",
"808 1032 OFFCURVE",
"510 754 OFFCURVE",
"518 694 CURVE SMOOTH",
"522 662 LINE",
"588 662 LINE SMOOTH",
"754 662 OFFCURVE",
"950 568 OFFCURVE",
"950 364 CURVE SMOOTH",
"950 156 OFFCURVE",
"756 60 OFFCURVE",
"590 60 CURVE SMOOTH",
"496 60 LINE",
"516 0 LINE",
"590 0 LINE SMOOTH",
"788 0 OFFCURVE",
"1010 122 OFFCURVE",
"1010 362 CURVE SMOOTH",
"1010 588 OFFCURVE",
"802 740 OFFCURVE",
"602 720 CURVE",
"800 992 OFFCURVE",
"876 1070 OFFCURVE",
"876 1152 CURVE SMOOTH",
"876 1320 OFFCURVE",
"716 1398 OFFCURVE",
"526 1398 CURVE SMOOTH",
"302 1398 OFFCURVE",
"120 1216 OFFCURVE",
"120 992 CURVE SMOOTH",
"120 0 LINE"
);
}
);
width = 1070;
},
{
layerId = "F9B50E00-60B3-4906-8473-0A03A162A9E3";
paths = (
{
closed = 1;
nodes = (
"420 0 LINE",
"552 942 LINE SMOOTH",
"568 1050 OFFCURVE",
"677 1144 OFFCURVE",
"772 1144 CURVE SMOOTH",
"849 1144 OFFCURVE",
"921 1156 OFFCURVE",
"911 1091 CURVE SMOOTH",
"905 1048 OFFCURVE",
"712 866 OFFCURVE",
"690 712 CURVE SMOOTH",
"673 594 LINE",
"764 594 LINE SMOOTH",
"868 594 OFFCURVE",
"999 564 OFFCURVE",
"982 441 CURVE SMOOTH",
"962 300 OFFCURVE",
"803 254 OFFCURVE",
"699 254 CURVE SMOOTH",
"628 254 LINE",
"652 0 LINE",
"712 0 LINE SMOOTH",
"944 0 OFFCURVE",
"1206 142 OFFCURVE",
"1243 405 CURVE SMOOTH",
"1267 578 OFFCURVE",
"1110 772 OFFCURVE",
"932 729 CURVE",
"1106 900 OFFCURVE",
"1193 964 OFFCURVE",
"1206 1051 CURVE SMOOTH",
"1232 1240 OFFCURVE",
"1046 1400 OFFCURVE",
"830 1400 CURVE SMOOTH",
"546 1400 OFFCURVE",
"284 1170 OFFCURVE",
"243 878 CURVE SMOOTH",
"120 0 LINE"
);
}
);
width = 1246;
},
{
layerId = "81C5C66F-25B8-499A-A0AB-712FDA102FD8";
paths = (
{
closed = 1;
nodes = (
"180 0 LINE",
"319 992 LINE SMOOTH",
"346 1182 OFFCURVE",
"522 1338 OFFCURVE",
"713 1338 CURVE SMOOTH",
"862 1338 OFFCURVE",
"984 1284 OFFCURVE",
"968 1155 CURVE SMOOTH",
"953 1034 OFFCURVE",
"616 756 OFFCURVE",
"616 696 CURVE SMOOTH",
"615 662 LINE",
"683 662 LINE SMOOTH",
"849 662 OFFCURVE",
"1030 570 OFFCURVE",
"1002 367 CURVE SMOOTH",
"972 158 OFFCURVE",
"763 60 OFFCURVE",
"597 60 CURVE SMOOTH",
"505 60 LINE",
"516 0 LINE",
"592 0 LINE SMOOTH",
"790 0 OFFCURVE",
"1027 120 OFFCURVE",
"1060 359 CURVE SMOOTH",
"1092 586 OFFCURVE",
"904 740 OFFCURVE",
"702 719 CURVE",
"940 991 OFFCURVE",
"1026 1068 OFFCURVE",
"1037 1149 CURVE SMOOTH",
"1061 1318 OFFCURVE",
"911 1398 OFFCURVE",
"719 1398 CURVE SMOOTH",
"497 1398 OFFCURVE",
"291 1218 OFFCURVE",
"260 994 CURVE SMOOTH",
"120 0 LINE"
);
}
);
width = 1070;
}
);
leftKerningGroup = Germandbls;
rightKerningGroup = Germandbls;
unicode = 1E9E;
},
{
glyphname = T;
lastChange = "2020-02-03 19:54:53 +0000";
layers = (
{
layerId = "10BC12B3-5274-42E3-B5BC-F74F362F0DF4";
paths = (
{
closed = 1;
nodes = (
"80 1400 LINE",
"80 1100 LINE",
"480 1100 LINE",
"480 0 LINE",
"780 0 LINE",
"780 1100 LINE",
"1180 1100 LINE",
"1180 1400 LINE"
);
}
);
width = 1260;
},
{
layerId = "9AF1F7D9-E035-453E-B2A8-46DE370997D0";
paths = (
{
closed = 1;
nodes = (
"80 1400 LINE",
"80 1340 LINE",
"598 1340 LINE",
"598 0 LINE",
"658 0 LINE",
"658 1340 LINE",
"1178 1340 LINE",
"1178 1400 LINE"
);
}
);
width = 1258;
},
{
layerId = "F9B50E00-60B3-4906-8473-0A03A162A9E3";
paths = (
{
closed = 1;
nodes = (
"277 1400 LINE",
"235 1100 LINE",
"635 1100 LINE",
"480 0 LINE",
"780 0 LINE",
"935 1100 LINE",
"1335 1100 LINE",
"1377 1400 LINE"
);
}
);
width = 1260;
},
{
layerId = "81C5C66F-25B8-499A-A0AB-712FDA102FD8";
paths = (
{
closed = 1;
nodes = (
"277 1400 LINE",
"268 1340 LINE",
"786 1340 LINE",
"598 0 LINE",
"658 0 LINE",
"846 1340 LINE",
"1366 1340 LINE",
"1375 1400 LINE"
);
}
);
width = 1258;
}
);
leftKerningGroup = T;
rightKerningGroup = T;
unicode = 0054;
},
{
glyphname = U;
lastChange = "2020-02-03 19:54:53 +0000";
layers = (
{
layerId = "10BC12B3-5274-42E3-B5BC-F74F362F0DF4";
paths = (
{
closed = 1;
nodes = (
"1026 -26 OFFCURVE",
"1258 246 OFFCURVE",
"1258 584 CURVE SMOOTH",
"1258 1400 LINE",
"958 1400 LINE",
"958 584 LINE SMOOTH",
"958 412 OFFCURVE",
"862 274 OFFCURVE",
"690 274 CURVE SMOOTH",
"520 274 OFFCURVE",
"420 414 OFFCURVE",
"420 584 CURVE SMOOTH",
"420 1400 LINE",
"120 1400 LINE",
"120 584 LINE SMOOTH",
"120 246 OFFCURVE",
"354 -26 OFFCURVE",
"690 -26 CURVE SMOOTH"
);
}
);
width = 1378;
},
{
layerId = "9AF1F7D9-E035-453E-B2A8-46DE370997D0";
paths = (
{
closed = 1;
nodes = (
"986 -26 OFFCURVE",
"1180 246 OFFCURVE",
"1180 584 CURVE SMOOTH",
"1180 1400 LINE",
"1120 1400 LINE",
"1120 584 LINE SMOOTH",
"1120 288 OFFCURVE",
"958 34 OFFCURVE",
"650 34 CURVE SMOOTH",
"346 34 OFFCURVE",
"180 284 OFFCURVE",
"180 584 CURVE SMOOTH",
"180 1400 LINE",
"120 1400 LINE",
"120 584 LINE SMOOTH",
"120 246 OFFCURVE",
"314 -26 OFFCURVE",
"650 -26 CURVE SMOOTH"
);
}
);
width = 1300;
},
{
layerId = "F9B50E00-60B3-4906-8473-0A03A162A9E3";
paths = (
{
closed = 1;
nodes = (
"1031 -26 OFFCURVE",
"1291 238 OFFCURVE",
"1339 576 CURVE SMOOTH",
"1455 1400 LINE",
"1155 1400 LINE",
"1041 592 LINE SMOOTH",
"1017 420 OFFCURVE",
"892 274 OFFCURVE",
"712 274 CURVE SMOOTH",
"550 274 OFFCURVE",
"477 406 OFFCURVE",
"501 576 CURVE SMOOTH",
"617 1400 LINE",
"317 1400 LINE",
"203 592 LINE SMOOTH",
"156 254 OFFCURVE",
"359 -26 OFFCURVE",
"703 -26 CURVE SMOOTH"
);
}
);
width = 1378;
},
{
layerId = "81C5C66F-25B8-499A-A0AB-712FDA102FD8";
paths = (
{
closed = 1;
nodes = (
"984 -26 OFFCURVE",
"1214 244 OFFCURVE",
"1262 582 CURVE SMOOTH",
"1377 1400 LINE",
"1317 1400 LINE",
"1202 586 LINE SMOOTH",
"1161 290 OFFCURVE",
"961 34 OFFCURVE",
"651 34 CURVE SMOOTH",
"349 34 OFFCURVE",
"220 282 OFFCURVE",
"262 582 CURVE SMOOTH",
"377 1400 LINE",
"317 1400 LINE",
"202 586 LINE SMOOTH",
"155 248 OFFCURVE",
"312 -26 OFFCURVE",
"650 -26 CURVE SMOOTH"
);
}
);
width = 1300;
}
);
leftKerningGroup = U;
rightKerningGroup = U;
unicode = 0055;
},
{
glyphname = V;
lastChange = "2020-02-03 19:54:53 +0000";
layers = (
{
layerId = "10BC12B3-5274-42E3-B5BC-F74F362F0DF4";
paths = (
{
closed = 1;
nodes = (
"916 0 LINE",
"1424 1400 LINE",
"1106 1400 LINE",
"722 344 LINE",
"338 1400 LINE",
"20 1400 LINE",
"528 0 LINE"
);
}
);
width = 1444;
},
{
layerId = "9AF1F7D9-E035-453E-B2A8-46DE370997D0";
paths = (
{
closed = 1;
nodes = (
"588 0 LINE",
"1098 1400 LINE",
"1034 1400 LINE",
"558 92 LINE",
"84 1400 LINE",
"20 1400 LINE",
"528 0 LINE"
);
}
);
width = 1118;
},
{
layerId = "F9B50E00-60B3-4906-8473-0A03A162A9E3";
paths = (
{
closed = 1;
nodes = (
"919 0 LINE",
"1623 1400 LINE",
"1300 1400 LINE",
"765 344 LINE",
"532 1400 LINE",
"219 1400 LINE",
"531 0 LINE"
);
}
);
width = 1444;
},
{
layerId = "81C5C66F-25B8-499A-A0AB-712FDA102FD8";
paths = (
{
closed = 1;
nodes = (
"589 0 LINE",
"1295 1400 LINE",
"1230 1400 LINE",
"570 92 LINE",
"280 1400 LINE",
"217 1400 LINE",
"529 0 LINE"
);
}
);
width = 1118;
}
);
leftKerningGroup = W;
rightKerningGroup = W;
unicode = 0056;
},
{
glyphname = W;
lastChange = "2020-02-03 19:54:53 +0000";
layers = (
{
layerId = "10BC12B3-5274-42E3-B5BC-F74F362F0DF4";
paths = (
{
closed = 1;
nodes = (
"796 0 LINE",
"980 726 LINE",
"1166 0 LINE",
"1504 0 LINE",
"1860 1400 LINE",
"1550 1400 LINE",
"1334 552 LINE",
"1118 1400 LINE",
"842 1400 LINE",
"626 552 LINE",
"410 1400 LINE",
"100 1400 LINE",
"458 0 LINE"
);
}
);
width = 1960;
},
{
layerId = "9AF1F7D9-E035-453E-B2A8-46DE370997D0";
paths = (
{
closed = 1;
nodes = (
"536 0 LINE",
"856 1250 LINE",
"1176 0 LINE",
"1256 0 LINE",
"1612 1400 LINE",
"1550 1400 LINE",
"1216 86 LINE",
"880 1400 LINE",
"832 1400 LINE",
"498 86 LINE",
"162 1400 LINE",
"100 1400 LINE",
"458 0 LINE"
);
}
);
width = 1712;
},
{
layerId = "F9B50E00-60B3-4906-8473-0A03A162A9E3";
paths = (
{
closed = 1;
nodes = (
"798 0 LINE",
"1086 726 LINE",
"1168 0 LINE",
"1506 0 LINE",
"2059 1400 LINE",
"1745 1400 LINE",
"1408 552 LINE",
"1313 1400 LINE",
"1037 1400 LINE",
"700 552 LINE",
"605 1400 LINE",
"299 1400 LINE",
"460 0 LINE"
);
}
);
width = 1960;
},
{
layerId = "81C5C66F-25B8-499A-A0AB-712FDA102FD8";
paths = (
{
closed = 1;
nodes = (
"536 0 LINE",
"1032 1250 LINE",
"1176 0 LINE",
"1256 0 LINE",
"1809 1400 LINE",
"1746 1400 LINE",
"1227 86 LINE",
"1076 1400 LINE",
"1028 1400 LINE",
"509 86 LINE",
"358 1400 LINE",
"297 1400 LINE",
"458 0 LINE"
);
}
);
width = 1712;
}
);
leftKerningGroup = W;
rightKerningGroup = W;
unicode = 0057;
},
{
glyphname = X;
lastChange = "2020-02-03 19:54:53 +0000";
layers = (
{
layerId = "10BC12B3-5274-42E3-B5BC-F74F362F0DF4";
paths = (
{
closed = 1;
nodes = (
"432 0 LINE",
"758 448 LINE",
"1084 0 LINE",
"1456 0 LINE",
"944 704 LINE",
"1452 1402 LINE",
"1082 1402 LINE",
"758 958 LINE",
"434 1402 LINE",
"64 1402 LINE",
"572 704 LINE",
"60 0 LINE"
);
}
);
width = 1516;
},
{
layerId = "9AF1F7D9-E035-453E-B2A8-46DE370997D0";
paths = (
{
closed = 1;
nodes = (
"136 0 LINE",
"610 652 LINE",
"1086 0 LINE",
"1160 0 LINE",
"648 704 LINE",
"1156 1402 LINE",
"1082 1402 LINE",
"610 754 LINE",
"138 1402 LINE",
"64 1402 LINE",
"574 704 LINE",
"60 0 LINE"
);
}
);
width = 1220;
},
{
layerId = "F9B50E00-60B3-4906-8473-0A03A162A9E3";
paths = (
{
closed = 1;
nodes = (
"435 0 LINE",
"827 448 LINE",
"1087 0 LINE",
"1453 0 LINE",
"1043 704 LINE",
"1652 1402 LINE",
"1276 1402 LINE",
"886 958 LINE",
"628 1402 LINE",
"264 1402 LINE",
"671 704 LINE",
"57 0 LINE"
);
}
);
width = 1516;
},
{
layerId = "81C5C66F-25B8-499A-A0AB-712FDA102FD8";
paths = (
{
closed = 1;
nodes = (
"137 0 LINE",
"703 652 LINE",
"1087 0 LINE",
"1159 0 LINE",
"747 704 LINE",
"1354 1402 LINE",
"1278 1402 LINE",
"715 754 LINE",
"334 1402 LINE",
"262 1402 LINE",
"673 704 LINE",
"59 0 LINE"
);
}
);
width = 1220;
}
);
leftKerningGroup = X;
rightKerningGroup = X;
unicode = 0058;
},
{
glyphname = Y;
lastChange = "2020-02-03 19:54:53 +0000";
layers = (
{
layerId = "10BC12B3-5274-42E3-B5BC-F74F362F0DF4";
paths = (
{
closed = 1;
nodes = (
"696 956 LINE",
"414 1400 LINE",
"60 1400 LINE",
"546 630 LINE",
"546 0 LINE",
"846 0 LINE",
"846 630 LINE",
"1332 1400 LINE",
"978 1400 LINE"
);
}
);
width = 1392;
},
{
layerId = "9AF1F7D9-E035-453E-B2A8-46DE370997D0";
paths = (
{
closed = 1;
nodes = (
"554 702 LINE",
"130 1400 LINE",
"60 1400 LINE",
"524 636 LINE",
"524 0 LINE",
"584 0 LINE",
"584 636 LINE",
"1048 1400 LINE",
"978 1400 LINE"
);
}
);
width = 1108;
},
{
layerId = "F9B50E00-60B3-4906-8473-0A03A162A9E3";
paths = (
{
closed = 1;
nodes = (
"824 956 LINE",
"608 1400 LINE",
"260 1400 LINE",
"638 630 LINE",
"546 0 LINE",
"846 0 LINE",
"938 630 LINE",
"1532 1400 LINE",
"1172 1400 LINE"
);
}
);
width = 1392;
},
{
layerId = "81C5C66F-25B8-499A-A0AB-712FDA102FD8";
paths = (
{
closed = 1;
nodes = (
"651 702 LINE",
"326 1400 LINE",
"257 1400 LINE",
"614 636 LINE",
"524 0 LINE",
"584 0 LINE",
"674 636 LINE",
"1245 1400 LINE",
"1174 1400 LINE"
);
}
);
width = 1108;
}
);
leftKerningGroup = Y;
rightKerningGroup = Y;
unicode = 0059;
},
{
glyphname = Z;
lastChange = "2020-02-03 19:54:53 +0000";
layers = (
{
layerId = "10BC12B3-5274-42E3-B5BC-F74F362F0DF4";
paths = (
{
closed = 1;
nodes = (
"1252 0 LINE",
"1252 300 LINE",
"526 300 LINE",
"1252 1100 LINE",
"1252 1400 LINE",
"120 1400 LINE",
"120 1100 LINE",
"846 1100 LINE",
"120 300 LINE",
"120 0 LINE"
);
}
);
width = 1372;
},
{
layerId = "9AF1F7D9-E035-453E-B2A8-46DE370997D0";
paths = (
{
closed = 1;
nodes = (
"1252 0 LINE",
"1252 60 LINE",
"198 60 LINE",
"1252 1340 LINE",
"1252 1400 LINE",
"120 1400 LINE",
"120 1340 LINE",
"1174 1340 LINE",
"120 60 LINE",
"120 0 LINE"
);
}
);
width = 1372;
},
{
layerId = "F9B50E00-60B3-4906-8473-0A03A162A9E3";
paths = (
{
closed = 1;
nodes = (
"1252 0 LINE",
"1294 300 LINE",
"571 300 LINE",
"1410 1100 LINE",
"1449 1400 LINE",
"317 1400 LINE",
"275 1100 LINE",
"998 1100 LINE",
"159 300 LINE",
"120 0 LINE"
);
}
);
width = 1372;
},
{
layerId = "81C5C66F-25B8-499A-A0AB-712FDA102FD8";
paths = (
{
closed = 1;
nodes = (
"1252 0 LINE",
"1260 60 LINE",
"207 60 LINE",
"1441 1340 LINE",
"1449 1400 LINE",
"317 1400 LINE",
"308 1340 LINE",
"1362 1340 LINE",
"128 60 LINE",
"120 0 LINE"
);
}
);
width = 1372;
}
);
leftKerningGroup = Z;
rightKerningGroup = Z;
unicode = 005A;
},
{
glyphname = a;
lastChange = "2020-02-03 20:13:11 +0000";
layers = (
{
layerId = "10BC12B3-5274-42E3-B5BC-F74F362F0DF4";
paths = (
{
closed = 1;
nodes = (
"850 908 LINE",
"788 978 OFFCURVE",
"704 1028 OFFCURVE",
"596 1028 CURVE SMOOTH",
"306 1028 OFFCURVE",
"70 792 OFFCURVE",
"70 500 CURVE SMOOTH",
"70 210 OFFCURVE",
"306 -26 OFFCURVE",
"596 -26 CURVE SMOOTH",
"704 -26 OFFCURVE",
"788 24 OFFCURVE",
"850 94 CURVE",
"850 0 LINE",
"1150 0 LINE",
"1150 1000 LINE",
"850 1000 LINE"
);
},
{
closed = 1;
nodes = (
"478 262 OFFCURVE",
"378 370 OFFCURVE",
"378 500 CURVE SMOOTH",
"378 632 OFFCURVE",
"478 738 OFFCURVE",
"600 738 CURVE SMOOTH",
"724 738 OFFCURVE",
"824 632 OFFCURVE",
"824 500 CURVE SMOOTH",
"824 370 OFFCURVE",
"724 262 OFFCURVE",
"600 262 CURVE SMOOTH"
);
}
);
width = 1270;
},
{
layerId = "9AF1F7D9-E035-453E-B2A8-46DE370997D0";
paths = (
{
closed = 1;
nodes = (
"1004 768 LINE",
"932 924 OFFCURVE",
"790 1028 OFFCURVE",
"596 1028 CURVE",
"306 1028 OFFCURVE",
"70 792 OFFCURVE",
"70 500 CURVE",
"70 210 OFFCURVE",
"306 -26 OFFCURVE",
"596 -26 CURVE",
"790 -26 OFFCURVE",
"932 78 OFFCURVE",
"1004 234 CURVE",
"1004 0 LINE",
"1064 0 LINE",
"1064 1000 LINE",
"1004 1000 LINE"
);
},
{
closed = 1;
nodes = (
"346 34 OFFCURVE",
"130 238 OFFCURVE",
"130 500 CURVE",
"130 758 OFFCURVE",
"338 968 OFFCURVE",
"596 968 CURVE",
"850 968 OFFCURVE",
"1000 762 OFFCURVE",
"1000 500 CURVE",
"1000 244 OFFCURVE",
"854 34 OFFCURVE",
"596 34 CURVE"
);
}
);
width = 1184;
},
{
layerId = "F9B50E00-60B3-4906-8473-0A03A162A9E3";
paths = (
{
closed = 1;
nodes = (
"971 902 LINE",
"919 972 OFFCURVE",
"840 1028 OFFCURVE",
"724 1028 CURVE SMOOTH",
"442 1028 OFFCURVE",
"182 800 OFFCURVE",
"143 517 CURVE SMOOTH",
"101 218 OFFCURVE",
"311 -26 OFFCURVE",
"609 -26 CURVE SMOOTH",
"709 -26 OFFCURVE",
"796 18 OFFCURVE",
"868 88 CURVE",
"849 0 LINE",
"1150 0 LINE",
"1291 1000 LINE",
"990 1000 LINE"
);
},
{
closed = 1;
nodes = (
"506 262 OFFCURVE",
"429 362 OFFCURVE",
"446 483 CURVE SMOOTH",
"466 624 OFFCURVE",
"590 738 OFFCURVE",
"720 738 CURVE SMOOTH",
"836 738 OFFCURVE",
"914 640 OFFCURVE",
"897 517 CURVE SMOOTH",
"877 378 OFFCURVE",
"752 262 OFFCURVE",
"620 262 CURVE SMOOTH"
);
}
);
width = 1270;
},
{
layerId = "81C5C66F-25B8-499A-A0AB-712FDA102FD8";
paths = (
{
closed = 1;
nodes = (
"1111 766 LINE",
"1061 922 OFFCURVE",
"933 1028 OFFCURVE",
"737 1028 CURVE",
"449 1028 OFFCURVE",
"182 794 OFFCURVE",
"141 503 CURVE",
"100 212 OFFCURVE",
"304 -26 OFFCURVE",
"596 -26 CURVE",
"788 -26 OFFCURVE",
"943 76 OFFCURVE",
"1037 232 CURVE",
"1004 0 LINE",
"1064 0 LINE",
"1205 1000 LINE",
"1145 1000 LINE"
);
},
{
closed = 1;
nodes = (
"349 34 OFFCURVE",
"163 236 OFFCURVE",
"200 497 CURVE",
"236 756 OFFCURVE",
"476 968 OFFCURVE",
"735 968 CURVE",
"988 968 OFFCURVE",
"1107 764 OFFCURVE",
"1071 503 CURVE",
"1035 246 OFFCURVE",
"857 34 OFFCURVE",
"597 34 CURVE"
);
}
);
width = 1184;
}
);
leftKerningGroup = o;
rightKerningGroup = n;
unicode = 0061;
},
{
glyphname = ae;
lastChange = "2020-02-03 19:54:53 +0000";
layers = (
{
layerId = "10BC12B3-5274-42E3-B5BC-F74F362F0DF4";
paths = (
{
closed = 1;
nodes = (
"630 -26 LINE SMOOTH",
"764 -26 OFFCURVE",
"844 14 OFFCURVE",
"930 102 CURVE",
"1018 22 OFFCURVE",
"1132 -26 OFFCURVE",
"1258 -26 CURVE SMOOTH",
"1458 -26 OFFCURVE",
"1630 98 OFFCURVE",
"1710 276 CURVE",
"1404 348 LINE",
"1368 302 OFFCURVE",
"1316 274 OFFCURVE",
"1258 274 CURVE SMOOTH",
"1164 276 OFFCURVE",
"1110 330 OFFCURVE",
"1082 402 CURVE",
"1748 402 LINE",
"1808 722 OFFCURVE",
"1576 1028 OFFCURVE",
"1258 1028 CURVE SMOOTH",
"1134 1028 OFFCURVE",
"1022 982 OFFCURVE",
"934 904 CURVE",
"846 990 OFFCURVE",
"714 1028 OFFCURVE",
"552 1028 CURVE SMOOTH",
"356 1028 OFFCURVE",
"214 1004 OFFCURVE",
"118 838 CURVE",
"376 686 LINE",
"394 716 OFFCURVE",
"416 756 OFFCURVE",
"552 756 CURVE SMOOTH",
"664 756 OFFCURVE",
"746 708 OFFCURVE",
"762 622 CURVE",
"358 622 LINE SMOOTH",
"198 622 OFFCURVE",
"80 502 OFFCURVE",
"80 344 CURVE SMOOTH",
"80 118 OFFCURVE",
"220 -26 OFFCURVE",
"504 -26 CURVE SMOOTH"
);
},
{
closed = 1;
nodes = (
"438 154 OFFCURVE",
"370 214 OFFCURVE",
"370 310 CURVE SMOOTH",
"370 392 OFFCURVE",
"442 402 OFFCURVE",
"530 402 CURVE SMOOTH",
"752 402 LINE",
"752 344 LINE SMOOTH",
"752 246 OFFCURVE",
"662 154 OFFCURVE",
"550 154 CURVE SMOOTH"
);
},
{
closed = 1;
nodes = (
"1098 708 OFFCURVE",
"1172 768 OFFCURVE",
"1258 768 CURVE SMOOTH",
"1344 768 OFFCURVE",
"1416 708 OFFCURVE",
"1444 622 CURVE",
"1070 622 LINE"
);
}
);
width = 1818;
},
{
layerId = "9AF1F7D9-E035-453E-B2A8-46DE370997D0";
paths = (
{
closed = 1;
nodes = (
"572 0 LINE SMOOTH",
"740 0 OFFCURVE",
"880 122 OFFCURVE",
"904 284 CURVE",
"988 116 OFFCURVE",
"1154 0 OFFCURVE",
"1348 0 CURVE SMOOTH",
"1548 0 OFFCURVE",
"1720 124 OFFCURVE",
"1800 302 CURVE",
"1740 316 LINE",
"1660 156 OFFCURVE",
"1518 60 OFFCURVE",
"1348 60 CURVE SMOOTH",
"1118 60 OFFCURVE",
"928 246 OFFCURVE",
"908 496 CURVE",
"1846 496 LINE",
"1840 830 OFFCURVE",
"1634 1054 OFFCURVE",
"1348 1054 CURVE SMOOTH",
"1142 1054 OFFCURVE",
"964 922 OFFCURVE",
"888 734 CURVE",
"858 914 OFFCURVE",
"778 1054 OFFCURVE",
"530 1054 CURVE SMOOTH",
"398 1054 OFFCURVE",
"234 1014 OFFCURVE",
"160 888 CURVE",
"212 858 LINE",
"276 964 OFFCURVE",
"420 994 OFFCURVE",
"530 994 CURVE SMOOTH",
"826 994 OFFCURVE",
"830 796 OFFCURVE",
"846 556 CURVE",
"426 556 LINE SMOOTH",
"246 556 OFFCURVE",
"80 516 OFFCURVE",
"70 318 CURVE",
"74 92 OFFCURVE",
"280 0 OFFCURVE",
"460 0 CURVE SMOOTH"
);
},
{
closed = 1;
nodes = (
"312 60 OFFCURVE",
"134 112 OFFCURVE",
"130 318 CURVE",
"136 458 OFFCURVE",
"250 496 OFFCURVE",
"426 496 CURVE SMOOTH",
"848 496 LINE",
"848 384 LINE",
"848 330 OFFCURVE",
"858 60 OFFCURVE",
"518 60 CURVE"
);
},
{
closed = 1;
nodes = (
"924 798 OFFCURVE",
"1110 994 OFFCURVE",
"1348 994 CURVE SMOOTH",
"1584 994 OFFCURVE",
"1778 790 OFFCURVE",
"1786 556 CURVE",
"908 556 LINE"
);
}
);
width = 1907;
},
{
layerId = "F9B50E00-60B3-4906-8473-0A03A162A9E3";
paths = (
{
closed = 1;
nodes = (
"635 -26 LINE SMOOTH",
"769 -26 OFFCURVE",
"851 8 OFFCURVE",
"956 102 CURVE",
"1028 28 OFFCURVE",
"1137 -26 OFFCURVE",
"1271 -26 CURVE SMOOTH",
"1463 -26 OFFCURVE",
"1646 90 OFFCURVE",
"1751 268 CURVE",
"1448 355 LINE",
"1406 309 OFFCURVE",
"1346 274 OFFCURVE",
"1280 274 CURVE SMOOTH",
"1194 276 OFFCURVE",
"1152 322 OFFCURVE",
"1134 394 CURVE",
"1805 394 LINE",
"1910 714 OFFCURVE",
"1712 1028 OFFCURVE",
"1386 1028 CURVE SMOOTH",
"1270 1028 OFFCURVE",
"1155 988 OFFCURVE",
"1049 904 CURVE",
"978 984 OFFCURVE",
"850 1028 OFFCURVE",
"680 1028 CURVE SMOOTH",
"492 1028 OFFCURVE",
"352 1011 OFFCURVE",
"233 845 CURVE",
"477 679 LINE",
"498 709 OFFCURVE",
"531 756 OFFCURVE",
"675 756 CURVE SMOOTH",
"779 756 OFFCURVE",
"848 716 OFFCURVE",
"852 630 CURVE",
"437 622 LINE SMOOTH",
"277 622 OFFCURVE",
"152 510 OFFCURVE",
"131 361 CURVE SMOOTH",
"98 126 OFFCURVE",
"225 -26 OFFCURVE",
"509 -26 CURVE SMOOTH"
);
},
{
closed = 1;
nodes = (
"451 154 OFFCURVE",
"399 206 OFFCURVE",
"411 293 CURVE SMOOTH",
"424 384 OFFCURVE",
"507 402 OFFCURVE",
"595 402 CURVE SMOOTH",
"808 402 LINE",
"802 352 LINE SMOOTH",
"788 254 OFFCURVE",
"675 154 OFFCURVE",
"555 154 CURVE SMOOTH"
);
},
{
closed = 1;
nodes = (
"1199 700 OFFCURVE",
"1288 768 OFFCURVE",
"1383 768 CURVE SMOOTH",
"1460 768 OFFCURVE",
"1519 716 OFFCURVE",
"1535 630 CURVE",
"1159 614 LINE"
);
}
);
width = 1818;
},
{
layerId = "81C5C66F-25B8-499A-A0AB-712FDA102FD8";
paths = (
{
closed = 1;
nodes = (
"574 0 LINE SMOOTH",
"742 0 OFFCURVE",
"897 120 OFFCURVE",
"945 284 CURVE",
"1005 117 OFFCURVE",
"1156 0 OFFCURVE",
"1351 0 CURVE SMOOTH",
"1550 0 OFFCURVE",
"1738 122 OFFCURVE",
"1843 300 CURVE",
"1784 317 LINE",
"1681 157 OFFCURVE",
"1525 60 OFFCURVE",
"1353 60 CURVE SMOOTH",
"1125 60 OFFCURVE",
"962 244 OFFCURVE",
"977 494 CURVE",
"1915 494 LINE",
"1956 828 OFFCURVE",
"1780 1054 OFFCURVE",
"1493 1054 CURVE SMOOTH",
"1288 1054 OFFCURVE",
"1093 924 OFFCURVE",
"990 734 CURVE",
"986 912 OFFCURVE",
"924 1054 OFFCURVE",
"675 1054 CURVE SMOOTH",
"544 1054 OFFCURVE",
"376 1015 OFFCURVE",
"284 889 CURVE",
"334 857 LINE",
"412 963 OFFCURVE",
"561 994 OFFCURVE",
"673 994 CURVE SMOOTH",
"967 994 OFFCURVE",
"942 798 OFFCURVE",
"924 558 CURVE",
"502 556 LINE SMOOTH",
"322 556 OFFCURVE",
"153 518 OFFCURVE",
"115 321 CURVE",
"87 94 OFFCURVE",
"282 0 OFFCURVE",
"462 0 CURVE SMOOTH"
);
},
{
closed = 1;
nodes = (
"319 60 OFFCURVE",
"149 110 OFFCURVE",
"174 315 CURVE",
"200 456 OFFCURVE",
"321 496 OFFCURVE",
"497 496 CURVE SMOOTH",
"918 496 LINE",
"902 386 LINE",
"895 332 OFFCURVE",
"865 60 OFFCURVE",
"523 60 CURVE"
);
},
{
closed = 1;
nodes = (
"1036 796 OFFCURVE",
"1251 994 OFFCURVE",
"1491 994 CURVE SMOOTH",
"1725 994 OFFCURVE",
"1889 792 OFFCURVE",
"1864 558 CURVE",
"986 554 LINE"
);
}
);
width = 1907;
}
);
leftKerningGroup = o;
rightKerningGroup = e;
unicode = 00E6;
},
{
glyphname = b;
lastChange = "2020-02-03 19:54:53 +0000";
layers = (
{
layerId = "10BC12B3-5274-42E3-B5BC-F74F362F0DF4";
paths = (
{
closed = 1;
nodes = (
"566 1028 OFFCURVE",
"482 978 OFFCURVE",
"420 908 CURVE",
"420 1500 LINE",
"120 1500 LINE",
"120 0 LINE",
"420 0 LINE",
"420 94 LINE",
"482 24 OFFCURVE",
"566 -26 OFFCURVE",
"672 -26 CURVE",
"964 -26 OFFCURVE",
"1200 210 OFFCURVE",
"1200 502 CURVE",
"1200 792 OFFCURVE",
"964 1028 OFFCURVE",
"672 1028 CURVE"
);
},
{
closed = 1;
nodes = (
"546 264 OFFCURVE",
"446 370 OFFCURVE",
"446 502 CURVE",
"446 632 OFFCURVE",
"546 740 OFFCURVE",
"668 740 CURVE",
"792 740 OFFCURVE",
"892 632 OFFCURVE",
"892 502 CURVE",
"892 370 OFFCURVE",
"792 264 OFFCURVE",
"668 264 CURVE"
);
}
);
width = 1260;
},
{
layerId = "9AF1F7D9-E035-453E-B2A8-46DE370997D0";
paths = (
{
closed = 1;
nodes = (
"394 1028 OFFCURVE",
"252 924 OFFCURVE",
"180 768 CURVE",
"180 1500 LINE",
"120 1500 LINE",
"120 0 LINE",
"180 0 LINE",
"180 234 LINE",
"252 78 OFFCURVE",
"394 -26 OFFCURVE",
"588 -26 CURVE",
"878 -26 OFFCURVE",
"1114 210 OFFCURVE",
"1114 500 CURVE",
"1114 792 OFFCURVE",
"878 1028 OFFCURVE",
"588 1028 CURVE"
);
},
{
closed = 1;
nodes = (
"334 34 OFFCURVE",
"184 240 OFFCURVE",
"184 500 CURVE",
"184 756 OFFCURVE",
"330 968 OFFCURVE",
"588 968 CURVE",
"838 968 OFFCURVE",
"1054 764 OFFCURVE",
"1054 500 CURVE",
"1054 244 OFFCURVE",
"846 34 OFFCURVE",
"588 34 CURVE"
);
}
);
width = 1174;
},
{
layerId = "F9B50E00-60B3-4906-8473-0A03A162A9E3";
paths = (
{
closed = 1;
nodes = (
"702 1028 OFFCURVE",
"615 984 OFFCURVE",
"543 914 CURVE",
"631 1500 LINE",
"331 1500 LINE",
"120 0 LINE",
"420 0 LINE",
"440 100 LINE",
"492 30 OFFCURVE",
"571 -26 OFFCURVE",
"685 -26 CURVE",
"969 -26 OFFCURVE",
"1228 202 OFFCURVE",
"1268 485 CURVE",
"1310 784 OFFCURVE",
"1100 1028 OFFCURVE",
"800 1028 CURVE"
);
},
{
closed = 1;
nodes = (
"575 264 OFFCURVE",
"497 362 OFFCURVE",
"514 485 CURVE",
"534 624 OFFCURVE",
"658 740 OFFCURVE",
"789 740 CURVE",
"904 740 OFFCURVE",
"982 640 OFFCURVE",
"965 519 CURVE",
"945 378 OFFCURVE",
"821 264 OFFCURVE",
"688 264 CURVE"
);
}
);
width = 1260;
},
{
layerId = "81C5C66F-25B8-499A-A0AB-712FDA102FD8";
paths = (
{
closed = 1;
nodes = (
"537 1028 OFFCURVE",
"381 926 OFFCURVE",
"287 770 CURVE",
"391 1500 LINE",
"331 1500 LINE",
"120 0 LINE",
"180 0 LINE",
"214 236 LINE",
"264 80 OFFCURVE",
"392 -26 OFFCURVE",
"588 -26 CURVE",
"876 -26 OFFCURVE",
"1143 208 OFFCURVE",
"1184 497 CURVE",
"1225 790 OFFCURVE",
"1021 1028 OFFCURVE",
"729 1028 CURVE"
);
},
{
closed = 1;
nodes = (
"337 34 OFFCURVE",
"217 238 OFFCURVE",
"254 497 CURVE",
"290 754 OFFCURVE",
"468 968 OFFCURVE",
"727 968 CURVE",
"976 968 OFFCURVE",
"1162 766 OFFCURVE",
"1125 503 CURVE",
"1089 246 OFFCURVE",
"849 34 OFFCURVE",
"589 34 CURVE"
);
}
);
width = 1174;
}
);
leftKerningGroup = h;
leftMetricsKey = H;
rightKerningGroup = o;
unicode = 0062;
},
{
glyphname = c;
lastChange = "2020-02-03 20:02:59 +0000";
layers = (
{
layerId = "10BC12B3-5274-42E3-B5BC-F74F362F0DF4";
paths = (
{
closed = 1;
nodes = (
"654 294 OFFCURVE",
"608 274 OFFCURVE",
"560 274 CURVE",
"446 274 OFFCURVE",
"360 382 OFFCURVE",
"360 500 CURVE",
"360 620 OFFCURVE",
"446 728 OFFCURVE",
"560 728 CURVE",
"608 728 OFFCURVE",
"654 708 OFFCURVE",
"690 672 CURVE",
"960 818 LINE",
"868 946 OFFCURVE",
"724 1028 OFFCURVE",
"560 1028 CURVE",
"284 1028 OFFCURVE",
"60 792 OFFCURVE",
"60 500 CURVE",
"60 210 OFFCURVE",
"284 -26 OFFCURVE",
"560 -26 CURVE",
"724 -26 OFFCURVE",
"868 56 OFFCURVE",
"960 182 CURVE",
"690 328 LINE"
);
}
);
width = 1020;
},
{
layerId = "9AF1F7D9-E035-453E-B2A8-46DE370997D0";
paths = (
{
closed = 1;
nodes = (
"828 108 OFFCURVE",
"700 34 OFFCURVE",
"560 34 CURVE",
"318 34 OFFCURVE",
"120 242 OFFCURVE",
"120 500 CURVE",
"120 754 OFFCURVE",
"312 968 OFFCURVE",
"560 968 CURVE",
"688 968 OFFCURVE",
"820 904 OFFCURVE",
"906 790 CURVE",
"958 818 LINE",
"868 946 OFFCURVE",
"722 1028 OFFCURVE",
"560 1028 CURVE",
"284 1028 OFFCURVE",
"60 792 OFFCURVE",
"60 500 CURVE",
"60 210 OFFCURVE",
"284 -26 OFFCURVE",
"560 -26 CURVE",
"722 -26 OFFCURVE",
"868 56 OFFCURVE",
"958 184 CURVE",
"906 212 LINE"
);
}
);
width = 1018;
},
{
layerId = "F9B50E00-60B3-4906-8473-0A03A162A9E3";
paths = (
{
closed = 1;
nodes = (
"690 300 OFFCURVE",
"638 274 OFFCURVE",
"582 274 CURVE",
"476 274 OFFCURVE",
"413 374 OFFCURVE",
"428 483 CURVE",
"446 612 OFFCURVE",
"557 728 OFFCURVE",
"679 728 CURVE",
"719 728 OFFCURVE",
"760 714 OFFCURVE",
"791 678 CURVE",
"1071 811 LINE",
"995 939 OFFCURVE",
"860 1028 OFFCURVE",
"688 1028 CURVE",
"420 1028 OFFCURVE",
"172 800 OFFCURVE",
"133 517 CURVE",
"91 218 OFFCURVE",
"289 -26 OFFCURVE",
"573 -26 CURVE",
"729 -26 OFFCURVE",
"880 49 OFFCURVE",
"990 175 CURVE",
"729 334 LINE"
);
}
);
width = 1020;
},
{
layerId = "81C5C66F-25B8-499A-A0AB-712FDA102FD8";
paths = (
{
closed = 1;
nodes = (
"842 109 OFFCURVE",
"703 34 OFFCURVE",
"561 34 CURVE",
"321 34 OFFCURVE",
"154 240 OFFCURVE",
"190 497 CURVE",
"226 752 OFFCURVE",
"450 968 OFFCURVE",
"699 968 CURVE",
"826 968 OFFCURVE",
"948 905 OFFCURVE",
"1018 791 CURVE",
"1072 817 LINE",
"1000 945 OFFCURVE",
"865 1028 OFFCURVE",
"701 1028 CURVE",
"427 1028 OFFCURVE",
"172 794 OFFCURVE",
"131 503 CURVE",
"90 212 OFFCURVE",
"282 -26 OFFCURVE",
"560 -26 CURVE",
"720 -26 OFFCURVE",
"877 55 OFFCURVE",
"985 183 CURVE",
"935 213 LINE"
);
}
);
width = 1018;
}
);
leftKerningGroup = o;
rightKerningGroup = c;
unicode = 0063;
},
{
glyphname = d;
lastChange = "2020-02-03 20:03:39 +0000";
layers = (
{
layerId = "10BC12B3-5274-42E3-B5BC-F74F362F0DF4";
paths = (
{
closed = 1;
nodes = (
"840 908 LINE",
"778 978 OFFCURVE",
"694 1026 OFFCURVE",
"586 1026 CURVE",
"296 1026 OFFCURVE",
"60 790 OFFCURVE",
"60 500 CURVE",
"60 210 OFFCURVE",
"296 -26 OFFCURVE",
"586 -26 CURVE",
"694 -26 OFFCURVE",
"778 22 OFFCURVE",
"840 92 CURVE",
"840 0 LINE",
"1140 0 LINE",
"1140 1500 LINE",
"840 1500 LINE"
);
},
{
closed = 1;
nodes = (
"468 262 OFFCURVE",
"368 368 OFFCURVE",
"368 500 CURVE",
"368 632 OFFCURVE",
"468 738 OFFCURVE",
"590 738 CURVE",
"714 738 OFFCURVE",
"814 632 OFFCURVE",
"814 500 CURVE",
"814 368 OFFCURVE",
"714 262 OFFCURVE",
"590 262 CURVE"
);
}
);
width = 1240;
},
{
layerId = "9AF1F7D9-E035-453E-B2A8-46DE370997D0";
paths = (
{
closed = 1;
nodes = (
"994 768 LINE",
"922 924 OFFCURVE",
"780 1028 OFFCURVE",
"586 1028 CURVE",
"296 1028 OFFCURVE",
"60 792 OFFCURVE",
"60 500 CURVE",
"60 210 OFFCURVE",
"296 -26 OFFCURVE",
"586 -26 CURVE",
"780 -26 OFFCURVE",
"922 78 OFFCURVE",
"994 234 CURVE",
"994 0 LINE",
"1054 0 LINE",
"1054 1500 LINE",
"994 1500 LINE"
);
},
{
closed = 1;
nodes = (
"336 34 OFFCURVE",
"120 238 OFFCURVE",
"120 500 CURVE",
"120 758 OFFCURVE",
"330 968 OFFCURVE",
"586 968 CURVE",
"840 968 OFFCURVE",
"990 762 OFFCURVE",
"990 500 CURVE",
"990 244 OFFCURVE",
"844 34 OFFCURVE",
"586 34 CURVE"
);
}
);
width = 1204;
},
{
layerId = "F9B50E00-60B3-4906-8473-0A03A162A9E3";
paths = (
{
closed = 1;
nodes = (
"961 902 LINE",
"909 972 OFFCURVE",
"830 1026 OFFCURVE",
"713 1026 CURVE",
"432 1026 OFFCURVE",
"172 798 OFFCURVE",
"133 517 CURVE",
"91 218 OFFCURVE",
"301 -26 OFFCURVE",
"599 -26 CURVE",
"699 -26 OFFCURVE",
"786 16 OFFCURVE",
"858 86 CURVE",
"839 0 LINE",
"1140 0 LINE",
"1351 1500 LINE",
"1051 1500 LINE"
);
},
{
closed = 1;
nodes = (
"496 262 OFFCURVE",
"419 360 OFFCURVE",
"436 483 CURVE",
"456 624 OFFCURVE",
"580 738 OFFCURVE",
"710 738 CURVE",
"826 738 OFFCURVE",
"904 640 OFFCURVE",
"887 517 CURVE",
"867 376 OFFCURVE",
"742 262 OFFCURVE",
"610 262 CURVE"
);
}
);
width = 1240;
},
{
layerId = "81C5C66F-25B8-499A-A0AB-712FDA102FD8";
paths = (
{
closed = 1;
nodes = (
"1101 766 LINE",
"1051 922 OFFCURVE",
"923 1028 OFFCURVE",
"727 1028 CURVE",
"439 1028 OFFCURVE",
"172 794 OFFCURVE",
"131 503 CURVE",
"90 212 OFFCURVE",
"294 -26 OFFCURVE",
"586 -26 CURVE",
"778 -26 OFFCURVE",
"933 76 OFFCURVE",
"1027 232 CURVE",
"994 0 LINE",
"1054 0 LINE",
"1265 1500 LINE",
"1205 1500 LINE"
);
},
{
closed = 1;
nodes = (
"339 34 OFFCURVE",
"153 236 OFFCURVE",
"190 497 CURVE",
"226 756 OFFCURVE",
"468 968 OFFCURVE",
"725 968 CURVE",
"978 968 OFFCURVE",
"1097 764 OFFCURVE",
"1061 503 CURVE",
"1025 246 OFFCURVE",
"847 34 OFFCURVE",
"587 34 CURVE"
);
}
);
width = 1204;
}
);
leftKerningGroup = o;
leftMetricsKey = o;
rightKerningGroup = l;
unicode = 0064;
},
{
glyphname = eth;
lastChange = "2020-02-03 19:54:53 +0000";
layers = (
{
components = (
{
name = partialdiff;
}
);
layerId = "10BC12B3-5274-42E3-B5BC-F74F362F0DF4";
paths = (
{
closed = 1;
nodes = (
"876 1450 LINE",
"736 1592 LINE",
"298 1160 LINE",
"440 1018 LINE"
);
}
);
width = 1126;
},
{
components = (
{
name = partialdiff;
}
);
layerId = "9AF1F7D9-E035-453E-B2A8-46DE370997D0";
paths = (
{
closed = 1;
nodes = (
"866 1500 LINE",
"824 1542 LINE",
"384 1114 LINE",
"428 1070 LINE"
);
}
);
width = 1124;
},
{
components = (
{
name = partialdiff;
}
);
layerId = "F9B50E00-60B3-4906-8473-0A03A162A9E3";
paths = (
{
closed = 1;
nodes = (
"1080 1450 LINE",
"954 1592 LINE",
"461 1160 LINE",
"589 1018 LINE"
);
}
);
width = 1126;
},
{
components = (
{
name = partialdiff;
}
);
layerId = "81C5C66F-25B8-499A-A0AB-712FDA102FD8";
paths = (
{
closed = 1;
nodes = (
"1077 1500 LINE",
"1040 1542 LINE",
"541 1114 LINE",
"580 1070 LINE"
);
}
);
width = 1124;
}
);
leftKerningGroup = o;
rightKerningGroup = eth;
unicode = 00F0;
},
{
glyphname = e;
lastChange = "2020-02-03 19:54:53 +0000";
layers = (
{
layerId = "10BC12B3-5274-42E3-B5BC-F74F362F0DF4";
paths = (
{
closed = 1;
nodes = (
"760 -26 OFFCURVE",
"932 98 OFFCURVE",
"1013 276 CURVE",
"707 347 LINE",
"670 302 OFFCURVE",
"618 273 OFFCURVE",
"560 274 CURVE SMOOTH",
"467 276 OFFCURVE",
"412 330 OFFCURVE",
"384 401 CURVE",
"1051 401 LINE",
"1111 719 OFFCURVE",
"879 1028 OFFCURVE",
"560 1028 CURVE SMOOTH",
"284 1028 OFFCURVE",
"60 792 OFFCURVE",
"60 501 CURVE SMOOTH",
"60 210 OFFCURVE",
"284 -26 OFFCURVE",
"560 -26 CURVE SMOOTH"
);
},
{
closed = 1;
nodes = (
"402 707 OFFCURVE",
"475 768 OFFCURVE",
"560 768 CURVE SMOOTH",
"646 768 OFFCURVE",
"719 707 OFFCURVE",
"748 621 CURVE",
"373 621 LINE"
);
}
);
width = 1120;
},
{
layerId = "9AF1F7D9-E035-453E-B2A8-46DE370997D0";
paths = (
{
closed = 1;
nodes = (
"760 -26 OFFCURVE",
"932 98 OFFCURVE",
"1012 276 CURVE",
"952 290 LINE",
"872 130 OFFCURVE",
"730 34 OFFCURVE",
"560 34 CURVE SMOOTH",
"330 34 OFFCURVE",
"140 220 OFFCURVE",
"120 470 CURVE",
"1058 470 LINE",
"1052 804 OFFCURVE",
"846 1028 OFFCURVE",
"560 1028 CURVE SMOOTH",
"284 1028 OFFCURVE",
"60 792 OFFCURVE",
"60 500 CURVE SMOOTH",
"60 210 OFFCURVE",
"284 -26 OFFCURVE",
"560 -26 CURVE SMOOTH"
);
},
{
closed = 1;
nodes = (
"136 772 OFFCURVE",
"322 968 OFFCURVE",
"560 968 CURVE SMOOTH",
"796 968 OFFCURVE",
"990 764 OFFCURVE",
"998 530 CURVE",
"120 530 LINE"
);
}
);
width = 1118;
},
{
layerId = "F9B50E00-60B3-4906-8473-0A03A162A9E3";
paths = (
{
closed = 1;
nodes = (
"765 -26 OFFCURVE",
"948 90 OFFCURVE",
"1054 268 CURVE",
"751 353 LINE",
"708 308 OFFCURVE",
"648 273 OFFCURVE",
"582 274 CURVE SMOOTH",
"497 276 OFFCURVE",
"454 322 OFFCURVE",
"436 393 CURVE",
"1108 393 LINE",
"1212 711 OFFCURVE",
"1015 1028 OFFCURVE",
"688 1028 CURVE SMOOTH",
"420 1028 OFFCURVE",
"172 800 OFFCURVE",
"133 518 CURVE SMOOTH",
"91 218 OFFCURVE",
"289 -26 OFFCURVE",
"573 -26 CURVE SMOOTH"
);
},
{
closed = 1;
nodes = (
"503 699 OFFCURVE",
"591 768 OFFCURVE",
"685 768 CURVE SMOOTH",
"762 768 OFFCURVE",
"822 715 OFFCURVE",
"839 629 CURVE",
"462 613 LINE"
);
}
);
width = 1120;
},
{
layerId = "81C5C66F-25B8-499A-A0AB-712FDA102FD8";
paths = (
{
closed = 1;
nodes = (
"758 -26 OFFCURVE",
"946 96 OFFCURVE",
"1051 274 CURVE",
"992 291 LINE",
"890 131 OFFCURVE",
"733 34 OFFCURVE",
"561 34 CURVE SMOOTH",
"333 34 OFFCURVE",
"171 218 OFFCURVE",
"186 468 CURVE",
"1124 468 LINE",
"1165 802 OFFCURVE",
"989 1028 OFFCURVE",
"701 1028 CURVE SMOOTH",
"427 1028 OFFCURVE",
"172 794 OFFCURVE",
"131 503 CURVE SMOOTH",
"90 212 OFFCURVE",
"282 -26 OFFCURVE",
"560 -26 CURVE SMOOTH"
);
},
{
closed = 1;
nodes = (
"244 770 OFFCURVE",
"460 968 OFFCURVE",
"699 968 CURVE SMOOTH",
"934 968 OFFCURVE",
"1098 766 OFFCURVE",
"1073 532 CURVE",
"194 528 LINE"
);
}
);
width = 1118;
}
);
leftKerningGroup = o;
rightKerningGroup = o;
unicode = 0065;
},
{
glyphname = f;
lastChange = "2020-02-03 19:54:53 +0000";
layers = (
{
layerId = "10BC12B3-5274-42E3-B5BC-F74F362F0DF4";
paths = (
{
closed = 1;
nodes = (
"444 1206 OFFCURVE",
"464 1224 OFFCURVE",
"488 1224 CURVE",
"504 1224 OFFCURVE",
"514 1216 OFFCURVE",
"518 1212 CURVE",
"732 1422 LINE",
"668 1488 OFFCURVE",
"580 1524 OFFCURVE",
"488 1524 CURVE",
"298 1524 OFFCURVE",
"144 1370 OFFCURVE",
"144 1182 CURVE",
"144 1000 LINE",
"50 1000 LINE",
"50 700 LINE",
"144 700 LINE",
"144 0 LINE",
"444 0 LINE",
"444 700 LINE",
"702 700 LINE",
"702 1000 LINE",
"444 1000 LINE",
"444 1182 LINE"
);
}
);
width = 762;
},
{
layerId = "9AF1F7D9-E035-453E-B2A8-46DE370997D0";
paths = (
{
closed = 1;
nodes = (
"268 1390 OFFCURVE",
"342 1464 OFFCURVE",
"432 1464 CURVE",
"476 1464 OFFCURVE",
"518 1446 OFFCURVE",
"548 1416 CURVE",
"590 1458 LINE",
"548 1500 OFFCURVE",
"492 1524 OFFCURVE",
"432 1524 CURVE",
"308 1524 OFFCURVE",
"208 1424 OFFCURVE",
"208 1300 CURVE",
"208 1000 LINE",
"50 1000 LINE",
"50 940 LINE",
"208 940 LINE",
"208 0 LINE",
"268 0 LINE",
"268 940 LINE",
"590 940 LINE",
"590 1000 LINE",
"268 1000 LINE",
"268 1300 LINE"
);
}
);
width = 620;
},
{
layerId = "F9B50E00-60B3-4906-8473-0A03A162A9E3";
paths = (
{
closed = 1;
nodes = (
"612 1198 OFFCURVE",
"644 1224 OFFCURVE",
"677 1224 CURVE",
"684 1224 OFFCURVE",
"692 1222 OFFCURVE",
"695 1218 CURVE",
"928 1416 LINE",
"870 1482 OFFCURVE",
"786 1524 OFFCURVE",
"685 1524 CURVE",
"504 1524 OFFCURVE",
"338 1378 OFFCURVE",
"311 1190 CURVE",
"285 1000 LINE",
"191 1000 LINE",
"148 700 LINE",
"242 700 LINE",
"144 0 LINE",
"444 0 LINE",
"542 700 LINE",
"800 700 LINE",
"843 1000 LINE",
"585 1000 LINE",
"609 1174 LINE"
);
}
);
width = 762;
},
{
layerId = "81C5C66F-25B8-499A-A0AB-712FDA102FD8";
paths = (
{
closed = 1;
nodes = (
"463 1388 OFFCURVE",
"549 1464 OFFCURVE",
"641 1464 CURVE",
"683 1464 OFFCURVE",
"723 1447 OFFCURVE",
"748 1417 CURVE",
"794 1457 LINE",
"757 1499 OFFCURVE",
"705 1524 OFFCURVE",
"643 1524 CURVE",
"521 1524 OFFCURVE",
"408 1426 OFFCURVE",
"391 1302 CURVE",
"349 1000 LINE",
"191 1000 LINE",
"182 940 LINE",
"340 940 LINE",
"208 0 LINE",
"268 0 LINE",
"400 940 LINE",
"722 940 LINE",
"731 1000 LINE",
"409 1000 LINE",
"450 1298 LINE"
);
}
);
width = 620;
}
);
leftKerningGroup = f;
rightKerningGroup = f;
unicode = 0066;
},
{
glyphname = g;
lastChange = "2020-02-03 19:54:53 +0000";
layers = (
{
layerId = "10BC12B3-5274-42E3-B5BC-F74F362F0DF4";
paths = (
{
closed = 1;
nodes = (
"834 912 LINE",
"774 980 OFFCURVE",
"692 1026 OFFCURVE",
"586 1026 CURVE SMOOTH",
"296 1026 OFFCURVE",
"60 790 OFFCURVE",
"60 500 CURVE SMOOTH",
"60 210 OFFCURVE",
"296 -26 OFFCURVE",
"586 -26 CURVE SMOOTH",
"692 -26 OFFCURVE",
"774 20 OFFCURVE",
"834 88 CURVE",
"834 -10 LINE SMOOTH",
"834 -140 OFFCURVE",
"704 -198 OFFCURVE",
"566 -198 CURVE SMOOTH",
"472 -198 OFFCURVE",
"386 -146 OFFCURVE",
"344 -56 CURVE",
"70 -180 LINE",
"158 -370 OFFCURVE",
"354 -500 OFFCURVE",
"566 -500 CURVE SMOOTH",
"870 -500 OFFCURVE",
"1134 -314 OFFCURVE",
"1134 -10 CURVE SMOOTH",
"1134 1000 LINE",
"834 1000 LINE"
);
},
{
closed = 1;
nodes = (
"468 262 OFFCURVE",
"368 368 OFFCURVE",
"368 500 CURVE SMOOTH",
"368 632 OFFCURVE",
"468 738 OFFCURVE",
"590 738 CURVE SMOOTH",
"714 738 OFFCURVE",
"814 632 OFFCURVE",
"814 500 CURVE SMOOTH",
"814 368 OFFCURVE",
"714 262 OFFCURVE",
"590 262 CURVE SMOOTH"
);
}
);
width = 1254;
},
{
layerId = "9AF1F7D9-E035-453E-B2A8-46DE370997D0";
paths = (
{
closed = 1;
nodes = (
"956 770 LINE",
"882 924 OFFCURVE",
"742 1028 OFFCURVE",
"560 1028 CURVE",
"284 1028 OFFCURVE",
"60 792 OFFCURVE",
"60 500 CURVE",
"60 210 OFFCURVE",
"284 -26 OFFCURVE",
"560 -26 CURVE",
"742 -26 OFFCURVE",
"882 78 OFFCURVE",
"956 232 CURVE",
"956 -50 LINE",
"956 -250 OFFCURVE",
"754 -440 OFFCURVE",
"548 -440 CURVE",
"370 -440 OFFCURVE",
"180 -290 OFFCURVE",
"146 -110 CURVE",
"90 -136 LINE",
"136 -330 OFFCURVE",
"340 -500 OFFCURVE",
"548 -500 CURVE",
"784 -500 OFFCURVE",
"1016 -282 OFFCURVE",
"1016 -50 CURVE",
"1016 1000 LINE",
"956 1000 LINE"
);
},
{
closed = 1;
nodes = (
"320 34 OFFCURVE",
"120 240 OFFCURVE",
"120 500 CURVE",
"120 758 OFFCURVE",
"314 968 OFFCURVE",
"560 968 CURVE",
"804 968 OFFCURVE",
"954 754 OFFCURVE",
"954 500 CURVE",
"954 252 OFFCURVE",
"808 34 OFFCURVE",
"560 34 CURVE"
);
}
);
width = 1136;
},
{
layerId = "F9B50E00-60B3-4906-8473-0A03A162A9E3";
paths = (
{
closed = 1;
nodes = (
"956 906 LINE",
"905 974 OFFCURVE",
"828 1026 OFFCURVE",
"713 1026 CURVE SMOOTH",
"432 1026 OFFCURVE",
"172 798 OFFCURVE",
"133 517 CURVE SMOOTH",
"91 218 OFFCURVE",
"301 -26 OFFCURVE",
"599 -26 CURVE SMOOTH",
"697 -26 OFFCURVE",
"781 14 OFFCURVE",
"851 82 CURVE",
"833 -2 LINE SMOOTH",
"816 -132 OFFCURVE",
"668 -198 OFFCURVE",
"521 -198 CURVE SMOOTH",
"436 -198 OFFCURVE",
"361 -154 OFFCURVE",
"332 -64 CURVE",
"48 -172 LINE",
"111 -362 OFFCURVE",
"292 -500 OFFCURVE",
"512 -500 CURVE SMOOTH",
"808 -500 OFFCURVE",
"1089 -322 OFFCURVE",
"1131 -18 CURVE SMOOTH",
"1275 1000 LINE",
"974 1000 LINE"
);
},
{
closed = 1;
nodes = (
"496 262 OFFCURVE",
"419 360 OFFCURVE",
"436 483 CURVE SMOOTH",
"456 624 OFFCURVE",
"580 738 OFFCURVE",
"710 738 CURVE SMOOTH",
"826 738 OFFCURVE",
"904 640 OFFCURVE",
"887 517 CURVE SMOOTH",
"867 376 OFFCURVE",
"742 262 OFFCURVE",
"610 262 CURVE SMOOTH"
);
}
);
width = 1254;
},
{
layerId = "81C5C66F-25B8-499A-A0AB-712FDA102FD8";
paths = (
{
closed = 1;
nodes = (
"1063 768 LINE",
"1011 922 OFFCURVE",
"885 1028 OFFCURVE",
"701 1028 CURVE",
"427 1028 OFFCURVE",
"172 794 OFFCURVE",
"131 503 CURVE",
"90 212 OFFCURVE",
"282 -26 OFFCURVE",
"560 -26 CURVE",
"740 -26 OFFCURVE",
"893 76 OFFCURVE",
"989 230 CURVE",
"949 -48 LINE",
"921 -248 OFFCURVE",
"690 -440 OFFCURVE",
"483 -440 CURVE",
"306 -440 OFFCURVE",
"139 -292 OFFCURVE",
"130 -112 CURVE",
"71 -134 LINE",
"90 -328 OFFCURVE",
"271 -500 OFFCURVE",
"481 -500 CURVE",
"715 -500 OFFCURVE",
"976 -284 OFFCURVE",
"1009 -52 CURVE",
"1157 1000 LINE",
"1097 1000 LINE"
);
},
{
closed = 1;
nodes = (
"323 34 OFFCURVE",
"153 238 OFFCURVE",
"190 497 CURVE",
"226 756 OFFCURVE",
"452 968 OFFCURVE",
"699 968 CURVE",
"942 968 OFFCURVE",
"1060 756 OFFCURVE",
"1025 503 CURVE",
"990 254 OFFCURVE",
"811 34 OFFCURVE",
"561 34 CURVE"
);
}
);
width = 1136;
}
);
leftKerningGroup = o;
rightKerningGroup = g;
unicode = 0067;
},
{
glyphname = h;
lastChange = "2020-02-03 19:54:53 +0000";
layers = (
{
layerId = "10BC12B3-5274-42E3-B5BC-F74F362F0DF4";
paths = (
{
closed = 1;
nodes = (
"1094 792 OFFCURVE",
"920 1026 OFFCURVE",
"632 1026 CURVE",
"532 1026 OFFCURVE",
"460 1020 OFFCURVE",
"420 938 CURVE",
"420 1500 LINE",
"120 1500 LINE",
"120 0 LINE",
"422 0 LINE",
"422 500 LINE",
"422 632 OFFCURVE",
"468 738 OFFCURVE",
"600 738 CURVE",
"710 738 OFFCURVE",
"798 632 OFFCURVE",
"798 500 CURVE",
"798 0 LINE",
"1098 0 LINE",
"1098 504 LINE"
);
}
);
width = 1178;
},
{
layerId = "9AF1F7D9-E035-453E-B2A8-46DE370997D0";
paths = (
{
closed = 1;
nodes = (
"954 806 OFFCURVE",
"778 1028 OFFCURVE",
"538 1028 CURVE",
"390 1028 OFFCURVE",
"262 942 OFFCURVE",
"180 796 CURVE",
"180 1500 LINE",
"120 1500 LINE",
"120 0 LINE",
"180 0 LINE",
"180 550 LINE",
"180 780 OFFCURVE",
"342 968 OFFCURVE",
"538 968 CURVE",
"736 968 OFFCURVE",
"898 780 OFFCURVE",
"898 550 CURVE",
"898 0 LINE",
"958 0 LINE",
"958 554 LINE"
);
}
);
width = 1038;
},
{
layerId = "F9B50E00-60B3-4906-8473-0A03A162A9E3";
paths = (
{
closed = 1;
nodes = (
"1204 784 OFFCURVE",
"1056 1026 OFFCURVE",
"759 1026 CURVE",
"668 1026 OFFCURVE",
"601 1028 OFFCURVE",
"549 946 CURVE",
"631 1500 LINE",
"331 1500 LINE",
"120 0 LINE",
"422 0 LINE",
"491 492 LINE",
"510 624 OFFCURVE",
"580 738 OFFCURVE",
"720 738 CURVE",
"822 738 OFFCURVE",
"888 640 OFFCURVE",
"869 508 CURVE",
"798 0 LINE",
"1098 0 LINE",
"1168 496 LINE"
);
}
);
width = 1178;
},
{
layerId = "81C5C66F-25B8-499A-A0AB-712FDA102FD8";
paths = (
{
closed = 1;
nodes = (
"1067 804 OFFCURVE",
"921 1028 OFFCURVE",
"679 1028 CURVE",
"533 1028 OFFCURVE",
"394 943 OFFCURVE",
"291 797 CURVE",
"391 1500 LINE",
"331 1500 LINE",
"120 0 LINE",
"180 0 LINE",
"257 548 LINE",
"289 778 OFFCURVE",
"480 968 OFFCURVE",
"677 968 CURVE",
"874 968 OFFCURVE",
"1008 782 OFFCURVE",
"976 552 CURVE",
"898 0 LINE",
"958 0 LINE",
"1036 552 LINE"
);
}
);
width = 1038;
}
);
leftKerningGroup = h;
leftMetricsKey = H;
rightKerningGroup = n;
unicode = 0068;
},
{
glyphname = i;
lastChange = "2020-02-03 19:54:53 +0000";
layers = (
{
layerId = "10BC12B3-5274-42E3-B5BC-F74F362F0DF4";
paths = (
{
closed = 1;
nodes = (
"122 0 LINE",
"422 0 LINE",
"422 1000 LINE",
"122 1000 LINE"
);
},
{
closed = 1;
nodes = (
"354 1100 OFFCURVE",
"420 1166 OFFCURVE",
"420 1250 CURVE",
"420 1332 OFFCURVE",
"354 1400 OFFCURVE",
"270 1400 CURVE",
"188 1400 OFFCURVE",
"120 1332 OFFCURVE",
"120 1250 CURVE",
"120 1166 OFFCURVE",
"188 1100 OFFCURVE",
"270 1100 CURVE"
);
}
);
width = 542;
},
{
layerId = "9AF1F7D9-E035-453E-B2A8-46DE370997D0";
paths = (
{
closed = 1;
nodes = (
"126 0 LINE",
"186 0 LINE",
"186 1000 LINE",
"126 1000 LINE"
);
},
{
closed = 1;
nodes = (
"188 1200 OFFCURVE",
"210 1224 OFFCURVE",
"210 1244 CURVE",
"210 1268 OFFCURVE",
"188 1290 OFFCURVE",
"164 1290 CURVE",
"140 1290 OFFCURVE",
"120 1268 OFFCURVE",
"120 1244 CURVE",
"120 1224 OFFCURVE",
"140 1200 OFFCURVE",
"164 1200 CURVE"
);
}
);
width = 330;
},
{
layerId = "F9B50E00-60B3-4906-8473-0A03A162A9E3";
paths = (
{
closed = 1;
nodes = (
"122 0 LINE",
"422 0 LINE",
"563 1000 LINE",
"263 1000 LINE"
);
},
{
closed = 1;
nodes = (
"517 1100 OFFCURVE",
"583 1158 OFFCURVE",
"593 1233 CURVE",
"606 1324 OFFCURVE",
"542 1400 OFFCURVE",
"450 1400 CURVE",
"376 1400 OFFCURVE",
"308 1340 OFFCURVE",
"298 1267 CURVE",
"285 1174 OFFCURVE",
"351 1100 OFFCURVE",
"441 1100 CURVE"
);
}
);
width = 542;
},
{
layerId = "81C5C66F-25B8-499A-A0AB-712FDA102FD8";
paths = (
{
closed = 1;
nodes = (
"126 0 LINE",
"186 0 LINE",
"327 1000 LINE",
"267 1000 LINE"
);
},
{
closed = 1;
nodes = (
"358 1200 OFFCURVE",
"382 1222 OFFCURVE",
"384 1241 CURVE",
"388 1266 OFFCURVE",
"368 1290 OFFCURVE",
"342 1290 CURVE",
"320 1290 OFFCURVE",
"298 1270 OFFCURVE",
"295 1247 CURVE",
"292 1226 OFFCURVE",
"310 1200 OFFCURVE",
"336 1200 CURVE"
);
}
);
width = 330;
}
);
leftKerningGroup = i;
rightKerningGroup = i;
unicode = 0069;
},
{
glyphname = idotless;
lastChange = "2020-02-03 19:57:21 +0000";
layers = (
{
layerId = "10BC12B3-5274-42E3-B5BC-F74F362F0DF4";
paths = (
{
closed = 1;
nodes = (
"120 0 LINE",
"420 0 LINE",
"420 1000 LINE",
"120 1000 LINE"
);
}
);
width = 540;
},
{
layerId = "9AF1F7D9-E035-453E-B2A8-46DE370997D0";
paths = (
{
closed = 1;
nodes = (
"120 0 LINE",
"180 0 LINE",
"180 1000 LINE",
"120 1000 LINE"
);
}
);
width = 300;
},
{
layerId = "F9B50E00-60B3-4906-8473-0A03A162A9E3";
paths = (
{
closed = 1;
nodes = (
"120 0 LINE",
"420 0 LINE",
"561 1000 LINE",
"261 1000 LINE"
);
}
);
width = 540;
},
{
layerId = "81C5C66F-25B8-499A-A0AB-712FDA102FD8";
paths = (
{
closed = 1;
nodes = (
"120 0 LINE",
"180 0 LINE",
"321 1000 LINE",
"261 1000 LINE"
);
}
);
width = 301;
}
);
leftKerningGroup = i;
leftMetricsKey = i;
rightKerningGroup = i;
rightMetricsKey = i;
unicode = 0131;
},
{
glyphname = iacute;
lastChange = "2020-02-03 19:57:18 +0000";
layers = (
{
components = (
{
name = acutecomb;
transform = "{1, 0, 0, 1, -290, 0}";
}
);
layerId = "10BC12B3-5274-42E3-B5BC-F74F362F0DF4";
paths = (
{
closed = 1;
nodes = (
"120 0 LINE",
"420 0 LINE",
"420 1000 LINE",
"120 1000 LINE"
);
}
);
width = 590;
},
{
components = (
{
name = acutecomb;
transform = "{1, 0, 0, 1, -340, 0}";
}
);
layerId = "9AF1F7D9-E035-453E-B2A8-46DE370997D0";
paths = (
{
closed = 1;
nodes = (
"120 0 LINE",
"180 0 LINE",
"180 1000 LINE",
"120 1000 LINE"
);
}
);
width = 300;
},
{
components = (
{
name = acutecomb;
transform = "{1, 0, 0, 1, -290, 0}";
}
);
layerId = "F9B50E00-60B3-4906-8473-0A03A162A9E3";
paths = (
{
closed = 1;
nodes = (
"120 0 LINE",
"420 0 LINE",
"561 1000 LINE",
"261 1000 LINE"
);
}
);
width = 593;
},
{
components = (
{
name = acutecomb;
transform = "{1, 0, 0, 1, -340, 0}";
}
);
layerId = "81C5C66F-25B8-499A-A0AB-712FDA102FD8";
paths = (
{
closed = 1;
nodes = (
"120 0 LINE",
"180 0 LINE",
"321 1000 LINE",
"261 1000 LINE"
);
}
);
width = 301;
}
);
leftKerningGroup = i;
leftMetricsKey = i;
rightKerningGroup = i;
rightMetricsKey = "=i-100";
unicode = 00ED;
},
{
glyphname = icircumflex;
lastChange = "2020-02-03 19:57:17 +0000";
layers = (
{
components = (
{
name = circumflexcomb;
transform = "{1, 0, 0, 1, -380, 0}";
}
);
layerId = "10BC12B3-5274-42E3-B5BC-F74F362F0DF4";
paths = (
{
closed = 1;
nodes = (
"120 0 LINE",
"420 0 LINE",
"420 1000 LINE",
"120 1000 LINE"
);
}
);
width = 542;
},
{
components = (
{
name = circumflexcomb;
transform = "{1, 0, 0, 1, -380, 0}";
}
);
layerId = "9AF1F7D9-E035-453E-B2A8-46DE370997D0";
paths = (
{
closed = 1;
nodes = (
"110 0 LINE",
"170 0 LINE",
"170 1000 LINE",
"110 1000 LINE"
);
}
);
width = 282;
},
{
components = (
{
name = circumflexcomb;
transform = "{1, 0, 0, 1, -377, 0}";
}
);
layerId = "F9B50E00-60B3-4906-8473-0A03A162A9E3";
paths = (
{
closed = 1;
nodes = (
"123 0 LINE",
"423 0 LINE",
"564 1000 LINE",
"264 1000 LINE"
);
}
);
width = 541;
},
{
components = (
{
name = circumflexcomb;
transform = "{1, 0, 0, 1, -379, 0}";
}
);
layerId = "81C5C66F-25B8-499A-A0AB-712FDA102FD8";
paths = (
{
closed = 1;
nodes = (
"111 0 LINE",
"171 0 LINE",
"312 1000 LINE",
"252 1000 LINE"
);
}
);
width = 282;
}
);
leftMetricsKey = "=i-100";
rightMetricsKey = "=i-100";
unicode = 00EE;
},
{
glyphname = idieresis;
lastChange = "2020-02-03 19:57:15 +0000";
layers = (
{
components = (
{
name = dieresiscomb;
transform = "{1, 0, 0, 1, -340, 0}";
}
);
layerId = "10BC12B3-5274-42E3-B5BC-F74F362F0DF4";
paths = (
{
closed = 1;
nodes = (
"280 0 LINE",
"580 0 LINE",
"580 1000 LINE",
"280 1000 LINE"
);
}
);
width = 862;
},
{
components = (
{
name = dieresiscomb;
transform = "{1, 0, 0, 1, -340, 0}";
}
);
layerId = "9AF1F7D9-E035-453E-B2A8-46DE370997D0";
paths = (
{
closed = 1;
nodes = (
"202 0 LINE",
"262 0 LINE",
"262 1000 LINE",
"202 1000 LINE"
);
}
);
width = 466;
},
{
components = (
{
name = dieresiscomb;
transform = "{1, 0, 0, 1, -340, 0}";
}
);
layerId = "F9B50E00-60B3-4906-8473-0A03A162A9E3";
paths = (
{
closed = 1;
nodes = (
"280 0 LINE",
"580 0 LINE",
"721 1000 LINE",
"421 1000 LINE"
);
}
);
width = 862;
},
{
components = (
{
name = dieresiscomb;
transform = "{1, 0, 0, 1, -341, 0}";
}
);
layerId = "81C5C66F-25B8-499A-A0AB-712FDA102FD8";
paths = (
{
closed = 1;
nodes = (
"201 0 LINE",
"261 0 LINE",
"402 1000 LINE",
"342 1000 LINE"
);
}
);
width = 466;
}
);
leftKerningGroup = i;
leftMetricsKey = "=i-60";
rightKerningGroup = i;
rightMetricsKey = "=i-60";
unicode = 00EF;
},
{
glyphname = igrave;
lastChange = "2020-02-03 19:57:14 +0000";
layers = (
{
components = (
{
name = grave;
transform = "{1, 0, 0, 1, -300, 0}";
}
);
layerId = "10BC12B3-5274-42E3-B5BC-F74F362F0DF4";
paths = (
{
closed = 1;
nodes = (
"170 0 LINE",
"470 0 LINE",
"470 1000 LINE",
"170 1000 LINE"
);
}
);
width = 590;
},
{
components = (
{
name = grave;
transform = "{1, 0, 0, 1, -300, 0}";
}
);
layerId = "9AF1F7D9-E035-453E-B2A8-46DE370997D0";
paths = (
{
closed = 1;
nodes = (
"120 0 LINE",
"180 0 LINE",
"180 1000 LINE",
"120 1000 LINE"
);
}
);
width = 300;
},
{
components = (
{
name = grave;
transform = "{1, 0, 0, 1, -304, 0}";
}
);
layerId = "F9B50E00-60B3-4906-8473-0A03A162A9E3";
paths = (
{
closed = 1;
nodes = (
"166 0 LINE",
"466 0 LINE",
"607 1000 LINE",
"307 1000 LINE"
);
}
);
width = 586;
},
{
components = (
{
name = grave;
transform = "{1, 0, 0, 1, -301, 0}";
}
);
layerId = "81C5C66F-25B8-499A-A0AB-712FDA102FD8";
paths = (
{
closed = 1;
nodes = (
"119 0 LINE",
"179 0 LINE",
"320 1000 LINE",
"260 1000 LINE"
);
}
);
width = 300;
}
);
leftKerningGroup = i;
leftMetricsKey = "=i-100";
rightKerningGroup = i;
rightMetricsKey = i;
unicode = 00EC;
},
{
glyphname = j;
lastChange = "2020-02-03 20:03:54 +0000";
layers = (
{
layerId = "10BC12B3-5274-42E3-B5BC-F74F362F0DF4";
paths = (
{
closed = 1;
nodes = (
"182 -500 OFFCURVE",
"392 -288 OFFCURVE",
"392 -28 CURVE",
"392 1000 LINE",
"92 1000 LINE",
"92 -28 LINE",
"92 -124 OFFCURVE",
"14 -200 OFFCURVE",
"-80 -200 CURVE",
"-80 -200 OFFCURVE",
"-80 -500 OFFCURVE",
"-80 -500 CURVE"
);
},
{
closed = 1;
nodes = (
"324 1100 OFFCURVE",
"392 1168 OFFCURVE",
"392 1250 CURVE",
"392 1334 OFFCURVE",
"324 1400 OFFCURVE",
"242 1400 CURVE",
"158 1400 OFFCURVE",
"92 1334 OFFCURVE",
"92 1250 CURVE",
"92 1168 OFFCURVE",
"158 1100 OFFCURVE",
"242 1100 CURVE"
);
}
);
width = 542;
},
{
layerId = "9AF1F7D9-E035-453E-B2A8-46DE370997D0";
paths = (
{
closed = 1;
nodes = (
"132 -500 OFFCURVE",
"286 -344 OFFCURVE",
"286 -148 CURVE",
"286 1000 LINE",
"226 1000 LINE",
"226 -148 LINE",
"226 -314 OFFCURVE",
"96 -440 OFFCURVE",
"-80 -440 CURVE",
"-80 -440 OFFCURVE",
"-80 -500 OFFCURVE",
"-80 -500 CURVE SMOOTH"
);
},
{
closed = 1;
nodes = (
"280 1200 OFFCURVE",
"302 1220 OFFCURVE",
"302 1244 CURVE",
"302 1268 OFFCURVE",
"280 1290 OFFCURVE",
"256 1290 CURVE",
"232 1290 OFFCURVE",
"212 1268 OFFCURVE",
"212 1244 CURVE",
"212 1220 OFFCURVE",
"232 1200 OFFCURVE",
"256 1200 CURVE"
);
}
);
width = 452;
},
{
layerId = "F9B50E00-60B3-4906-8473-0A03A162A9E3";
paths = (
{
closed = 1;
nodes = (
"120 -500 OFFCURVE",
"350 -296 OFFCURVE",
"387 -36 CURVE",
"533 1000 LINE",
"233 1000 LINE",
"89 -20 LINE",
"76 -116 OFFCURVE",
"-22 -200 OFFCURVE",
"-108 -200 CURVE",
"-100 -200 OFFCURVE",
"-159 -500 OFFCURVE",
"-150 -500 CURVE"
);
},
{
closed = 1;
nodes = (
"487 1100 OFFCURVE",
"555 1160 OFFCURVE",
"565 1233 CURVE",
"578 1326 OFFCURVE",
"512 1400 OFFCURVE",
"422 1400 CURVE",
"346 1400 OFFCURVE",
"281 1342 OFFCURVE",
"270 1267 CURVE",
"257 1176 OFFCURVE",
"321 1100 OFFCURVE",
"413 1100 CURVE"
);
}
);
width = 542;
},
{
layerId = "81C5C66F-25B8-499A-A0AB-712FDA102FD8";
paths = (
{
closed = 1;
nodes = (
"63 -500 OFFCURVE",
"237 -346 OFFCURVE",
"265 -150 CURVE",
"427 1000 LINE",
"367 1000 LINE",
"205 -146 LINE",
"182 -312 OFFCURVE",
"32 -440 OFFCURVE",
"-142 -440 CURVE",
"-140 -440 OFFCURVE",
"-152 -500 OFFCURVE",
"-150 -500 CURVE SMOOTH"
);
},
{
closed = 1;
nodes = (
"450 1200 OFFCURVE",
"473 1218 OFFCURVE",
"476 1241 CURVE",
"480 1266 OFFCURVE",
"460 1290 OFFCURVE",
"434 1290 CURVE",
"412 1290 OFFCURVE",
"390 1270 OFFCURVE",
"387 1247 CURVE",
"384 1222 OFFCURVE",
"402 1200 OFFCURVE",
"428 1200 CURVE"
);
}
);
width = 452;
}
);
leftKerningGroup = j;
rightKerningGroup = g;
unicode = 006A;
},
{
glyphname = k;
lastChange = "2020-02-03 19:54:53 +0000";
layers = (
{
layerId = "10BC12B3-5274-42E3-B5BC-F74F362F0DF4";
paths = (
{
closed = 1;
nodes = (
"734 588 LINE",
"1078 1000 LINE",
"686 1000 LINE",
"420 682 LINE",
"420 1500 LINE",
"120 1500 LINE",
"120 0 LINE",
"420 0 LINE",
"420 216 LINE",
"528 344 LINE",
"728 0 LINE",
"1074 0 LINE"
);
}
);
width = 1118;
},
{
layerId = "9AF1F7D9-E035-453E-B2A8-46DE370997D0";
paths = (
{
closed = 1;
nodes = (
"496 602 LINE",
"832 1000 LINE",
"754 1000 LINE",
"210 352 LINE",
"210 1500 LINE",
"150 1500 LINE",
"150 0 LINE",
"210 0 LINE",
"210 258 LINE",
"456 552 LINE",
"776 0 LINE",
"844 0 LINE"
);
}
);
width = 944;
},
{
layerId = "F9B50E00-60B3-4906-8473-0A03A162A9E3";
paths = (
{
closed = 1;
nodes = (
"817 588 LINE",
"1222 1000 LINE",
"823 1000 LINE",
"513 682 LINE",
"631 1500 LINE",
"331 1500 LINE",
"120 0 LINE",
"420 0 LINE",
"454 216 LINE",
"583 344 LINE",
"731 0 LINE",
"1071 0 LINE"
);
}
);
width = 1118;
},
{
layerId = "81C5C66F-25B8-499A-A0AB-712FDA102FD8";
paths = (
{
closed = 1;
nodes = (
"581 602 LINE",
"973 1000 LINE",
"894 1000 LINE",
"259 352 LINE",
"421 1500 LINE",
"361 1500 LINE",
"150 0 LINE",
"210 0 LINE",
"247 258 LINE",
"535 552 LINE",
"777 0 LINE",
"843 0 LINE"
);
}
);
width = 944;
}
);
leftKerningGroup = h;
rightKerningGroup = k;
unicode = 006B;
},
{
glyphname = l;
lastChange = "2020-02-03 19:54:53 +0000";
layers = (
{
layerId = "10BC12B3-5274-42E3-B5BC-F74F362F0DF4";
paths = (
{
closed = 1;
nodes = (
"420 0 LINE",
"420 1500 LINE",
"120 1500 LINE",
"120 0 LINE"
);
}
);
width = 540;
},
{
layerId = "9AF1F7D9-E035-453E-B2A8-46DE370997D0";
paths = (
{
closed = 1;
nodes = (
"210 2 LINE",
"210 1500 LINE",
"150 1500 LINE",
"150 2 LINE"
);
}
);
width = 360;
},
{
layerId = "F9B50E00-60B3-4906-8473-0A03A162A9E3";
paths = (
{
closed = 1;
nodes = (
"420 0 LINE",
"631 1500 LINE",
"331 1500 LINE",
"120 0 LINE"
);
}
);
width = 540;
},
{
layerId = "81C5C66F-25B8-499A-A0AB-712FDA102FD8";
paths = (
{
closed = 1;
nodes = (
"210 2 LINE",
"421 1500 LINE",
"361 1500 LINE",
"150 2 LINE"
);
}
);
width = 360;
}
);
leftKerningGroup = h;
rightKerningGroup = l;
unicode = 006C;
},
{
glyphname = m;
lastChange = "2020-02-03 20:03:59 +0000";
layers = (
{
layerId = "10BC12B3-5274-42E3-B5BC-F74F362F0DF4";
paths = (
{
closed = 1;
nodes = (
"380 0 LINE",
"380 532 LINE SMOOTH",
"380 627 OFFCURVE",
"457 703 OFFCURVE",
"552 703 CURVE SMOOTH",
"646 703 OFFCURVE",
"723 627 OFFCURVE",
"723 532 CURVE SMOOTH",
"723 0 LINE",
"1023 0 LINE",
"1023 532 LINE SMOOTH",
"1023 627 OFFCURVE",
"1100 703 OFFCURVE",
"1194 703 CURVE SMOOTH",
"1289 703 OFFCURVE",
"1366 627 OFFCURVE",
"1366 532 CURVE SMOOTH",
"1366 0 LINE",
"1666 0 LINE",
"1666 532 LINE SMOOTH",
"1666 792 OFFCURVE",
"1455 1003 OFFCURVE",
"1194 1003 CURVE SMOOTH",
"1074 1003 OFFCURVE",
"961 959 OFFCURVE",
"873 877 CURVE",
"786 959 OFFCURVE",
"672 1003 OFFCURVE",
"552 1003 CURVE SMOOTH",
"492 1003 OFFCURVE",
"434 992 OFFCURVE",
"380 951 CURVE",
"380 1000 LINE",
"80 1000 LINE",
"80 0 LINE"
);
}
);
width = 1746;
},
{
layerId = "9AF1F7D9-E035-453E-B2A8-46DE370997D0";
paths = (
{
closed = 1;
nodes = (
"160 0 LINE",
"160 530 LINE SMOOTH",
"160 760 OFFCURVE",
"288 968 OFFCURVE",
"478 968 CURVE SMOOTH",
"686 968 OFFCURVE",
"816 780 OFFCURVE",
"816 550 CURVE SMOOTH",
"816 0 LINE",
"876 0 LINE",
"876 550 LINE SMOOTH",
"876 780 OFFCURVE",
"1006 968 OFFCURVE",
"1214 968 CURVE SMOOTH",
"1422 968 OFFCURVE",
"1532 780 OFFCURVE",
"1532 550 CURVE SMOOTH",
"1532 0 LINE",
"1592 0 LINE",
"1592 550 LINE SMOOTH",
"1592 806 OFFCURVE",
"1462 1028 OFFCURVE",
"1214 1028 CURVE SMOOTH",
"1030 1028 OFFCURVE",
"908 920 OFFCURVE",
"846 744 CURVE",
"784 916 OFFCURVE",
"668 1028 OFFCURVE",
"478 1028 CURVE SMOOTH",
"318 1028 OFFCURVE",
"236 934 OFFCURVE",
"160 792 CURVE",
"160 1000 LINE",
"100 1000 LINE",
"100 0 LINE"
);
}
);
width = 1692;
},
{
layerId = "F9B50E00-60B3-4906-8473-0A03A162A9E3";
paths = (
{
closed = 1;
nodes = (
"380 0 LINE",
"454 524 LINE SMOOTH",
"467 619 OFFCURVE",
"564 703 OFFCURVE",
"668 703 CURVE SMOOTH",
"753 703 OFFCURVE",
"812 635 OFFCURVE",
"799 540 CURVE SMOOTH",
"723 0 LINE",
"1023 0 LINE",
"1097 524 LINE SMOOTH",
"1110 619 OFFCURVE",
"1207 703 OFFCURVE",
"1310 703 CURVE SMOOTH",
"1396 703 OFFCURVE",
"1455 635 OFFCURVE",
"1442 540 CURVE SMOOTH",
"1366 0 LINE",
"1666 0 LINE",
"1740 524 LINE SMOOTH",
"1776 784 OFFCURVE",
"1588 1003 OFFCURVE",
"1318 1003 CURVE SMOOTH",
"1207 1003 OFFCURVE",
"1090 965 OFFCURVE",
"984 877 CURVE",
"914 953 OFFCURVE",
"805 1003 OFFCURVE",
"676 1003 CURVE SMOOTH",
"625 1003 OFFCURVE",
"567 997 OFFCURVE",
"508 956 CURVE",
"522 1000 LINE",
"221 1000 LINE",
"80 0 LINE"
);
}
);
width = 1746;
},
{
layerId = "81C5C66F-25B8-499A-A0AB-712FDA102FD8";
paths = (
{
closed = 1;
nodes = (
"160 0 LINE",
"234 528 LINE SMOOTH",
"267 758 OFFCURVE",
"426 968 OFFCURVE",
"617 968 CURVE SMOOTH",
"824 968 OFFCURVE",
"926 782 OFFCURVE",
"894 552 CURVE SMOOTH",
"816 0 LINE",
"876 0 LINE",
"953 548 LINE SMOOTH",
"985 778 OFFCURVE",
"1144 968 OFFCURVE",
"1353 968 CURVE SMOOTH",
"1560 968 OFFCURVE",
"1642 782 OFFCURVE",
"1610 552 CURVE SMOOTH",
"1532 0 LINE",
"1592 0 LINE",
"1669 548 LINE SMOOTH",
"1705 804 OFFCURVE",
"1605 1028 OFFCURVE",
"1355 1028 CURVE SMOOTH",
"1173 1028 OFFCURVE",
"1037 922 OFFCURVE",
"949 744 CURVE",
"912 914 OFFCURVE",
"811 1028 OFFCURVE",
"619 1028 CURVE SMOOTH",
"461 1028 OFFCURVE",
"367 935 OFFCURVE",
"271 793 CURVE",
"301 1000 LINE",
"241 1000 LINE",
"100 0 LINE"
);
}
);
width = 1692;
}
);
leftKerningGroup = n;
rightKerningGroup = n;
unicode = 006D;
},
{
glyphname = n;
lastChange = "2020-02-04 07:08:19 +0000";
layers = (
{
layerId = "10BC12B3-5274-42E3-B5BC-F74F362F0DF4";
paths = (
{
closed = 1;
nodes = (
"1114 794 OFFCURVE",
"940 1028 OFFCURVE",
"652 1028 CURVE",
"544 1028 OFFCURVE",
"462 980 OFFCURVE",
"400 908 CURVE",
"400 1000 LINE",
"100 1000 LINE",
"100 0 LINE",
"400 0 LINE",
"400 502 LINE",
"400 632 OFFCURVE",
"468 740 OFFCURVE",
"598 740 CURVE",
"730 740 OFFCURVE",
"816 632 OFFCURVE",
"816 502 CURVE",
"816 0 LINE",
"1116 0 LINE",
"1116 506 LINE"
);
}
);
width = 1216;
},
{
layerId = "9AF1F7D9-E035-453E-B2A8-46DE370997D0";
paths = (
{
closed = 1;
nodes = (
"934 806 OFFCURVE",
"758 1028 OFFCURVE",
"518 1028 CURVE",
"370 1028 OFFCURVE",
"242 942 OFFCURVE",
"160 796 CURVE",
"160 1000 LINE",
"100 1000 LINE",
"100 0 LINE",
"160 0 LINE",
"160 550 LINE",
"160 780 OFFCURVE",
"322 968 OFFCURVE",
"518 968 CURVE",
"716 968 OFFCURVE",
"878 780 OFFCURVE",
"878 550 CURVE",
"878 0 LINE",
"938 0 LINE",
"938 554 LINE"
);
}
);
width = 1038;
},
{
layerId = "F9B50E00-60B3-4906-8473-0A03A162A9E3";
paths = (
{
closed = 1;
nodes = (
"1224 786 OFFCURVE",
"1076 1028 OFFCURVE",
"780 1028 CURVE",
"680 1028 OFFCURVE",
"595 986 OFFCURVE",
"523 914 CURVE",
"541 1000 LINE",
"241 1000 LINE",
"100 0 LINE",
"400 0 LINE",
"469 494 LINE",
"488 624 OFFCURVE",
"580 740 OFFCURVE",
"719 740 CURVE",
"842 740 OFFCURVE",
"906 640 OFFCURVE",
"888 510 CURVE",
"816 0 LINE",
"1116 0 LINE",
"1186 498 LINE"
);
}
);
width = 1216;
},
{
layerId = "81C5C66F-25B8-499A-A0AB-712FDA102FD8";
paths = (
{
closed = 1;
nodes = (
"1027 804 OFFCURVE",
"881 1028 OFFCURVE",
"639 1028 CURVE",
"493 1028 OFFCURVE",
"354 943 OFFCURVE",
"251 797 CURVE",
"281 1000 LINE",
"221 1000 LINE",
"80 0 LINE",
"140 0 LINE",
"217 548 LINE",
"249 778 OFFCURVE",
"440 968 OFFCURVE",
"637 968 CURVE",
"834 968 OFFCURVE",
"968 782 OFFCURVE",
"936 552 CURVE",
"858 0 LINE",
"918 0 LINE",
"996 552 LINE"
);
}
);
width = 998;
}
);
leftKerningGroup = n;
rightKerningGroup = n;
unicode = 006E;
},
{
glyphname = o;
lastChange = "2020-02-03 20:04:20 +0000";
layers = (
{
layerId = "10BC12B3-5274-42E3-B5BC-F74F362F0DF4";
paths = (
{
closed = 1;
nodes = (
"836 -26 OFFCURVE",
"1060 210 OFFCURVE",
"1060 500 CURVE SMOOTH",
"1060 792 OFFCURVE",
"836 1028 OFFCURVE",
"560 1028 CURVE SMOOTH",
"284 1028 OFFCURVE",
"60 792 OFFCURVE",
"60 500 CURVE SMOOTH",
"60 210 OFFCURVE",
"284 -26 OFFCURVE",
"560 -26 CURVE SMOOTH"
);
},
{
closed = 1;
nodes = (
"452 274 OFFCURVE",
"360 372 OFFCURVE",
"360 500 CURVE SMOOTH",
"360 622 OFFCURVE",
"448 728 OFFCURVE",
"560 728 CURVE SMOOTH",
"668 728 OFFCURVE",
"760 626 OFFCURVE",
"760 500 CURVE SMOOTH",
"760 378 OFFCURVE",
"674 274 OFFCURVE",
"560 274 CURVE SMOOTH"
);
}
);
width = 1120;
},
{
layerId = "9AF1F7D9-E035-453E-B2A8-46DE370997D0";
paths = (
{
closed = 1;
nodes = (
"836 -26 OFFCURVE",
"1060 210 OFFCURVE",
"1060 500 CURVE SMOOTH",
"1060 792 OFFCURVE",
"836 1028 OFFCURVE",
"560 1028 CURVE SMOOTH",
"284 1028 OFFCURVE",
"60 792 OFFCURVE",
"60 500 CURVE SMOOTH",
"60 210 OFFCURVE",
"284 -26 OFFCURVE",
"560 -26 CURVE SMOOTH"
);
},
{
closed = 1;
nodes = (
"320 34 OFFCURVE",
"120 240 OFFCURVE",
"120 500 CURVE SMOOTH",
"120 752 OFFCURVE",
"310 968 OFFCURVE",
"560 968 CURVE SMOOTH",
"808 968 OFFCURVE",
"1000 752 OFFCURVE",
"1000 500 CURVE SMOOTH",
"1000 250 OFFCURVE",
"808 34 OFFCURVE",
"560 34 CURVE SMOOTH"
);
}
);
width = 1120;
},
{
layerId = "F9B50E00-60B3-4906-8473-0A03A162A9E3";
paths = (
{
closed = 1;
nodes = (
"841 -26 OFFCURVE",
"1088 202 OFFCURVE",
"1128 483 CURVE SMOOTH",
"1170 784 OFFCURVE",
"972 1028 OFFCURVE",
"688 1028 CURVE SMOOTH",
"420 1028 OFFCURVE",
"172 800 OFFCURVE",
"133 517 CURVE SMOOTH",
"91 218 OFFCURVE",
"289 -26 OFFCURVE",
"573 -26 CURVE SMOOTH"
);
},
{
closed = 1;
nodes = (
"482 274 OFFCURVE",
"411 364 OFFCURVE",
"428 483 CURVE SMOOTH",
"446 614 OFFCURVE",
"559 728 OFFCURVE",
"679 728 CURVE SMOOTH",
"779 728 OFFCURVE",
"849 634 OFFCURVE",
"833 517 CURVE SMOOTH",
"814 386 OFFCURVE",
"704 274 OFFCURVE",
"582 274 CURVE SMOOTH"
);
}
);
width = 1120;
},
{
layerId = "81C5C66F-25B8-499A-A0AB-712FDA102FD8";
paths = (
{
closed = 1;
nodes = (
"834 -26 OFFCURVE",
"1089 208 OFFCURVE",
"1130 497 CURVE SMOOTH",
"1171 790 OFFCURVE",
"979 1028 OFFCURVE",
"701 1028 CURVE SMOOTH",
"427 1028 OFFCURVE",
"172 794 OFFCURVE",
"131 503 CURVE SMOOTH",
"90 212 OFFCURVE",
"282 -26 OFFCURVE",
"560 -26 CURVE SMOOTH"
);
},
{
closed = 1;
nodes = (
"323 34 OFFCURVE",
"153 238 OFFCURVE",
"190 497 CURVE SMOOTH",
"225 750 OFFCURVE",
"448 968 OFFCURVE",
"699 968 CURVE SMOOTH",
"946 968 OFFCURVE",
"1106 754 OFFCURVE",
"1071 503 CURVE SMOOTH",
"1035 252 OFFCURVE",
"811 34 OFFCURVE",
"561 34 CURVE SMOOTH"
);
}
);
width = 1120;
}
);
leftKerningGroup = o;
rightKerningGroup = o;
unicode = 006F;
},
{
glyphname = oslash;
lastChange = "2020-02-03 19:54:53 +0000";
layers = (
{
layerId = "10BC12B3-5274-42E3-B5BC-F74F362F0DF4";
paths = (
{
closed = 1;
nodes = (
"408 -2 LINE",
"456 -18 OFFCURVE",
"506 -26 OFFCURVE",
"560 -26 CURVE SMOOTH",
"836 -26 OFFCURVE",
"1060 210 OFFCURVE",
"1060 500 CURVE SMOOTH",
"1060 646 OFFCURVE",
"1004 778 OFFCURVE",
"914 874 CURVE",
"968 968 LINE",
"760 1088 LINE",
"710 1004 LINE",
"664 1020 OFFCURVE",
"612 1028 OFFCURVE",
"560 1028 CURVE SMOOTH",
"284 1028 OFFCURVE",
"60 792 OFFCURVE",
"60 500 CURVE SMOOTH",
"60 356 OFFCURVE",
"116 224 OFFCURVE",
"206 128 CURVE",
"152 34 LINE",
"360 -86 LINE"
);
},
{
closed = 1;
nodes = (
"342 412 OFFCURVE",
"336 444 OFFCURVE",
"336 482 CURVE SMOOTH",
"336 632 OFFCURVE",
"442 762 OFFCURVE",
"576 766 CURVE",
"354 380 LINE"
);
},
{
closed = 1;
nodes = (
"766 622 LINE",
"776 590 OFFCURVE",
"784 556 OFFCURVE",
"784 518 CURVE SMOOTH",
"784 368 OFFCURVE",
"682 240 OFFCURVE",
"544 236 CURVE"
);
}
);
width = 1120;
},
{
layerId = "9AF1F7D9-E035-453E-B2A8-46DE370997D0";
paths = (
{
closed = 1;
nodes = (
"326 36 LINE",
"396 -2 OFFCURVE",
"476 -26 OFFCURVE",
"560 -26 CURVE SMOOTH",
"836 -26 OFFCURVE",
"1060 210 OFFCURVE",
"1060 500 CURVE SMOOTH",
"1060 682 OFFCURVE",
"976 840 OFFCURVE",
"846 936 CURVE",
"892 1014 LINE",
"840 1044 LINE",
"794 968 LINE",
"726 1006 OFFCURVE",
"646 1028 OFFCURVE",
"560 1028 CURVE SMOOTH",
"284 1028 OFFCURVE",
"60 792 OFFCURVE",
"60 500 CURVE SMOOTH",
"60 322 OFFCURVE",
"146 164 OFFCURVE",
"276 68 CURVE",
"230 -10 LINE",
"282 -40 LINE"
);
},
{
closed = 1;
nodes = (
"194 206 OFFCURVE",
"120 344 OFFCURVE",
"120 500 CURVE SMOOTH",
"120 846 OFFCURVE",
"472 1080 OFFCURVE",
"764 916 CURVE",
"306 122 LINE"
);
},
{
closed = 1;
nodes = (
"816 882 LINE",
"928 796 OFFCURVE",
"1000 656 OFFCURVE",
"1000 500 CURVE SMOOTH",
"1000 162 OFFCURVE",
"660 -80 OFFCURVE",
"356 88 CURVE"
);
}
);
width = 1120;
},
{
layerId = "F9B50E00-60B3-4906-8473-0A03A162A9E3";
paths = (
{
closed = 1;
nodes = (
"419 1 LINE",
"462 -15 OFFCURVE",
"511 -26 OFFCURVE",
"573 -26 CURVE SMOOTH",
"841 -26 OFFCURVE",
"1088 202 OFFCURVE",
"1128 483 CURVE SMOOTH",
"1150 638 OFFCURVE",
"1107 772 OFFCURVE",
"1030 868 CURVE",
"1105 968 LINE",
"908 1088 LINE",
"840 1001 LINE",
"799 1017 OFFCURVE",
"748 1028 OFFCURVE",
"688 1028 CURVE SMOOTH",
"420 1028 OFFCURVE",
"172 800 OFFCURVE",
"133 517 CURVE SMOOTH",
"111 364 OFFCURVE",
"154 230 OFFCURVE",
"231 134 CURVE",
"155 34 LINE",
"353 -86 LINE"
);
},
{
closed = 1;
nodes = (
"397 404 OFFCURVE",
"397 436 OFFCURVE",
"401 465 CURVE SMOOTH",
"424 624 OFFCURVE",
"557 762 OFFCURVE",
"692 766 CURVE",
"401 372 LINE"
);
},
{
closed = 1;
nodes = (
"859 630 LINE",
"862 598 OFFCURVE",
"863 564 OFFCURVE",
"859 535 CURVE SMOOTH",
"837 376 OFFCURVE",
"707 240 OFFCURVE",
"569 236 CURVE"
);
}
);
width = 1120;
},
{
layerId = "81C5C66F-25B8-499A-A0AB-712FDA102FD8";
paths = (
{
closed = 1;
nodes = (
"333 37 LINE",
"397 -1 OFFCURVE",
"474 -26 OFFCURVE",
"560 -26 CURVE SMOOTH",
"834 -26 OFFCURVE",
"1089 208 OFFCURVE",
"1130 497 CURVE SMOOTH",
"1156 680 OFFCURVE",
"1093 839 OFFCURVE",
"976 935 CURVE",
"1035 1014 LINE",
"986 1044 LINE",
"928 967 LINE",
"866 1005 OFFCURVE",
"789 1028 OFFCURVE",
"701 1028 CURVE SMOOTH",
"427 1028 OFFCURVE",
"172 794 OFFCURVE",
"131 503 CURVE SMOOTH",
"105 324 OFFCURVE",
"171 165 OFFCURVE",
"287 69 CURVE",
"228 -10 LINE",
"277 -40 LINE"
);
},
{
closed = 1;
nodes = (
"221 205 OFFCURVE",
"168 342 OFFCURVE",
"190 497 CURVE SMOOTH",
"239 844 OFFCURVE",
"625 1081 OFFCURVE",
"894 917 CURVE",
"321 121 LINE"
);
},
{
closed = 1;
nodes = (
"942 883 LINE",
"1041 797 OFFCURVE",
"1092 658 OFFCURVE",
"1071 503 CURVE SMOOTH",
"1023 164 OFFCURVE",
"647 -81 OFFCURVE",
"367 87 CURVE"
);
}
);
width = 1120;
}
);
leftKerningGroup = o;
leftMetricsKey = o;
rightKerningGroup = o;
rightMetricsKey = o;
unicode = 00F8;
},
{
glyphname = oe;
lastChange = "2020-02-03 19:54:53 +0000";
layers = (
{
layerId = "10BC12B3-5274-42E3-B5BC-F74F362F0DF4";
paths = (
{
closed = 1;
nodes = (
"696 -26 OFFCURVE",
"820 32 OFFCURVE",
"910 124 CURVE",
"1000 32 OFFCURVE",
"1124 -26 OFFCURVE",
"1260 -26 CURVE SMOOTH",
"1460 -26 OFFCURVE",
"1632 98 OFFCURVE",
"1712 276 CURVE",
"1406 348 LINE",
"1370 302 OFFCURVE",
"1318 274 OFFCURVE",
"1260 274 CURVE SMOOTH",
"1166 276 OFFCURVE",
"1112 330 OFFCURVE",
"1084 402 CURVE",
"1750 402 LINE",
"1810 722 OFFCURVE",
"1578 1028 OFFCURVE",
"1260 1028 CURVE SMOOTH",
"1124 1028 OFFCURVE",
"1000 970 OFFCURVE",
"910 878 CURVE",
"820 970 OFFCURVE",
"696 1028 OFFCURVE",
"560 1028 CURVE SMOOTH",
"284 1028 OFFCURVE",
"60 792 OFFCURVE",
"60 500 CURVE SMOOTH",
"60 210 OFFCURVE",
"284 -26 OFFCURVE",
"560 -26 CURVE SMOOTH"
);
},
{
closed = 1;
nodes = (
"452 274 OFFCURVE",
"360 372 OFFCURVE",
"360 500 CURVE SMOOTH",
"360 622 OFFCURVE",
"448 728 OFFCURVE",
"560 728 CURVE SMOOTH",
"668 728 OFFCURVE",
"760 626 OFFCURVE",
"760 500 CURVE SMOOTH",
"760 378 OFFCURVE",
"674 274 OFFCURVE",
"560 274 CURVE SMOOTH"
);
},
{
closed = 1;
nodes = (
"1100 708 OFFCURVE",
"1174 768 OFFCURVE",
"1260 768 CURVE SMOOTH",
"1346 768 OFFCURVE",
"1418 708 OFFCURVE",
"1446 622 CURVE",
"1072 622 LINE"
);
}
);
width = 1819;
},
{
layerId = "9AF1F7D9-E035-453E-B2A8-46DE370997D0";
paths = (
{
closed = 1;
nodes = (
"776 -26 OFFCURVE",
"960 118 OFFCURVE",
"1030 320 CURVE",
"1100 118 OFFCURVE",
"1284 -26 OFFCURVE",
"1500 -26 CURVE SMOOTH",
"1700 -26 OFFCURVE",
"1872 98 OFFCURVE",
"1952 276 CURVE",
"1892 290 LINE",
"1812 130 OFFCURVE",
"1670 34 OFFCURVE",
"1500 34 CURVE SMOOTH",
"1270 34 OFFCURVE",
"1080 220 OFFCURVE",
"1060 470 CURVE",
"1998 470 LINE",
"1992 804 OFFCURVE",
"1786 1028 OFFCURVE",
"1500 1028 CURVE SMOOTH",
"1284 1028 OFFCURVE",
"1100 884 OFFCURVE",
"1030 680 CURVE",
"960 884 OFFCURVE",
"776 1028 OFFCURVE",
"560 1028 CURVE SMOOTH",
"284 1028 OFFCURVE",
"60 792 OFFCURVE",
"60 500 CURVE SMOOTH",
"60 210 OFFCURVE",
"284 -26 OFFCURVE",
"560 -26 CURVE SMOOTH"
);
},
{
closed = 1;
nodes = (
"320 34 OFFCURVE",
"120 240 OFFCURVE",
"120 500 CURVE SMOOTH",
"120 752 OFFCURVE",
"310 968 OFFCURVE",
"560 968 CURVE SMOOTH",
"808 968 OFFCURVE",
"1000 752 OFFCURVE",
"1000 500 CURVE SMOOTH",
"1000 250 OFFCURVE",
"808 34 OFFCURVE",
"560 34 CURVE SMOOTH"
);
},
{
closed = 1;
nodes = (
"1076 772 OFFCURVE",
"1262 968 OFFCURVE",
"1500 968 CURVE SMOOTH",
"1736 968 OFFCURVE",
"1930 764 OFFCURVE",
"1938 530 CURVE",
"1060 530 LINE"
);
}
);
width = 2058;
},
{
layerId = "F9B50E00-60B3-4906-8473-0A03A162A9E3";
paths = (
{
closed = 1;
nodes = (
"701 -26 OFFCURVE",
"830 26 OFFCURVE",
"939 124 CURVE",
"1011 38 OFFCURVE",
"1129 -26 OFFCURVE",
"1273 -26 CURVE SMOOTH",
"1465 -26 OFFCURVE",
"1648 90 OFFCURVE",
"1753 268 CURVE",
"1450 355 LINE",
"1408 309 OFFCURVE",
"1348 274 OFFCURVE",
"1282 274 CURVE SMOOTH",
"1196 276 OFFCURVE",
"1154 322 OFFCURVE",
"1136 394 CURVE",
"1807 394 LINE",
"1912 714 OFFCURVE",
"1714 1028 OFFCURVE",
"1388 1028 CURVE SMOOTH",
"1260 1028 OFFCURVE",
"1131 976 OFFCURVE",
"1022 878 CURVE",
"950 964 OFFCURVE",
"832 1028 OFFCURVE",
"688 1028 CURVE SMOOTH",
"420 1028 OFFCURVE",
"172 800 OFFCURVE",
"133 517 CURVE SMOOTH",
"91 218 OFFCURVE",
"289 -26 OFFCURVE",
"573 -26 CURVE SMOOTH"
);
},
{
closed = 1;
nodes = (
"482 274 OFFCURVE",
"411 364 OFFCURVE",
"428 483 CURVE SMOOTH",
"446 614 OFFCURVE",
"559 728 OFFCURVE",
"679 728 CURVE SMOOTH",
"779 728 OFFCURVE",
"849 634 OFFCURVE",
"833 517 CURVE SMOOTH",
"814 386 OFFCURVE",
"704 274 OFFCURVE",
"582 274 CURVE SMOOTH"
);
},
{
closed = 1;
nodes = (
"1201 700 OFFCURVE",
"1290 768 OFFCURVE",
"1385 768 CURVE SMOOTH",
"1462 768 OFFCURVE",
"1521 716 OFFCURVE",
"1537 630 CURVE",
"1161 614 LINE"
);
}
);
width = 1819;
},
{
layerId = "81C5C66F-25B8-499A-A0AB-712FDA102FD8";
paths = (
{
closed = 1;
nodes = (
"774 -26 OFFCURVE",
"977 116 OFFCURVE",
"1076 320 CURVE",
"1117 120 OFFCURVE",
"1282 -26 OFFCURVE",
"1500 -26 CURVE SMOOTH",
"1698 -26 OFFCURVE",
"1886 96 OFFCURVE",
"1991 274 CURVE",
"1932 291 LINE",
"1830 131 OFFCURVE",
"1673 34 OFFCURVE",
"1501 34 CURVE SMOOTH",
"1273 34 OFFCURVE",
"1111 218 OFFCURVE",
"1126 468 CURVE",
"2064 468 LINE",
"2105 802 OFFCURVE",
"1929 1028 OFFCURVE",
"1641 1028 CURVE SMOOTH",
"1427 1028 OFFCURVE",
"1224 886 OFFCURVE",
"1124 680 CURVE",
"1083 882 OFFCURVE",
"919 1028 OFFCURVE",
"701 1028 CURVE SMOOTH",
"427 1028 OFFCURVE",
"172 794 OFFCURVE",
"131 503 CURVE SMOOTH",
"90 212 OFFCURVE",
"282 -26 OFFCURVE",
"560 -26 CURVE SMOOTH"
);
},
{
closed = 1;
nodes = (
"323 34 OFFCURVE",
"153 238 OFFCURVE",
"190 497 CURVE SMOOTH",
"225 750 OFFCURVE",
"448 968 OFFCURVE",
"699 968 CURVE SMOOTH",
"946 968 OFFCURVE",
"1106 754 OFFCURVE",
"1071 503 CURVE SMOOTH",
"1035 252 OFFCURVE",
"811 34 OFFCURVE",
"561 34 CURVE SMOOTH"
);
},
{
closed = 1;
nodes = (
"1184 770 OFFCURVE",
"1400 968 OFFCURVE",
"1639 968 CURVE SMOOTH",
"1874 968 OFFCURVE",
"2038 766 OFFCURVE",
"2013 532 CURVE",
"1134 528 LINE"
);
}
);
width = 2058;
}
);
leftKerningGroup = o;
leftMetricsKey = o;
rightKerningGroup = e;
rightMetricsKey = e;
unicode = 0153;
},
{
glyphname = p;
lastChange = "2020-02-03 20:04:26 +0000";
layers = (
{
layerId = "10BC12B3-5274-42E3-B5BC-F74F362F0DF4";
paths = (
{
closed = 1;
nodes = (
"420 92 LINE",
"482 22 OFFCURVE",
"564 -28 OFFCURVE",
"672 -28 CURVE",
"964 -28 OFFCURVE",
"1198 208 OFFCURVE",
"1198 500 CURVE",
"1198 790 OFFCURVE",
"964 1026 OFFCURVE",
"672 1026 CURVE",
"564 1026 OFFCURVE",
"482 976 OFFCURVE",
"420 906 CURVE",
"420 1000 LINE",
"120 1000 LINE",
"120 -500 LINE",
"420 -500 LINE"
);
},
{
closed = 1;
nodes = (
"792 738 OFFCURVE",
"892 630 OFFCURVE",
"892 500 CURVE",
"892 368 OFFCURVE",
"792 262 OFFCURVE",
"668 262 CURVE",
"546 262 OFFCURVE",
"446 368 OFFCURVE",
"446 500 CURVE",
"446 630 OFFCURVE",
"546 738 OFFCURVE",
"668 738 CURVE"
);
}
);
width = 1278;
},
{
layerId = "9AF1F7D9-E035-453E-B2A8-46DE370997D0";
paths = (
{
closed = 1;
nodes = (
"180 232 LINE",
"252 76 OFFCURVE",
"394 -28 OFFCURVE",
"588 -28 CURVE SMOOTH",
"878 -28 OFFCURVE",
"1114 208 OFFCURVE",
"1114 500 CURVE SMOOTH",
"1114 790 OFFCURVE",
"878 1026 OFFCURVE",
"588 1026 CURVE SMOOTH",
"394 1026 OFFCURVE",
"252 922 OFFCURVE",
"180 766 CURVE",
"180 1000 LINE",
"120 1000 LINE",
"120 -500 LINE",
"180 -500 LINE"
);
},
{
closed = 1;
nodes = (
"846 966 OFFCURVE",
"1054 756 OFFCURVE",
"1054 500 CURVE SMOOTH",
"1054 236 OFFCURVE",
"838 32 OFFCURVE",
"588 32 CURVE SMOOTH",
"330 32 OFFCURVE",
"184 244 OFFCURVE",
"184 500 CURVE SMOOTH",
"184 760 OFFCURVE",
"334 966 OFFCURVE",
"588 966 CURVE SMOOTH"
);
}
);
width = 1194;
},
{
layerId = "F9B50E00-60B3-4906-8473-0A03A162A9E3";
paths = (
{
closed = 1;
nodes = (
"439 98 LINE",
"492 28 OFFCURVE",
"568 -28 OFFCURVE",
"685 -28 CURVE",
"968 -28 OFFCURVE",
"1226 200 OFFCURVE",
"1266 483 CURVE",
"1308 782 OFFCURVE",
"1100 1026 OFFCURVE",
"799 1026 CURVE",
"700 1026 OFFCURVE",
"614 982 OFFCURVE",
"543 912 CURVE",
"561 1000 LINE",
"261 1000 LINE",
"50 -500 LINE",
"350 -500 LINE"
);
},
{
closed = 1;
nodes = (
"904 738 OFFCURVE",
"982 638 OFFCURVE",
"965 517 CURVE",
"945 376 OFFCURVE",
"820 262 OFFCURVE",
"688 262 CURVE",
"574 262 OFFCURVE",
"497 360 OFFCURVE",
"514 483 CURVE",
"533 622 OFFCURVE",
"658 738 OFFCURVE",
"788 738 CURVE"
);
}
);
width = 1278;
},
{
layerId = "81C5C66F-25B8-499A-A0AB-712FDA102FD8";
paths = (
{
closed = 1;
nodes = (
"214 234 LINE",
"264 78 OFFCURVE",
"392 -28 OFFCURVE",
"587 -28 CURVE SMOOTH",
"876 -28 OFFCURVE",
"1143 206 OFFCURVE",
"1184 497 CURVE SMOOTH",
"1225 788 OFFCURVE",
"1021 1026 OFFCURVE",
"729 1026 CURVE SMOOTH",
"537 1026 OFFCURVE",
"381 924 OFFCURVE",
"287 768 CURVE",
"321 1000 LINE",
"261 1000 LINE",
"50 -500 LINE",
"110 -500 LINE"
);
},
{
closed = 1;
nodes = (
"983 966 OFFCURVE",
"1160 758 OFFCURVE",
"1125 503 CURVE SMOOTH",
"1087 238 OFFCURVE",
"841 32 OFFCURVE",
"589 32 CURVE SMOOTH",
"333 32 OFFCURVE",
"218 242 OFFCURVE",
"254 497 CURVE SMOOTH",
"291 758 OFFCURVE",
"471 966 OFFCURVE",
"727 966 CURVE SMOOTH"
);
}
);
width = 1194;
}
);
leftKerningGroup = p;
rightKerningGroup = o;
unicode = 0070;
},
{
glyphname = thorn;
lastChange = "2020-02-03 19:54:53 +0000";
layers = (
{
layerId = "10BC12B3-5274-42E3-B5BC-F74F362F0DF4";
paths = (
{
closed = 1;
nodes = (
"420 -500 LINE",
"420 92 LINE",
"482 22 OFFCURVE",
"564 -28 OFFCURVE",
"672 -28 CURVE SMOOTH",
"964 -28 OFFCURVE",
"1198 208 OFFCURVE",
"1198 500 CURVE SMOOTH",
"1198 790 OFFCURVE",
"964 1026 OFFCURVE",
"672 1026 CURVE SMOOTH",
"564 1026 OFFCURVE",
"482 976 OFFCURVE",
"420 906 CURVE",
"420 1400 LINE",
"120 1400 LINE",
"120 -500 LINE"
);
},
{
closed = 1;
nodes = (
"546 262 OFFCURVE",
"446 368 OFFCURVE",
"446 500 CURVE SMOOTH",
"446 630 OFFCURVE",
"546 738 OFFCURVE",
"668 738 CURVE SMOOTH",
"792 738 OFFCURVE",
"892 630 OFFCURVE",
"892 500 CURVE SMOOTH",
"892 368 OFFCURVE",
"792 262 OFFCURVE",
"668 262 CURVE SMOOTH"
);
}
);
width = 1278;
},
{
layerId = "9AF1F7D9-E035-453E-B2A8-46DE370997D0";
paths = (
{
closed = 1;
nodes = (
"180 -500 LINE",
"180 232 LINE",
"252 76 OFFCURVE",
"394 -28 OFFCURVE",
"588 -28 CURVE SMOOTH",
"878 -28 OFFCURVE",
"1114 208 OFFCURVE",
"1114 500 CURVE SMOOTH",
"1114 790 OFFCURVE",
"878 1026 OFFCURVE",
"588 1026 CURVE SMOOTH",
"394 1026 OFFCURVE",
"252 922 OFFCURVE",
"180 766 CURVE",
"180 1400 LINE",
"120 1400 LINE",
"120 -500 LINE"
);
},
{
closed = 1;
nodes = (
"330 32 OFFCURVE",
"184 244 OFFCURVE",
"184 500 CURVE SMOOTH",
"184 760 OFFCURVE",
"334 966 OFFCURVE",
"588 966 CURVE SMOOTH",
"846 966 OFFCURVE",
"1054 756 OFFCURVE",
"1054 500 CURVE SMOOTH",
"1054 236 OFFCURVE",
"838 32 OFFCURVE",
"588 32 CURVE SMOOTH"
);
}
);
width = 1194;
},
{
layerId = "F9B50E00-60B3-4906-8473-0A03A162A9E3";
paths = (
{
closed = 1;
nodes = (
"350 -500 LINE",
"439 98 LINE",
"492 28 OFFCURVE",
"568 -28 OFFCURVE",
"685 -28 CURVE SMOOTH",
"968 -28 OFFCURVE",
"1226 200 OFFCURVE",
"1266 483 CURVE SMOOTH",
"1308 782 OFFCURVE",
"1100 1026 OFFCURVE",
"799 1026 CURVE SMOOTH",
"700 1026 OFFCURVE",
"614 982 OFFCURVE",
"543 912 CURVE",
"617 1400 LINE",
"317 1400 LINE",
"50 -500 LINE"
);
},
{
closed = 1;
nodes = (
"574 262 OFFCURVE",
"497 360 OFFCURVE",
"514 483 CURVE SMOOTH",
"533 622 OFFCURVE",
"658 738 OFFCURVE",
"788 738 CURVE SMOOTH",
"904 738 OFFCURVE",
"982 638 OFFCURVE",
"965 517 CURVE SMOOTH",
"945 376 OFFCURVE",
"820 262 OFFCURVE",
"688 262 CURVE SMOOTH"
);
}
);
width = 1278;
},
{
layerId = "81C5C66F-25B8-499A-A0AB-712FDA102FD8";
paths = (
{
closed = 1;
nodes = (
"110 -500 LINE",
"214 234 LINE",
"264 78 OFFCURVE",
"392 -28 OFFCURVE",
"587 -28 CURVE SMOOTH",
"876 -28 OFFCURVE",
"1143 206 OFFCURVE",
"1184 497 CURVE SMOOTH",
"1225 788 OFFCURVE",
"1021 1026 OFFCURVE",
"729 1026 CURVE SMOOTH",
"537 1026 OFFCURVE",
"381 924 OFFCURVE",
"287 768 CURVE",
"377 1400 LINE",
"317 1400 LINE",
"50 -500 LINE"
);
},
{
closed = 1;
nodes = (
"333 32 OFFCURVE",
"218 242 OFFCURVE",
"254 497 CURVE SMOOTH",
"291 758 OFFCURVE",
"471 966 OFFCURVE",
"727 966 CURVE SMOOTH",
"983 966 OFFCURVE",
"1160 758 OFFCURVE",
"1125 503 CURVE SMOOTH",
"1087 238 OFFCURVE",
"841 32 OFFCURVE",
"589 32 CURVE SMOOTH"
);
}
);
width = 1194;
}
);
leftKerningGroup = h;
rightKerningGroup = o;
rightMetricsKey = p;
unicode = 00FE;
},
{
glyphname = q;
lastChange = "2020-02-03 19:54:53 +0000";
layers = (
{
layerId = "10BC12B3-5274-42E3-B5BC-F74F362F0DF4";
paths = (
{
closed = 1;
nodes = (
"714 -28 OFFCURVE",
"796 22 OFFCURVE",
"858 92 CURVE",
"858 -500 LINE",
"1158 -500 LINE",
"1158 1000 LINE",
"858 1000 LINE",
"858 906 LINE",
"796 976 OFFCURVE",
"714 1026 OFFCURVE",
"606 1026 CURVE",
"316 1026 OFFCURVE",
"80 790 OFFCURVE",
"80 500 CURVE",
"80 208 OFFCURVE",
"316 -28 OFFCURVE",
"606 -28 CURVE"
);
},
{
closed = 1;
nodes = (
"734 738 OFFCURVE",
"832 630 OFFCURVE",
"832 500 CURVE",
"832 368 OFFCURVE",
"734 262 OFFCURVE",
"610 262 CURVE",
"486 262 OFFCURVE",
"388 368 OFFCURVE",
"388 500 CURVE",
"388 630 OFFCURVE",
"486 738 OFFCURVE",
"610 738 CURVE"
);
}
);
width = 1278;
},
{
layerId = "9AF1F7D9-E035-453E-B2A8-46DE370997D0";
paths = (
{
closed = 1;
nodes = (
"800 -28 OFFCURVE",
"942 76 OFFCURVE",
"1014 232 CURVE",
"1014 -500 LINE",
"1074 -500 LINE",
"1074 1000 LINE",
"1014 1000 LINE",
"1014 766 LINE",
"942 922 OFFCURVE",
"800 1026 OFFCURVE",
"606 1026 CURVE",
"316 1026 OFFCURVE",
"80 790 OFFCURVE",
"80 500 CURVE",
"80 208 OFFCURVE",
"316 -28 OFFCURVE",
"606 -28 CURVE"
);
},
{
closed = 1;
nodes = (
"860 966 OFFCURVE",
"1010 760 OFFCURVE",
"1010 500 CURVE",
"1010 244 OFFCURVE",
"864 32 OFFCURVE",
"606 32 CURVE",
"356 32 OFFCURVE",
"140 236 OFFCURVE",
"140 500 CURVE",
"140 756 OFFCURVE",
"348 966 OFFCURVE",
"606 966 CURVE"
);
}
);
width = 1194;
},
{
layerId = "F9B50E00-60B3-4906-8473-0A03A162A9E3";
paths = (
{
closed = 1;
nodes = (
"718 -28 OFFCURVE",
"804 16 OFFCURVE",
"876 86 CURVE",
"788 -500 LINE",
"1088 -500 LINE",
"1299 1000 LINE",
"999 1000 LINE",
"979 900 LINE",
"927 970 OFFCURVE",
"850 1026 OFFCURVE",
"733 1026 CURVE",
"452 1026 OFFCURVE",
"192 798 OFFCURVE",
"153 517 CURVE",
"110 216 OFFCURVE",
"320 -28 OFFCURVE",
"619 -28 CURVE"
);
},
{
closed = 1;
nodes = (
"846 738 OFFCURVE",
"922 638 OFFCURVE",
"905 517 CURVE",
"885 376 OFFCURVE",
"762 262 OFFCURVE",
"630 262 CURVE",
"514 262 OFFCURVE",
"439 360 OFFCURVE",
"456 483 CURVE",
"475 622 OFFCURVE",
"598 738 OFFCURVE",
"730 738 CURVE"
);
}
);
width = 1278;
},
{
layerId = "81C5C66F-25B8-499A-A0AB-712FDA102FD8";
paths = (
{
closed = 1;
nodes = (
"798 -28 OFFCURVE",
"953 74 OFFCURVE",
"1047 230 CURVE",
"944 -500 LINE",
"1004 -500 LINE",
"1215 1000 LINE",
"1155 1000 LINE",
"1121 764 LINE",
"1071 920 OFFCURVE",
"943 1026 OFFCURVE",
"747 1026 CURVE",
"459 1026 OFFCURVE",
"191 792 OFFCURVE",
"151 503 CURVE",
"109 210 OFFCURVE",
"314 -28 OFFCURVE",
"605 -28 CURVE"
);
},
{
closed = 1;
nodes = (
"997 966 OFFCURVE",
"1117 762 OFFCURVE",
"1081 503 CURVE",
"1045 246 OFFCURVE",
"867 32 OFFCURVE",
"607 32 CURVE",
"359 32 OFFCURVE",
"173 234 OFFCURVE",
"210 497 CURVE",
"246 754 OFFCURVE",
"485 966 OFFCURVE",
"745 966 CURVE"
);
}
);
width = 1194;
}
);
leftKerningGroup = o;
rightKerningGroup = q;
unicode = 0071;
},
{
glyphname = r;
lastChange = "2020-02-03 20:14:15 +0000";
layers = (
{
layerId = "10BC12B3-5274-42E3-B5BC-F74F362F0DF4";
paths = (
{
closed = 1;
nodes = (
"802 1014 LINE",
"762 1026 OFFCURVE",
"718 1026 OFFCURVE",
"672 1026 CURVE SMOOTH",
"564 1026 OFFCURVE",
"482 978 OFFCURVE",
"420 908 CURVE",
"420 998 LINE",
"120 998 LINE",
"120 0 LINE",
"422 0 LINE",
"422 500 LINE SMOOTH",
"422 632 OFFCURVE",
"488 738 OFFCURVE",
"618 738 CURVE SMOOTH",
"672 738 OFFCURVE",
"718 720 OFFCURVE",
"754 692 CURVE"
);
}
);
width = 832;
},
{
layerId = "9AF1F7D9-E035-453E-B2A8-46DE370997D0";
paths = (
{
closed = 1;
nodes = (
"652 1010 LINE",
"618 1022 OFFCURVE",
"580 1028 OFFCURVE",
"540 1028 CURVE",
"392 1028 OFFCURVE",
"262 942 OFFCURVE",
"180 796 CURVE",
"180 1000 LINE",
"120 1000 LINE",
"120 0 LINE",
"180 0 LINE",
"180 550 LINE",
"180 780 OFFCURVE",
"342 968 OFFCURVE",
"540 968 CURVE",
"576 968 OFFCURVE",
"610 962 OFFCURVE",
"642 950 CURVE"
);
}
);
width = 682;
},
{
layerId = "F9B50E00-60B3-4906-8473-0A03A162A9E3";
paths = (
{
closed = 1;
nodes = (
"937 1012 LINE",
"898 1024 OFFCURVE",
"854 1026 OFFCURVE",
"799 1026 CURVE SMOOTH",
"700 1026 OFFCURVE",
"615 984 OFFCURVE",
"543 914 CURVE",
"561 998 LINE",
"260 998 LINE",
"120 0 LINE",
"422 0 LINE",
"491 492 LINE SMOOTH",
"510 624 OFFCURVE",
"600 738 OFFCURVE",
"738 738 CURVE SMOOTH",
"784 738 OFFCURVE",
"827 725 OFFCURVE",
"859 697 CURVE"
);
}
);
width = 802;
},
{
layerId = "81C5C66F-25B8-499A-A0AB-712FDA102FD8";
paths = (
{
closed = 1;
nodes = (
"793 1009 LINE",
"760 1021 OFFCURVE",
"723 1028 OFFCURVE",
"681 1028 CURVE",
"535 1028 OFFCURVE",
"394 943 OFFCURVE",
"291 797 CURVE",
"321 1000 LINE",
"261 1000 LINE",
"120 0 LINE",
"180 0 LINE",
"257 548 LINE",
"289 778 OFFCURVE",
"480 968 OFFCURVE",
"679 968 CURVE",
"714 968 OFFCURVE",
"747 963 OFFCURVE",
"777 951 CURVE"
);
}
);
width = 652;
}
);
leftKerningGroup = n;
rightKerningGroup = r;
unicode = 0072;
},
{
glyphname = s;
lastChange = "2020-02-03 19:54:53 +0000";
layers = (
{
layerId = "10BC12B3-5274-42E3-B5BC-F74F362F0DF4";
paths = (
{
closed = 1;
nodes = (
"630 -38 OFFCURVE",
"834 102 OFFCURVE",
"834 302 CURVE SMOOTH",
"840 474 OFFCURVE",
"678 578 OFFCURVE",
"506 634 CURVE SMOOTH",
"462 648 OFFCURVE",
"358 650 OFFCURVE",
"358 708 CURVE SMOOTH",
"358 770 OFFCURVE",
"410 786 OFFCURVE",
"480 780 CURVE SMOOTH",
"532 774 OFFCURVE",
"574 738 OFFCURVE",
"598 708 CURVE",
"834 848 LINE",
"748 968 OFFCURVE",
"610 1034 OFFCURVE",
"454 1034 CURVE SMOOTH",
"256 1034 OFFCURVE",
"78 906 OFFCURVE",
"78 700 CURVE SMOOTH",
"78 516 OFFCURVE",
"256 400 OFFCURVE",
"434 372 CURVE SMOOTH",
"484 364 OFFCURVE",
"558 354 OFFCURVE",
"558 298 CURVE SMOOTH",
"558 248 OFFCURVE",
"504 234 OFFCURVE",
"452 234 CURVE SMOOTH",
"374 234 OFFCURVE",
"332 282 OFFCURVE",
"312 304 CURVE",
"60 196 LINE",
"124 66 OFFCURVE",
"266 -4 OFFCURVE",
"418 -18 CURVE SMOOTH"
);
}
);
width = 894;
},
{
layerId = "9AF1F7D9-E035-453E-B2A8-46DE370997D0";
paths = (
{
closed = 1;
nodes = (
"636 -20 OFFCURVE",
"808 88 OFFCURVE",
"808 258 CURVE",
"808 424 OFFCURVE",
"638 478 OFFCURVE",
"450 538 CURVE SMOOTH",
"260 598 OFFCURVE",
"150 618 OFFCURVE",
"150 756 CURVE",
"150 890 OFFCURVE",
"292 974 OFFCURVE",
"450 974 CURVE",
"576 974 OFFCURVE",
"718 912 OFFCURVE",
"760 806 CURVE",
"812 836 LINE",
"764 952 OFFCURVE",
"616 1034 OFFCURVE",
"450 1034 CURVE",
"262 1034 OFFCURVE",
"90 926 OFFCURVE",
"90 756 CURVE",
"90 590 OFFCURVE",
"220 550 OFFCURVE",
"450 478 CURVE SMOOTH",
"598 432 OFFCURVE",
"748 394 OFFCURVE",
"748 258 CURVE",
"748 128 OFFCURVE",
"606 40 OFFCURVE",
"450 40 CURVE",
"324 40 OFFCURVE",
"154 112 OFFCURVE",
"116 220 CURVE",
"60 196 LINE",
"102 76 OFFCURVE",
"278 -20 OFFCURVE",
"450 -20 CURVE"
);
}
);
width = 872;
},
{
layerId = "F9B50E00-60B3-4906-8473-0A03A162A9E3";
paths = (
{
closed = 1;
nodes = (
"633 -37 OFFCURVE",
"847 94 OFFCURVE",
"874 285 CURVE SMOOTH",
"906 466 OFFCURVE",
"751 575 OFFCURVE",
"579 628 CURVE SMOOTH",
"545 644 OFFCURVE",
"448 642 OFFCURVE",
"455 691 CURVE SMOOTH",
"465 762 OFFCURVE",
"529 787 OFFCURVE",
"607 782 CURVE SMOOTH",
"649 775 OFFCURVE",
"684 745 OFFCURVE",
"704 715 CURVE",
"949 841 LINE",
"878 961 OFFCURVE",
"747 1034 OFFCURVE",
"583 1034 CURVE SMOOTH",
"393 1034 OFFCURVE",
"207 914 OFFCURVE",
"179 717 CURVE SMOOTH",
"152 524 OFFCURVE",
"321 401 OFFCURVE",
"503 375 CURVE SMOOTH",
"544 366 OFFCURVE",
"609 362 OFFCURVE",
"602 315 CURVE SMOOTH",
"594 256 OFFCURVE",
"529 234 OFFCURVE",
"468 234 CURVE SMOOTH",
"399 234 OFFCURVE",
"365 276 OFFCURVE",
"348 298 CURVE",
"91 203 LINE",
"138 73 OFFCURVE",
"274 -3 OFFCURVE",
"432 -16 CURVE SMOOTH"
);
}
);
width = 894;
},
{
layerId = "81C5C66F-25B8-499A-A0AB-712FDA102FD8";
paths = (
{
closed = 1;
nodes = (
"635 -20 OFFCURVE",
"820 86 OFFCURVE",
"844 255 CURVE",
"867 422 OFFCURVE",
"704 477 OFFCURVE",
"522 537 CURVE SMOOTH",
"342 597 OFFCURVE",
"237 616 OFFCURVE",
"256 753 CURVE",
"275 888 OFFCURVE",
"431 974 OFFCURVE",
"590 974 CURVE",
"715 974 OFFCURVE",
"847 914 OFFCURVE",
"874 808 CURVE",
"929 834 LINE",
"897 950 OFFCURVE",
"760 1034 OFFCURVE",
"592 1034 CURVE",
"406 1034 OFFCURVE",
"220 928 OFFCURVE",
"197 759 CURVE",
"173 592 OFFCURVE",
"299 551 OFFCURVE",
"521 479 CURVE SMOOTH",
"660 433 OFFCURVE",
"804 396 OFFCURVE",
"785 261 CURVE",
"766 130 OFFCURVE",
"610 40 OFFCURVE",
"452 40 CURVE",
"328 40 OFFCURVE",
"169 110 OFFCURVE",
"146 218 CURVE",
"88 198 LINE",
"113 78 OFFCURVE",
"277 -20 OFFCURVE",
"451 -20 CURVE"
);
}
);
width = 872;
}
);
leftKerningGroup = s;
rightKerningGroup = s;
unicode = 0073;
},
{
glyphname = germandbls;
lastChange = "2020-02-03 19:54:53 +0000";
layers = (
{
layerId = "10BC12B3-5274-42E3-B5BC-F74F362F0DF4";
paths = (
{
closed = 1;
nodes = (
"420 0 LINE",
"420 950 LINE SMOOTH",
"420 1058 OFFCURVE",
"506 1144 OFFCURVE",
"614 1144 CURVE SMOOTH",
"694 1144 OFFCURVE",
"760 1076 OFFCURVE",
"760 994 CURVE SMOOTH",
"760 912 OFFCURVE",
"694 858 OFFCURVE",
"614 844 CURVE SMOOTH",
"590 840 LINE",
"590 598 LINE",
"672 594 LINE SMOOTH",
"776 588 OFFCURVE",
"860 516 OFFCURVE",
"860 424 CURVE SMOOTH",
"860 332 OFFCURVE",
"776 254 OFFCURVE",
"672 254 CURVE SMOOTH",
"590 254 LINE",
"630 0 LINE",
"704 0 LINE SMOOTH",
"936 0 OFFCURVE",
"1126 170 OFFCURVE",
"1126 402 CURVE SMOOTH",
"1126 526 OFFCURVE",
"1108 710 OFFCURVE",
"930 734 CURVE",
"1034 782 OFFCURVE",
"1060 906 OFFCURVE",
"1060 994 CURVE SMOOTH",
"1060 1228 OFFCURVE",
"880 1400 OFFCURVE",
"650 1400 CURVE SMOOTH",
"356 1400 OFFCURVE",
"120 1162 OFFCURVE",
"120 870 CURVE SMOOTH",
"120 0 LINE"
);
}
);
width = 1186;
},
{
layerId = "9AF1F7D9-E035-453E-B2A8-46DE370997D0";
paths = (
{
closed = 1;
nodes = (
"180 0 LINE",
"180 994 LINE SMOOTH",
"180 1184 OFFCURVE",
"334 1338 OFFCURVE",
"524 1338 CURVE SMOOTH",
"682 1338 OFFCURVE",
"812 1200 OFFCURVE",
"812 1030 CURVE SMOOTH",
"812 860 OFFCURVE",
"682 722 OFFCURVE",
"524 722 CURVE SMOOTH",
"496 722 LINE",
"496 662 LINE",
"590 662 LINE SMOOTH",
"756 662 OFFCURVE",
"890 528 OFFCURVE",
"890 362 CURVE SMOOTH",
"890 196 OFFCURVE",
"756 60 OFFCURVE",
"590 60 CURVE SMOOTH",
"496 60 LINE",
"516 0 LINE",
"590 0 LINE SMOOTH",
"788 0 OFFCURVE",
"950 162 OFFCURVE",
"950 362 CURVE SMOOTH",
"950 526 OFFCURVE",
"842 664 OFFCURVE",
"692 708 CURVE",
"798 770 OFFCURVE",
"872 892 OFFCURVE",
"872 1030 CURVE SMOOTH",
"872 1232 OFFCURVE",
"716 1398 OFFCURVE",
"524 1398 CURVE SMOOTH",
"300 1398 OFFCURVE",
"120 1216 OFFCURVE",
"120 994 CURVE SMOOTH",
"120 0 LINE"
);
}
);
width = 1010;
},
{
layerId = "F9B50E00-60B3-4906-8473-0A03A162A9E3";
paths = (
{
closed = 1;
nodes = (
"420 0 LINE",
"552 942 LINE SMOOTH",
"568 1050 OFFCURVE",
"675 1144 OFFCURVE",
"792 1144 CURVE SMOOTH",
"863 1144 OFFCURVE",
"912 1084 OFFCURVE",
"902 1011 CURVE SMOOTH",
"889 920 OFFCURVE",
"807 859 OFFCURVE",
"725 845 CURVE SMOOTH",
"707 840 LINE",
"674 598 LINE",
"764 594 LINE SMOOTH",
"867 588 OFFCURVE",
"934 524 OFFCURVE",
"922 441 CURVE SMOOTH",
"908 340 OFFCURVE",
"803 254 OFFCURVE",
"699 254 CURVE SMOOTH",
"627 254 LINE",
"631 0 LINE",
"712 0 LINE SMOOTH",
"944 0 OFFCURVE",
"1149 162 OFFCURVE",
"1180 385 CURVE SMOOTH",
"1199 518 OFFCURVE",
"1199 709 OFFCURVE",
"1032 730 CURVE",
"1151 779 OFFCURVE",
"1186 898 OFFCURVE",
"1197 977 CURVE SMOOTH",
"1231 1220 OFFCURVE",
"1068 1400 OFFCURVE",
"830 1400 CURVE SMOOTH",
"544 1400 OFFCURVE",
"284 1170 OFFCURVE",
"243 878 CURVE SMOOTH",
"120 0 LINE"
);
}
);
width = 1186;
},
{
layerId = "81C5C66F-25B8-499A-A0AB-712FDA102FD8";
paths = (
{
closed = 1;
nodes = (
"180 0 LINE",
"319 992 LINE SMOOTH",
"346 1182 OFFCURVE",
"524 1338 OFFCURVE",
"715 1338 CURVE SMOOTH",
"872 1338 OFFCURVE",
"981 1202 OFFCURVE",
"957 1033 CURVE SMOOTH",
"933 862 OFFCURVE",
"782 722 OFFCURVE",
"624 722 CURVE SMOOTH",
"597 722 LINE",
"589 662 LINE",
"685 662 LINE SMOOTH",
"851 662 OFFCURVE",
"964 530 OFFCURVE",
"941 365 CURVE SMOOTH",
"918 198 OFFCURVE",
"763 60 OFFCURVE",
"597 60 CURVE SMOOTH",
"505 60 LINE",
"516 0 LINE",
"592 0 LINE SMOOTH",
"790 0 OFFCURVE",
"973 160 OFFCURVE",
"1000 359 CURVE SMOOTH",
"1024 524 OFFCURVE",
"934 664 OFFCURVE",
"791 707 CURVE",
"908 769 OFFCURVE",
"997 890 OFFCURVE",
"1016 1027 CURVE SMOOTH",
"1045 1230 OFFCURVE",
"911 1398 OFFCURVE",
"717 1398 CURVE SMOOTH",
"495 1398 OFFCURVE",
"291 1218 OFFCURVE",
"260 996 CURVE SMOOTH",
"120 0 LINE"
);
}
);
width = 1010;
}
);
leftKerningGroup = h;
rightKerningGroup = B;
unicode = 00DF;
},
{
glyphname = t;
lastChange = "2020-02-03 19:54:53 +0000";
layers = (
{
layerId = "10BC12B3-5274-42E3-B5BC-F74F362F0DF4";
paths = (
{
closed = 1;
nodes = (
"670 1000 LINE",
"500 1000 LINE",
"500 1314 LINE",
"200 1314 LINE",
"200 1000 LINE",
"70 1000 LINE",
"70 700 LINE",
"200 700 LINE",
"200 0 LINE",
"500 0 LINE",
"500 700 LINE",
"670 700 LINE"
);
}
);
width = 730;
},
{
layerId = "9AF1F7D9-E035-453E-B2A8-46DE370997D0";
paths = (
{
closed = 1;
nodes = (
"610 1000 LINE",
"336 1000 LINE",
"336 1314 LINE",
"276 1314 LINE",
"276 1000 LINE",
"70 1000 LINE",
"70 940 LINE",
"276 940 LINE",
"276 0 LINE",
"336 0 LINE",
"336 940 LINE",
"610 940 LINE"
);
}
);
width = 670;
},
{
layerId = "F9B50E00-60B3-4906-8473-0A03A162A9E3";
paths = (
{
closed = 1;
nodes = (
"811 1000 LINE",
"641 1000 LINE",
"685 1314 LINE",
"385 1314 LINE",
"341 1000 LINE",
"211 1000 LINE",
"168 700 LINE",
"298 700 LINE",
"200 0 LINE",
"500 0 LINE",
"598 700 LINE",
"768 700 LINE"
);
}
);
width = 730;
},
{
layerId = "81C5C66F-25B8-499A-A0AB-712FDA102FD8";
paths = (
{
closed = 1;
nodes = (
"751 1000 LINE",
"477 1000 LINE",
"521 1314 LINE",
"461 1314 LINE",
"417 1000 LINE",
"211 1000 LINE",
"202 940 LINE",
"408 940 LINE",
"276 0 LINE",
"336 0 LINE",
"468 940 LINE",
"742 940 LINE"
);
}
);
width = 670;
}
);
leftKerningGroup = t;
rightKerningGroup = t;
unicode = 0074;
},
{
glyphname = u;
lastChange = "2020-02-03 19:54:53 +0000";
layers = (
{
layerId = "10BC12B3-5274-42E3-B5BC-F74F362F0DF4";
paths = (
{
closed = 1;
nodes = (
"122 206 OFFCURVE",
"296 -28 OFFCURVE",
"584 -28 CURVE",
"692 -28 OFFCURVE",
"774 22 OFFCURVE",
"836 92 CURVE",
"836 0 LINE",
"1136 0 LINE",
"1136 1000 LINE",
"836 1000 LINE",
"836 500 LINE",
"836 368 OFFCURVE",
"768 262 OFFCURVE",
"638 262 CURVE",
"506 262 OFFCURVE",
"420 368 OFFCURVE",
"420 500 CURVE",
"420 1000 LINE",
"120 1000 LINE",
"120 496 LINE"
);
}
);
width = 1256;
},
{
layerId = "9AF1F7D9-E035-453E-B2A8-46DE370997D0";
paths = (
{
closed = 1;
nodes = (
"124 196 OFFCURVE",
"300 -26 OFFCURVE",
"540 -26 CURVE",
"688 -26 OFFCURVE",
"816 60 OFFCURVE",
"898 206 CURVE",
"898 0 LINE",
"958 0 LINE",
"958 1000 LINE",
"898 1000 LINE",
"898 452 LINE",
"898 222 OFFCURVE",
"736 34 OFFCURVE",
"540 34 CURVE",
"342 34 OFFCURVE",
"180 222 OFFCURVE",
"180 452 CURVE",
"180 1000 LINE",
"120 1000 LINE",
"120 448 LINE"
);
}
);
width = 1078;
},
{
layerId = "F9B50E00-60B3-4906-8473-0A03A162A9E3";
paths = (
{
closed = 1;
nodes = (
"152 214 OFFCURVE",
"300 -28 OFFCURVE",
"597 -28 CURVE",
"696 -28 OFFCURVE",
"782 16 OFFCURVE",
"854 86 CURVE",
"835 0 LINE",
"1136 0 LINE",
"1277 1000 LINE",
"977 1000 LINE",
"907 508 LINE",
"889 376 OFFCURVE",
"796 262 OFFCURVE",
"658 262 CURVE",
"534 262 OFFCURVE",
"471 360 OFFCURVE",
"489 492 CURVE",
"561 1000 LINE",
"261 1000 LINE",
"191 504 LINE"
);
}
);
width = 1256;
},
{
layerId = "81C5C66F-25B8-499A-A0AB-712FDA102FD8";
paths = (
{
closed = 1;
nodes = (
"152 198 OFFCURVE",
"298 -26 OFFCURVE",
"540 -26 CURVE",
"686 -26 OFFCURVE",
"825 59 OFFCURVE",
"928 205 CURVE",
"898 0 LINE",
"958 0 LINE",
"1099 1000 LINE",
"1039 1000 LINE",
"962 454 LINE",
"929 224 OFFCURVE",
"739 34 OFFCURVE",
"541 34 CURVE",
"345 34 OFFCURVE",
"211 220 OFFCURVE",
"243 450 CURVE",
"321 1000 LINE",
"261 1000 LINE",
"183 450 LINE"
);
}
);
width = 1078;
}
);
leftKerningGroup = u;
rightKerningGroup = u;
unicode = 0075;
},
{
glyphname = v;
lastChange = "2020-02-03 19:54:53 +0000";
layers = (
{
layerId = "10BC12B3-5274-42E3-B5BC-F74F362F0DF4";
paths = (
{
closed = 1;
nodes = (
"1176 1000 LINE",
"856 1000 LINE",
"618 344 LINE",
"380 1000 LINE",
"60 1000 LINE",
"424 0 LINE",
"812 0 LINE"
);
}
);
width = 1236;
},
{
layerId = "9AF1F7D9-E035-453E-B2A8-46DE370997D0";
paths = (
{
closed = 1;
nodes = (
"864 1004 LINE",
"800 1004 LINE",
"462 74 LINE",
"124 1004 LINE",
"60 1004 LINE",
"426 0 LINE",
"498 0 LINE"
);
}
);
width = 924;
},
{
layerId = "F9B50E00-60B3-4906-8473-0A03A162A9E3";
paths = (
{
closed = 1;
nodes = (
"1319 1000 LINE",
"994 1000 LINE",
"661 344 LINE",
"518 1000 LINE",
"203 1000 LINE",
"427 0 LINE",
"815 0 LINE"
);
}
);
width = 1236;
},
{
layerId = "81C5C66F-25B8-499A-A0AB-712FDA102FD8";
paths = (
{
closed = 1;
nodes = (
"1006 1004 LINE",
"941 1004 LINE",
"471 74 LINE",
"265 1004 LINE",
"202 1004 LINE",
"427 0 LINE",
"499 0 LINE"
);
}
);
width = 924;
}
);
leftKerningGroup = w;
rightKerningGroup = w;
unicode = 0076;
},
{
glyphname = w;
lastChange = "2020-02-03 19:54:53 +0000";
layers = (
{
layerId = "10BC12B3-5274-42E3-B5BC-F74F362F0DF4";
paths = (
{
closed = 1;
nodes = (
"874 562 LINE",
"1060 0 LINE",
"1354 0 LINE",
"1688 1000 LINE",
"1394 1000 LINE",
"1206 438 LINE",
"1020 1000 LINE",
"728 1000 LINE",
"542 438 LINE",
"354 1000 LINE",
"60 1000 LINE",
"394 0 LINE",
"688 0 LINE"
);
}
);
width = 1748;
},
{
layerId = "9AF1F7D9-E035-453E-B2A8-46DE370997D0";
paths = (
{
closed = 1;
nodes = (
"780 940 LINE",
"1098 0 LINE",
"1168 0 LINE",
"1504 1002 LINE",
"1444 1002 LINE",
"1132 72 LINE",
"820 1002 LINE",
"744 1002 LINE",
"432 72 LINE",
"118 1002 LINE",
"60 1002 LINE",
"396 0 LINE",
"464 0 LINE"
);
}
);
width = 1564;
},
{
layerId = "F9B50E00-60B3-4906-8473-0A03A162A9E3";
paths = (
{
closed = 1;
nodes = (
"958 562 LINE",
"1062 0 LINE",
"1356 0 LINE",
"1831 1000 LINE",
"1532 1000 LINE",
"1263 438 LINE",
"1158 1000 LINE",
"866 1000 LINE",
"599 438 LINE",
"492 1000 LINE",
"203 1000 LINE",
"396 0 LINE",
"690 0 LINE"
);
}
);
width = 1748;
},
{
layerId = "81C5C66F-25B8-499A-A0AB-712FDA102FD8";
paths = (
{
closed = 1;
nodes = (
"913 940 LINE",
"1098 0 LINE",
"1168 0 LINE",
"1645 1002 LINE",
"1584 1002 LINE",
"1141 72 LINE",
"960 1002 LINE",
"884 1002 LINE",
"441 72 LINE",
"258 1002 LINE",
"201 1002 LINE",
"396 0 LINE",
"464 0 LINE"
);
}
);
width = 1564;
}
);
leftKerningGroup = w;
rightKerningGroup = w;
unicode = 0077;
},
{
glyphname = x;
lastChange = "2020-02-03 19:54:53 +0000";
layers = (
{
layerId = "10BC12B3-5274-42E3-B5BC-F74F362F0DF4";
paths = (
{
closed = 1;
nodes = (
"450 0 LINE",
"630 248 LINE",
"812 0 LINE",
"1182 0 LINE",
"816 502 LINE",
"1178 1000 LINE",
"808 1000 LINE",
"630 758 LINE",
"454 1000 LINE",
"84 1000 LINE",
"446 502 LINE",
"80 0 LINE"
);
}
);
width = 1262;
},
{
layerId = "9AF1F7D9-E035-453E-B2A8-46DE370997D0";
paths = (
{
closed = 1;
nodes = (
"154 0 LINE",
"484 452 LINE",
"812 0 LINE",
"886 0 LINE",
"520 502 LINE",
"886 1004 LINE",
"812 1004 LINE",
"484 554 LINE",
"154 1004 LINE",
"80 1004 LINE",
"446 502 LINE",
"80 0 LINE"
);
}
);
width = 966;
},
{
layerId = "F9B50E00-60B3-4906-8473-0A03A162A9E3";
paths = (
{
closed = 1;
nodes = (
"453 0 LINE",
"671 248 LINE",
"815 0 LINE",
"1179 0 LINE",
"887 502 LINE",
"1322 1000 LINE",
"945 1000 LINE",
"730 758 LINE",
"591 1000 LINE",
"228 1000 LINE",
"517 502 LINE",
"77 0 LINE"
);
}
);
width = 1262;
},
{
layerId = "81C5C66F-25B8-499A-A0AB-712FDA102FD8";
paths = (
{
closed = 1;
nodes = (
"155 0 LINE",
"549 452 LINE",
"813 0 LINE",
"885 0 LINE",
"591 502 LINE",
"1028 1004 LINE",
"952 1004 LINE",
"561 554 LINE",
"294 1004 LINE",
"222 1004 LINE",
"517 502 LINE",
"79 0 LINE"
);
}
);
width = 966;
}
);
leftKerningGroup = x;
rightKerningGroup = x;
unicode = 0078;
},
{
glyphname = y;
lastChange = "2020-02-03 19:54:53 +0000";
layers = (
{
layerId = "10BC12B3-5274-42E3-B5BC-F74F362F0DF4";
paths = (
{
closed = 1;
nodes = (
"590 410 LINE",
"408 1000 LINE",
"80 1000 LINE",
"440 0 LINE",
"260 -500 LINE",
"578 -500 LINE",
"1126 1000 LINE",
"806 1000 LINE"
);
}
);
width = 1206;
},
{
layerId = "9AF1F7D9-E035-453E-B2A8-46DE370997D0";
paths = (
{
closed = 1;
nodes = (
"468 84 LINE",
"146 1000 LINE",
"80 1000 LINE",
"438 2 LINE",
"256 -500 LINE",
"320 -500 LINE",
"866 1000 LINE",
"804 1000 LINE"
);
}
);
width = 946;
},
{
layerId = "F9B50E00-60B3-4906-8473-0A03A162A9E3";
paths = (
{
closed = 1;
nodes = (
"643 410 LINE",
"546 1000 LINE",
"223 1000 LINE",
"440 0 LINE",
"187 -500 LINE",
"510 -500 LINE",
"1269 1000 LINE",
"944 1000 LINE"
);
}
);
width = 1206;
},
{
layerId = "81C5C66F-25B8-499A-A0AB-712FDA102FD8";
paths = (
{
closed = 1;
nodes = (
"479 84 LINE",
"286 1000 LINE",
"221 1000 LINE",
"438 2 LINE",
"185 -500 LINE",
"250 -500 LINE",
"1007 1000 LINE",
"944 1000 LINE"
);
}
);
width = 946;
}
);
leftKerningGroup = y;
rightKerningGroup = y;
unicode = 0079;
},
{
glyphname = z;
lastChange = "2020-02-03 19:54:53 +0000";
layers = (
{
background = {
paths = (
{
closed = 1;
nodes = (
"974 1000 LINE",
"120 1000 LINE",
"120 700 LINE",
"540 700 LINE",
"120 300 LINE",
"120 0 LINE",
"974 0 LINE",
"974 300 LINE",
"554 300 LINE",
"974 700 LINE"
);
}
);
};
layerId = "10BC12B3-5274-42E3-B5BC-F74F362F0DF4";
paths = (
{
closed = 1;
nodes = (
"974 1000 LINE",
"120 1000 LINE",
"120 700 LINE",
"540 700 LINE",
"120 300 LINE",
"120 0 LINE",
"974 0 LINE",
"974 300 LINE",
"554 300 LINE",
"974 700 LINE"
);
}
);
width = 1094;
},
{
layerId = "9AF1F7D9-E035-453E-B2A8-46DE370997D0";
paths = (
{
closed = 1;
nodes = (
"954 1000 LINE",
"100 1000 LINE",
"100 940 LINE",
"874 940 LINE",
"100 60 LINE",
"100 0 LINE",
"954 0 LINE",
"954 60 LINE",
"180 60 LINE",
"954 940 LINE"
);
}
);
width = 1054;
},
{
background = {
paths = (
{
closed = 1;
nodes = (
"974 1000 LINE",
"120 1000 LINE",
"120 700 LINE",
"540 700 LINE",
"120 300 LINE",
"120 0 LINE",
"974 0 LINE",
"974 300 LINE",
"554 300 LINE",
"974 700 LINE"
);
}
);
};
layerId = "F9B50E00-60B3-4906-8473-0A03A162A9E3";
paths = (
{
closed = 1;
nodes = (
"1115 1000 LINE",
"261 1000 LINE",
"218 700 LINE",
"635 700 LINE",
"159 300 LINE",
"120 0 LINE",
"974 0 LINE",
"1016 300 LINE",
"599 300 LINE",
"1075 700 LINE"
);
}
);
width = 1094;
},
{
layerId = "81C5C66F-25B8-499A-A0AB-712FDA102FD8";
paths = (
{
closed = 1;
nodes = (
"1095 1000 LINE",
"241 1000 LINE",
"232 940 LINE",
"1005 940 LINE",
"108 60 LINE",
"100 0 LINE",
"954 0 LINE",
"962 60 LINE",
"189 60 LINE",
"1087 940 LINE"
);
}
);
width = 1054;
}
);
leftKerningGroup = z;
rightKerningGroup = z;
unicode = 007A;
},
{
glyphname = mu;
lastChange = "2020-02-03 19:54:53 +0000";
layers = (
{
layerId = "10BC12B3-5274-42E3-B5BC-F74F362F0DF4";
paths = (
{
closed = 1;
nodes = (
"380 -432 LINE",
"380 0 LINE",
"430 -18 OFFCURVE",
"484 -28 OFFCURVE",
"544 -28 CURVE SMOOTH",
"652 -28 OFFCURVE",
"734 22 OFFCURVE",
"796 92 CURVE",
"796 0 LINE",
"1096 0 LINE",
"1096 1000 LINE",
"796 1000 LINE",
"796 500 LINE SMOOTH",
"796 368 OFFCURVE",
"728 262 OFFCURVE",
"598 262 CURVE SMOOTH",
"466 262 OFFCURVE",
"380 368 OFFCURVE",
"380 500 CURVE SMOOTH",
"380 1000 LINE",
"80 1000 LINE",
"80 -432 LINE"
);
}
);
width = 1176;
},
{
layerId = "9AF1F7D9-E035-453E-B2A8-46DE370997D0";
paths = (
{
closed = 1;
nodes = (
"140 -432 LINE",
"140 208 LINE",
"212 70 OFFCURVE",
"342 -26 OFFCURVE",
"500 -26 CURVE SMOOTH",
"648 -26 OFFCURVE",
"776 60 OFFCURVE",
"858 206 CURVE",
"858 0 LINE",
"918 0 LINE",
"918 1000 LINE",
"858 1000 LINE",
"858 452 LINE SMOOTH",
"858 222 OFFCURVE",
"696 34 OFFCURVE",
"500 34 CURVE SMOOTH",
"302 34 OFFCURVE",
"140 222 OFFCURVE",
"140 452 CURVE SMOOTH",
"140 1000 LINE",
"80 1000 LINE",
"80 -432 LINE"
);
}
);
width = 998;
},
{
layerId = "F9B50E00-60B3-4906-8473-0A03A162A9E3";
paths = (
{
closed = 1;
nodes = (
"319 -432 LINE",
"388 3 LINE",
"436 -15 OFFCURVE",
"488 -28 OFFCURVE",
"557 -28 CURVE SMOOTH",
"656 -28 OFFCURVE",
"742 16 OFFCURVE",
"814 86 CURVE",
"795 0 LINE",
"1096 0 LINE",
"1237 1000 LINE",
"937 1000 LINE",
"867 508 LINE SMOOTH",
"849 376 OFFCURVE",
"756 262 OFFCURVE",
"618 262 CURVE SMOOTH",
"494 262 OFFCURVE",
"431 360 OFFCURVE",
"449 492 CURVE SMOOTH",
"521 1000 LINE",
"221 1000 LINE",
"19 -432 LINE"
);
}
);
width = 1176;
},
{
layerId = "81C5C66F-25B8-499A-A0AB-712FDA102FD8";
paths = (
{
closed = 1;
nodes = (
"79 -432 LINE",
"170 209 LINE",
"223 71 OFFCURVE",
"340 -26 OFFCURVE",
"500 -26 CURVE SMOOTH",
"646 -26 OFFCURVE",
"785 59 OFFCURVE",
"888 205 CURVE",
"858 0 LINE",
"918 0 LINE",
"1059 1000 LINE",
"999 1000 LINE",
"922 454 LINE SMOOTH",
"889 224 OFFCURVE",
"699 34 OFFCURVE",
"501 34 CURVE SMOOTH",
"305 34 OFFCURVE",
"171 220 OFFCURVE",
"203 450 CURVE SMOOTH",
"281 1000 LINE",
"221 1000 LINE",
"19 -432 LINE"
);
}
);
width = 998;
}
);
leftKerningGroup = p;
rightKerningGroup = u;
unicode = 03BC;
},
{
glyphname = zero;
lastChange = "2020-02-03 19:54:53 +0000";
layers = (
{
layerId = "10BC12B3-5274-42E3-B5BC-F74F362F0DF4";
paths = (
{
closed = 1;
nodes = (
"930 -26 OFFCURVE",
"1158 300 OFFCURVE",
"1158 700 CURVE SMOOTH",
"1158 1100 OFFCURVE",
"930 1426 OFFCURVE",
"610 1426 CURVE SMOOTH",
"290 1426 OFFCURVE",
"60 1100 OFFCURVE",
"60 700 CURVE SMOOTH",
"60 300 OFFCURVE",
"290 -26 OFFCURVE",
"610 -26 CURVE SMOOTH"
);
},
{
closed = 1;
nodes = (
"426 274 OFFCURVE",
"340 484 OFFCURVE",
"340 700 CURVE SMOOTH",
"340 918 OFFCURVE",
"424 1126 OFFCURVE",
"610 1126 CURVE SMOOTH",
"788 1126 OFFCURVE",
"878 930 OFFCURVE",
"878 700 CURVE SMOOTH",
"878 482 OFFCURVE",
"796 274 OFFCURVE",
"610 274 CURVE SMOOTH"
);
}
);
width = 1218;
},
{
layerId = "9AF1F7D9-E035-453E-B2A8-46DE370997D0";
paths = (
{
closed = 1;
nodes = (
"930 -26 OFFCURVE",
"1118 300 OFFCURVE",
"1118 700 CURVE SMOOTH",
"1118 1102 OFFCURVE",
"930 1426 OFFCURVE",
"590 1426 CURVE SMOOTH",
"248 1426 OFFCURVE",
"60 1102 OFFCURVE",
"60 700 CURVE SMOOTH",
"60 300 OFFCURVE",
"248 -26 OFFCURVE",
"590 -26 CURVE SMOOTH"
);
},
{
closed = 1;
nodes = (
"286 34 OFFCURVE",
"120 332 OFFCURVE",
"120 700 CURVE SMOOTH",
"120 1058 OFFCURVE",
"276 1366 OFFCURVE",
"590 1366 CURVE SMOOTH",
"888 1366 OFFCURVE",
"1058 1082 OFFCURVE",
"1058 700 CURVE SMOOTH",
"1058 336 OFFCURVE",
"894 34 OFFCURVE",
"590 34 CURVE SMOOTH"
);
}
);
width = 1178;
},
{
layerId = "F9B50E00-60B3-4906-8473-0A03A162A9E3";
paths = (
{
closed = 1;
nodes = (
"935 -26 OFFCURVE",
"1199 292 OFFCURVE",
"1254 683 CURVE SMOOTH",
"1311 1092 OFFCURVE",
"1122 1426 OFFCURVE",
"794 1426 CURVE SMOOTH",
"482 1426 OFFCURVE",
"216 1108 OFFCURVE",
"161 717 CURVE SMOOTH",
"103 308 OFFCURVE",
"295 -26 OFFCURVE",
"623 -26 CURVE SMOOTH"
);
},
{
closed = 1;
nodes = (
"456 274 OFFCURVE",
"407 476 OFFCURVE",
"436 683 CURVE SMOOTH",
"468 910 OFFCURVE",
"591 1126 OFFCURVE",
"785 1126 CURVE SMOOTH",
"955 1126 OFFCURVE",
"1010 938 OFFCURVE",
"979 717 CURVE SMOOTH",
"947 490 OFFCURVE",
"826 274 OFFCURVE",
"632 274 CURVE SMOOTH"
);
}
);
width = 1218;
},
{
layerId = "81C5C66F-25B8-499A-A0AB-712FDA102FD8";
paths = (
{
closed = 1;
nodes = (
"928 -26 OFFCURVE",
"1160 298 OFFCURVE",
"1216 697 CURVE SMOOTH",
"1273 1100 OFFCURVE",
"1129 1426 OFFCURVE",
"787 1426 CURVE SMOOTH",
"447 1426 OFFCURVE",
"215 1104 OFFCURVE",
"159 703 CURVE SMOOTH",
"102 302 OFFCURVE",
"246 -26 OFFCURVE",
"590 -26 CURVE SMOOTH"
);
},
{
closed = 1;
nodes = (
"289 34 OFFCURVE",
"166 330 OFFCURVE",
"218 697 CURVE SMOOTH",
"268 1056 OFFCURVE",
"470 1366 OFFCURVE",
"785 1366 CURVE SMOOTH",
"1082 1366 OFFCURVE",
"1210 1084 OFFCURVE",
"1157 703 CURVE SMOOTH",
"1105 338 OFFCURVE",
"897 34 OFFCURVE",
"591 34 CURVE SMOOTH"
);
}
);
width = 1178;
}
);
leftKerningGroup = zero;
rightKerningGroup = zero;
unicode = 0030;
},
{
glyphname = one;
lastChange = "2020-02-03 19:54:53 +0000";
layers = (
{
layerId = "10BC12B3-5274-42E3-B5BC-F74F362F0DF4";
paths = (
{
closed = 1;
nodes = (
"570 0 LINE",
"570 1400 LINE",
"160 1400 LINE",
"80 1100 LINE",
"270 1100 LINE",
"270 0 LINE"
);
}
);
width = 730;
},
{
layerId = "9AF1F7D9-E035-453E-B2A8-46DE370997D0";
paths = (
{
closed = 1;
nodes = (
"270 0 LINE",
"270 1400 LINE",
"100 1400 LINE",
"80 1340 LINE",
"210 1340 LINE",
"210 0 LINE"
);
}
);
width = 430;
},
{
layerId = "F9B50E00-60B3-4906-8473-0A03A162A9E3";
paths = (
{
closed = 1;
nodes = (
"570 0 LINE",
"767 1400 LINE",
"355 1400 LINE",
"233 1100 LINE",
"425 1100 LINE",
"270 0 LINE"
);
}
);
width = 730;
},
{
layerId = "81C5C66F-25B8-499A-A0AB-712FDA102FD8";
paths = (
{
closed = 1;
nodes = (
"270 0 LINE",
"467 1400 LINE",
"296 1400 LINE",
"268 1340 LINE",
"398 1340 LINE",
"210 0 LINE"
);
}
);
width = 430;
}
);
leftKerningGroup = one;
rightKerningGroup = one;
unicode = 0031;
},
{
glyphname = two;
lastChange = "2020-02-03 19:54:53 +0000";
layers = (
{
hints = (
{
horizontal = 1;
origin = "{0, 22}";
target = "{0, 2}";
type = Stem;
},
{
horizontal = 1;
origin = "{0, 15}";
target = "{0, 8}";
type = Stem;
},
{
origin = "{0, 11}";
target = "{0, 12}";
type = Stem;
},
{
origin = "{0, 18}";
target = "{0, 0}";
type = Stem;
}
);
layerId = "10BC12B3-5274-42E3-B5BC-F74F362F0DF4";
paths = (
{
closed = 1;
nodes = (
"1052 0 LINE",
"1052 300 LINE",
"632 300 LINE",
"900 560 OFFCURVE",
"1052 718 OFFCURVE",
"1052 940 CURVE SMOOTH",
"1052 1210 OFFCURVE",
"834 1426 OFFCURVE",
"568 1426 CURVE SMOOTH",
"306 1426 OFFCURVE",
"82 1216 OFFCURVE",
"82 940 CURVE",
"382 940 LINE",
"382 1042 OFFCURVE",
"466 1126 OFFCURVE",
"568 1126 CURVE SMOOTH",
"670 1126 OFFCURVE",
"752 1042 OFFCURVE",
"752 940 CURVE SMOOTH",
"752 772 OFFCURVE",
"266 384 OFFCURVE",
"80 268 CURVE",
"80 0 LINE"
);
}
);
width = 1172;
},
{
hints = (
{
horizontal = 1;
origin = "{0, 22}";
target = "{0, 2}";
type = Stem;
},
{
horizontal = 1;
origin = "{0, 15}";
target = "{0, 8}";
type = Stem;
},
{
origin = "{0, 11}";
target = "{0, 12}";
type = Stem;
},
{
origin = "{0, 18}";
target = "{0, 5}";
type = Stem;
}
);
layerId = "9AF1F7D9-E035-453E-B2A8-46DE370997D0";
paths = (
{
closed = 1;
nodes = (
"928 0 LINE",
"928 60 LINE",
"178 60 LINE",
"454 314 OFFCURVE",
"896 780 OFFCURVE",
"896 1026 CURVE SMOOTH",
"896 1246 OFFCURVE",
"718 1426 OFFCURVE",
"500 1426 CURVE SMOOTH",
"280 1426 OFFCURVE",
"102 1246 OFFCURVE",
"102 1026 CURVE",
"162 1026 LINE",
"162 1212 OFFCURVE",
"314 1366 OFFCURVE",
"500 1366 CURVE SMOOTH",
"686 1366 OFFCURVE",
"836 1212 OFFCURVE",
"836 1026 CURVE SMOOTH",
"836 782 OFFCURVE",
"400 372 OFFCURVE",
"80 52 CURVE",
"80 0 LINE"
);
}
);
width = 1048;
},
{
hints = (
{
horizontal = 1;
origin = "{0, 22}";
target = "{0, 2}";
type = Stem;
},
{
horizontal = 1;
origin = "{0, 15}";
target = "{0, 8}";
type = Stem;
},
{
origin = "{0, 11}";
target = "{0, 12}";
type = Stem;
},
{
origin = "{0, 18}";
target = "{0, 0}";
type = Stem;
}
);
layerId = "F9B50E00-60B3-4906-8473-0A03A162A9E3";
paths = (
{
closed = 1;
nodes = (
"1052 0 LINE",
"1094 300 LINE",
"679 294 LINE",
"984 554 OFFCURVE",
"1152 710 OFFCURVE",
"1182 923 CURVE SMOOTH",
"1221 1202 OFFCURVE",
"1026 1426 OFFCURVE",
"752 1426 CURVE SMOOTH",
"498 1426 OFFCURVE",
"254 1224 OFFCURVE",
"215 948 CURVE",
"513 932 LINE",
"527 1034 OFFCURVE",
"633 1126 OFFCURVE",
"743 1126 CURVE SMOOTH",
"837 1126 OFFCURVE",
"900 1050 OFFCURVE",
"886 957 CURVE SMOOTH",
"862 780 OFFCURVE",
"313 388 OFFCURVE",
"111 272 CURVE",
"80 0 LINE"
);
}
);
width = 1172;
},
{
hints = (
{
horizontal = 1;
origin = "{0, 22}";
target = "{0, 2}";
type = Stem;
},
{
horizontal = 1;
origin = "{0, 15}";
target = "{0, 8}";
type = Stem;
},
{
origin = "{0, 11}";
target = "{0, 12}";
type = Stem;
},
{
origin = "{0, 18}";
target = "{0, 5}";
type = Stem;
}
);
layerId = "81C5C66F-25B8-499A-A0AB-712FDA102FD8";
paths = (
{
closed = 1;
nodes = (
"928 0 LINE",
"936 60 LINE",
"188 59 LINE",
"499 313 OFFCURVE",
"1005 778 OFFCURVE",
"1040 1023 CURVE SMOOTH",
"1071 1244 OFFCURVE",
"917 1426 OFFCURVE",
"697 1426 CURVE SMOOTH",
"479 1426 OFFCURVE",
"277 1248 OFFCURVE",
"246 1028 CURVE",
"306 1024 LINE",
"332 1210 OFFCURVE",
"508 1366 OFFCURVE",
"695 1366 CURVE SMOOTH",
"880 1366 OFFCURVE",
"1007 1214 OFFCURVE",
"981 1029 CURVE SMOOTH",
"946 784 OFFCURVE",
"451 373 OFFCURVE",
"86 53 CURVE",
"80 0 LINE"
);
}
);
width = 1048;
}
);
leftKerningGroup = two;
rightKerningGroup = two;
unicode = 0032;
},
{
glyphname = three;
lastChange = "2020-02-03 19:54:53 +0000";
layers = (
{
hints = (
{
horizontal = 1;
origin = "{0, 38}";
target = "{0, 31}";
type = Stem;
},
{
horizontal = 1;
origin = "{0, 25}";
target = "{0, 24}";
type = Stem;
},
{
horizontal = 1;
origin = "{0, 18}";
target = "{0, 11}";
type = Stem;
},
{
origin = "{0, 35}";
target = "{0, 34}";
type = Stem;
},
{
origin = "{0, 28}";
target = "{0, 2}";
type = Stem;
},
{
origin = "{0, 14}";
target = "{0, 15}";
type = Stem;
},
{
origin = "{0, 21}";
target = "{0, 8}";
type = Stem;
}
);
layerId = "10BC12B3-5274-42E3-B5BC-F74F362F0DF4";
paths = (
{
closed = 1;
nodes = (
"776 -26 OFFCURVE",
"984 182 OFFCURVE",
"984 436 CURVE SMOOTH",
"984 556 OFFCURVE",
"930 704 OFFCURVE",
"826 744 CURVE",
"906 786 OFFCURVE",
"946 902 OFFCURVE",
"946 996 CURVE SMOOTH",
"946 1236 OFFCURVE",
"746 1428 OFFCURVE",
"512 1428 CURVE SMOOTH",
"274 1428 OFFCURVE",
"60 1234 OFFCURVE",
"60 996 CURVE",
"360 996 LINE",
"360 1068 OFFCURVE",
"442 1128 OFFCURVE",
"516 1128 CURVE SMOOTH",
"588 1128 OFFCURVE",
"646 1068 OFFCURVE",
"646 996 CURVE SMOOTH",
"646 896 OFFCURVE",
"556 846 OFFCURVE",
"410 846 CURVE",
"410 618 LINE",
"576 618 OFFCURVE",
"684 558 OFFCURVE",
"684 436 CURVE SMOOTH",
"684 348 OFFCURVE",
"610 274 OFFCURVE",
"522 274 CURVE SMOOTH",
"434 274 OFFCURVE",
"360 348 OFFCURVE",
"360 436 CURVE",
"60 436 LINE",
"60 180 OFFCURVE",
"270 -26 OFFCURVE",
"522 -26 CURVE SMOOTH"
);
}
);
width = 1044;
},
{
background = {
paths = (
{
closed = 1;
nodes = (
"908 708 OFFCURVE",
"822 746 CURVE",
"906 804 OFFCURVE",
"942 902 OFFCURVE",
"942 1000 CURVE",
"942 1248 OFFCURVE",
"742 1424 OFFCURVE",
"498 1424 CURVE",
"252 1424 OFFCURVE",
"54 1246 OFFCURVE",
"54 1000 CURVE",
"354 1000 LINE",
"354 1080 OFFCURVE",
"418 1144 OFFCURVE",
"498 1144 CURVE",
"576 1144 OFFCURVE",
"642 1080 OFFCURVE",
"642 1000 CURVE",
"642 936 OFFCURVE",
"568 830 OFFCURVE",
"390 830 CURVE",
"390 648 LINE",
"618 648 OFFCURVE",
"678 530 OFFCURVE",
"678 446 CURVE",
"678 352 OFFCURVE",
"600 274 OFFCURVE",
"504 274 CURVE",
"410 274 OFFCURVE",
"332 352 OFFCURVE",
"332 446 CURVE",
"32 446 LINE",
"32 184 OFFCURVE",
"244 -26 OFFCURVE",
"504 -26 CURVE",
"764 -26 OFFCURVE",
"978 186 OFFCURVE",
"978 446 CURVE",
"978 560 OFFCURVE"
);
}
);
};
layerId = "9AF1F7D9-E035-453E-B2A8-46DE370997D0";
paths = (
{
closed = 1;
nodes = (
"694 -26 OFFCURVE",
"892 152 OFFCURVE",
"892 370 CURVE SMOOTH",
"892 546 OFFCURVE",
"796 678 OFFCURVE",
"614 738 CURVE",
"754 784 OFFCURVE",
"848 906 OFFCURVE",
"848 1066 CURVE SMOOTH",
"848 1264 OFFCURVE",
"666 1426 OFFCURVE",
"468 1426 CURVE SMOOTH",
"268 1426 OFFCURVE",
"86 1264 OFFCURVE",
"86 1066 CURVE",
"146 1066 LINE",
"146 1230 OFFCURVE",
"302 1366 OFFCURVE",
"468 1366 CURVE SMOOTH",
"632 1366 OFFCURVE",
"788 1230 OFFCURVE",
"788 1066 CURVE SMOOTH",
"788 870 OFFCURVE",
"636 766 OFFCURVE",
"412 766 CURVE",
"412 706 LINE",
"652 706 OFFCURVE",
"832 594 OFFCURVE",
"832 370 CURVE SMOOTH",
"832 184 OFFCURVE",
"660 34 OFFCURVE",
"476 34 CURVE SMOOTH",
"250 34 OFFCURVE",
"120 184 OFFCURVE",
"120 370 CURVE",
"60 370 LINE",
"60 152 OFFCURVE",
"218 -26 OFFCURVE",
"476 -26 CURVE SMOOTH"
);
}
);
width = 952;
},
{
hints = (
{
horizontal = 1;
origin = "{0, 38}";
target = "{0, 31}";
type = Stem;
},
{
horizontal = 1;
origin = "{0, 25}";
target = "{0, 24}";
type = Stem;
},
{
horizontal = 1;
origin = "{0, 18}";
target = "{0, 11}";
type = Stem;
},
{
origin = "{0, 35}";
target = "{0, 34}";
type = Stem;
},
{
origin = "{0, 28}";
target = "{0, 2}";
type = Stem;
},
{
origin = "{0, 14}";
target = "{0, 15}";
type = Stem;
},
{
origin = "{0, 21}";
target = "{0, 8}";
type = Stem;
}
);
layerId = "F9B50E00-60B3-4906-8473-0A03A162A9E3";
paths = (
{
closed = 1;
nodes = (
"781 -26 OFFCURVE",
"1008 174 OFFCURVE",
"1043 419 CURVE SMOOTH",
"1061 548 OFFCURVE",
"1021 701 OFFCURVE",
"929 737 CURVE",
"1023 782 OFFCURVE",
"1072 894 OFFCURVE",
"1084 979 CURVE SMOOTH",
"1119 1228 OFFCURVE",
"938 1428 OFFCURVE",
"696 1428 CURVE SMOOTH",
"466 1428 OFFCURVE",
"235 1242 OFFCURVE",
"201 1004 CURVE",
"499 988 LINE",
"509 1060 OFFCURVE",
"609 1128 OFFCURVE",
"691 1128 CURVE SMOOTH",
"755 1128 OFFCURVE",
"797 1076 OFFCURVE",
"788 1013 CURVE SMOOTH",
"773 904 OFFCURVE",
"667 846 OFFCURVE",
"521 846 CURVE",
"506 618 LINE",
"671 618 OFFCURVE",
"764 566 OFFCURVE",
"748 453 CURVE SMOOTH",
"734 356 OFFCURVE",
"640 274 OFFCURVE",
"544 274 CURVE SMOOTH",
"464 274 OFFCURVE",
"408 340 OFFCURVE",
"420 428 CURVE",
"122 444 LINE",
"86 188 OFFCURVE",
"275 -26 OFFCURVE",
"535 -26 CURVE SMOOTH"
);
}
);
width = 1044;
},
{
background = {
paths = (
{
closed = 1;
nodes = (
"908 708 OFFCURVE",
"822 746 CURVE",
"906 804 OFFCURVE",
"942 902 OFFCURVE",
"942 1000 CURVE",
"942 1248 OFFCURVE",
"742 1424 OFFCURVE",
"498 1424 CURVE",
"252 1424 OFFCURVE",
"54 1246 OFFCURVE",
"54 1000 CURVE",
"354 1000 LINE",
"354 1080 OFFCURVE",
"418 1144 OFFCURVE",
"498 1144 CURVE",
"576 1144 OFFCURVE",
"642 1080 OFFCURVE",
"642 1000 CURVE",
"642 936 OFFCURVE",
"568 830 OFFCURVE",
"390 830 CURVE",
"390 648 LINE",
"618 648 OFFCURVE",
"678 530 OFFCURVE",
"678 446 CURVE",
"678 352 OFFCURVE",
"600 274 OFFCURVE",
"504 274 CURVE",
"410 274 OFFCURVE",
"332 352 OFFCURVE",
"332 446 CURVE",
"32 446 LINE",
"32 184 OFFCURVE",
"244 -26 OFFCURVE",
"504 -26 CURVE",
"764 -26 OFFCURVE",
"978 186 OFFCURVE",
"978 446 CURVE",
"978 560 OFFCURVE"
);
}
);
};
layerId = "81C5C66F-25B8-499A-A0AB-712FDA102FD8";
paths = (
{
closed = 1;
nodes = (
"692 -26 OFFCURVE",
"913 150 OFFCURVE",
"944 367 CURVE SMOOTH",
"968 544 OFFCURVE",
"890 677 OFFCURVE",
"718 737 CURVE",
"866 783 OFFCURVE",
"975 904 OFFCURVE",
"997 1063 CURVE SMOOTH",
"1025 1262 OFFCURVE",
"865 1426 OFFCURVE",
"665 1426 CURVE SMOOTH",
"467 1426 OFFCURVE",
"264 1266 OFFCURVE",
"236 1068 CURVE",
"296 1064 LINE",
"319 1228 OFFCURVE",
"496 1366 OFFCURVE",
"663 1366 CURVE SMOOTH",
"826 1366 OFFCURVE",
"961 1232 OFFCURVE",
"938 1069 CURVE SMOOTH",
"911 872 OFFCURVE",
"742 766 OFFCURVE",
"518 766 CURVE",
"513 706 LINE",
"753 706 OFFCURVE",
"916 596 OFFCURVE",
"884 373 CURVE SMOOTH",
"858 186 OFFCURVE",
"663 34 OFFCURVE",
"477 34 CURVE SMOOTH",
"253 34 OFFCURVE",
"146 182 OFFCURVE",
"172 368 CURVE",
"112 372 LINE",
"82 154 OFFCURVE",
"216 -26 OFFCURVE",
"476 -26 CURVE SMOOTH"
);
}
);
width = 952;
}
);
leftKerningGroup = three;
rightKerningGroup = three;
unicode = 0033;
},
{
glyphname = four;
lastChange = "2020-02-03 19:54:53 +0000";
layers = (
{
layerId = "10BC12B3-5274-42E3-B5BC-F74F362F0DF4";
paths = (
{
closed = 1;
nodes = (
"972 0 LINE",
"972 310 LINE",
"1074 310 LINE",
"1074 610 LINE",
"972 610 LINE",
"972 1400 LINE",
"604 1400 LINE",
"80 610 LINE",
"80 310 LINE",
"672 310 LINE",
"672 0 LINE"
);
},
{
closed = 1;
nodes = (
"672 996 LINE",
"672 610 LINE",
"426 610 LINE"
);
}
);
width = 1194;
},
{
layerId = "9AF1F7D9-E035-453E-B2A8-46DE370997D0";
paths = (
{
closed = 1;
nodes = (
"750 0 LINE",
"750 434 LINE",
"920 434 LINE",
"920 494 LINE",
"750 494 LINE",
"750 1400 LINE",
"670 1400 LINE",
"80 498 LINE",
"80 434 LINE",
"690 434 LINE",
"690 0 LINE"
);
},
{
closed = 1;
nodes = (
"686 1302 LINE",
"690 494 LINE",
"156 498 LINE"
);
}
);
width = 1040;
},
{
layerId = "F9B50E00-60B3-4906-8473-0A03A162A9E3";
paths = (
{
closed = 1;
nodes = (
"972 0 LINE",
"1016 310 LINE",
"1118 310 LINE",
"1160 610 LINE",
"1058 610 LINE",
"1169 1400 LINE",
"798 1400 LINE",
"163 610 LINE",
"124 310 LINE",
"716 310 LINE",
"672 0 LINE"
);
},
{
closed = 1;
nodes = (
"815 996 LINE",
"758 610 LINE",
"515 610 LINE"
);
}
);
width = 1194;
},
{
layerId = "81C5C66F-25B8-499A-A0AB-712FDA102FD8";
paths = (
{
closed = 1;
nodes = (
"750 0 LINE",
"811 434 LINE",
"981 434 LINE",
"989 494 LINE",
"819 494 LINE",
"947 1400 LINE",
"866 1400 LINE",
"149 498 LINE",
"141 434 LINE",
"751 434 LINE",
"690 0 LINE"
);
},
{
closed = 1;
nodes = (
"870 1302 LINE",
"759 494 LINE",
"227 498 LINE"
);
}
);
width = 1040;
}
);
leftKerningGroup = four;
rightKerningGroup = four;
unicode = 0034;
},
{
glyphname = five;
lastChange = "2020-02-03 19:54:53 +0000";
layers = (
{
layerId = "10BC12B3-5274-42E3-B5BC-F74F362F0DF4";
paths = (
{
closed = 1;
nodes = (
"834 -26 OFFCURVE",
"1052 196 OFFCURVE",
"1052 464 CURVE SMOOTH",
"1052 732 OFFCURVE",
"852 946 OFFCURVE",
"568 958 CURVE",
"504 960 LINE",
"534 1100 LINE",
"996 1100 LINE",
"996 1400 LINE",
"290 1400 LINE",
"134 660 LINE",
"504 660 LINE SMOOTH",
"704 660 OFFCURVE",
"752 570 OFFCURVE",
"752 464 CURVE SMOOTH",
"752 358 OFFCURVE",
"666 274 OFFCURVE",
"562 274 CURVE SMOOTH",
"456 274 OFFCURVE",
"370 358 OFFCURVE",
"370 464 CURVE",
"70 464 LINE",
"70 200 OFFCURVE",
"284 -26 OFFCURVE",
"562 -26 CURVE SMOOTH"
);
}
);
width = 1172;
},
{
layerId = "9AF1F7D9-E035-453E-B2A8-46DE370997D0";
paths = (
{
closed = 1;
nodes = (
"754 -26 OFFCURVE",
"954 172 OFFCURVE",
"954 416 CURVE SMOOTH",
"954 682 OFFCURVE",
"758 858 OFFCURVE",
"472 858 CURVE SMOOTH",
"260 858 LINE",
"354 1340 LINE",
"936 1340 LINE",
"936 1400 LINE",
"306 1400 LINE",
"186 798 LINE",
"512 798 LINE SMOOTH",
"722 798 OFFCURVE",
"894 626 OFFCURVE",
"894 416 CURVE SMOOTH",
"894 206 OFFCURVE",
"722 34 OFFCURVE",
"512 34 CURVE SMOOTH",
"300 34 OFFCURVE",
"130 206 OFFCURVE",
"130 416 CURVE",
"70 416 LINE",
"70 172 OFFCURVE",
"266 -26 OFFCURVE",
"512 -26 CURVE SMOOTH"
);
}
);
width = 1074;
},
{
layerId = "F9B50E00-60B3-4906-8473-0A03A162A9E3";
paths = (
{
closed = 1;
nodes = (
"839 -26 OFFCURVE",
"1078 188 OFFCURVE",
"1115 447 CURVE SMOOTH",
"1154 724 OFFCURVE",
"977 946 OFFCURVE",
"694 958 CURVE",
"641 960 LINE",
"690 1100 LINE",
"1151 1100 LINE",
"1193 1400 LINE",
"485 1400 LINE",
"225 660 LINE",
"605 660 LINE SMOOTH",
"805 660 OFFCURVE",
"833 578 OFFCURVE",
"820 481 CURVE SMOOTH",
"803 366 OFFCURVE",
"696 274 OFFCURVE",
"584 274 CURVE SMOOTH",
"486 274 OFFCURVE",
"419 350 OFFCURVE",
"434 456 CURVE",
"136 472 LINE",
"99 208 OFFCURVE",
"289 -26 OFFCURVE",
"575 -26 CURVE SMOOTH"
);
}
);
width = 1172;
},
{
layerId = "81C5C66F-25B8-499A-A0AB-712FDA102FD8";
paths = (
{
closed = 1;
nodes = (
"752 -26 OFFCURVE",
"978 170 OFFCURVE",
"1012 413 CURVE SMOOTH",
"1050 680 OFFCURVE",
"877 858 OFFCURVE",
"591 858 CURVE SMOOTH",
"381 858 LINE",
"543 1340 LINE",
"1124 1340 LINE",
"1133 1400 LINE",
"502 1400 LINE",
"298 798 LINE",
"626 798 LINE SMOOTH",
"836 798 OFFCURVE",
"982 628 OFFCURVE",
"953 419 CURVE SMOOTH",
"923 208 OFFCURVE",
"725 34 OFFCURVE",
"513 34 CURVE SMOOTH",
"303 34 OFFCURVE",
"159 204 OFFCURVE",
"188 414 CURVE",
"129 418 LINE",
"94 174 OFFCURVE",
"264 -26 OFFCURVE",
"512 -26 CURVE SMOOTH"
);
}
);
width = 1074;
}
);
leftKerningGroup = five;
rightKerningGroup = five;
unicode = 0035;
},
{
glyphname = six;
lastChange = "2020-02-03 19:54:53 +0000";
layers = (
{
layerId = "10BC12B3-5274-42E3-B5BC-F74F362F0DF4";
paths = (
{
closed = 1;
nodes = (
"826 -26 OFFCURVE",
"1050 200 OFFCURVE",
"1050 474 CURVE SMOOTH",
"1050 730 OFFCURVE",
"860 942 OFFCURVE",
"606 972 CURVE",
"854 1400 LINE",
"506 1400 LINE",
"116 724 LINE SMOOTH",
"70 646 OFFCURVE",
"50 560 OFFCURVE",
"50 474 CURVE SMOOTH",
"50 198 OFFCURVE",
"276 -26 OFFCURVE",
"548 -26 CURVE SMOOTH"
);
},
{
closed = 1;
nodes = (
"446 274 OFFCURVE",
"350 358 OFFCURVE",
"350 472 CURVE SMOOTH",
"350 576 OFFCURVE",
"430 674 OFFCURVE",
"550 674 CURVE SMOOTH",
"664 674 OFFCURVE",
"750 582 OFFCURVE",
"750 472 CURVE SMOOTH",
"750 372 OFFCURVE",
"664 274 OFFCURVE",
"548 274 CURVE SMOOTH"
);
}
);
width = 1110;
},
{
layerId = "9AF1F7D9-E035-453E-B2A8-46DE370997D0";
paths = (
{
closed = 1;
nodes = (
"786 -26 OFFCURVE",
"1000 188 OFFCURVE",
"1000 450 CURVE SMOOTH",
"1000 820 OFFCURVE",
"594 1044 OFFCURVE",
"282 858 CURVE",
"594 1400 LINE",
"524 1400 LINE",
"124 704 LINE",
"76 610 OFFCURVE",
"50 560 OFFCURVE",
"50 450 CURVE SMOOTH",
"50 188 OFFCURVE",
"264 -26 OFFCURVE",
"524 -26 CURVE SMOOTH"
);
},
{
closed = 1;
nodes = (
"302 34 OFFCURVE",
"110 216 OFFCURVE",
"110 452 CURVE SMOOTH",
"110 672 OFFCURVE",
"290 864 OFFCURVE",
"526 864 CURVE SMOOTH",
"754 864 OFFCURVE",
"940 680 OFFCURVE",
"940 452 CURVE SMOOTH",
"940 232 OFFCURVE",
"766 34 OFFCURVE",
"524 34 CURVE SMOOTH"
);
}
);
width = 1060;
},
{
layerId = "F9B50E00-60B3-4906-8473-0A03A162A9E3";
paths = (
{
closed = 1;
nodes = (
"831 -26 OFFCURVE",
"1077 192 OFFCURVE",
"1114 457 CURVE SMOOTH",
"1151 722 OFFCURVE",
"984 941 OFFCURVE",
"734 971 CURVE",
"1054 1400 LINE",
"700 1400 LINE",
"212 731 LINE SMOOTH",
"158 653 OFFCURVE",
"130 568 OFFCURVE",
"119 491 CURVE SMOOTH",
"79 206 OFFCURVE",
"281 -26 OFFCURVE",
"561 -26 CURVE SMOOTH"
);
},
{
closed = 1;
nodes = (
"476 274 OFFCURVE",
"399 350 OFFCURVE",
"414 455 CURVE SMOOTH",
"430 568 OFFCURVE",
"533 674 OFFCURVE",
"661 674 CURVE SMOOTH",
"767 674 OFFCURVE",
"833 590 OFFCURVE",
"819 489 CURVE SMOOTH",
"803 380 OFFCURVE",
"694 274 OFFCURVE",
"570 274 CURVE SMOOTH"
);
}
);
width = 1110;
},
{
layerId = "81C5C66F-25B8-499A-A0AB-712FDA102FD8";
paths = (
{
closed = 1;
nodes = (
"784 -26 OFFCURVE",
"1026 186 OFFCURVE",
"1063 447 CURVE SMOOTH",
"1115 818 OFFCURVE",
"739 1045 OFFCURVE",
"401 859 CURVE",
"791 1400 LINE",
"720 1400 LINE",
"222 705 LINE",
"161 611 OFFCURVE",
"129 562 OFFCURVE",
"114 453 CURVE SMOOTH",
"77 190 OFFCURVE",
"262 -26 OFFCURVE",
"524 -26 CURVE SMOOTH"
);
},
{
closed = 1;
nodes = (
"305 34 OFFCURVE",
"140 214 OFFCURVE",
"173 449 CURVE SMOOTH",
"204 670 OFFCURVE",
"413 864 OFFCURVE",
"651 864 CURVE SMOOTH",
"877 864 OFFCURVE",
"1036 682 OFFCURVE",
"1004 455 CURVE SMOOTH",
"973 234 OFFCURVE",
"769 34 OFFCURVE",
"525 34 CURVE SMOOTH"
);
}
);
width = 1060;
}
);
leftKerningGroup = six;
rightKerningGroup = six;
unicode = 0036;
},
{
glyphname = seven;
lastChange = "2020-02-03 19:54:53 +0000";
layers = (
{
layerId = "10BC12B3-5274-42E3-B5BC-F74F362F0DF4";
paths = (
{
closed = 1;
nodes = (
"440 0 LINE",
"1076 1100 LINE",
"1076 1400 LINE",
"40 1400 LINE",
"40 1100 LINE",
"728 1100 LINE",
"94 0 LINE"
);
}
);
width = 1116;
},
{
layerId = "9AF1F7D9-E035-453E-B2A8-46DE370997D0";
paths = (
{
closed = 1;
nodes = (
"232 0 LINE",
"1006 1340 LINE",
"1006 1400 LINE",
"40 1400 LINE",
"40 1340 LINE",
"936 1340 LINE",
"164 0 LINE"
);
}
);
width = 1046;
},
{
layerId = "F9B50E00-60B3-4906-8473-0A03A162A9E3";
paths = (
{
closed = 1;
nodes = (
"443 0 LINE",
"1234 1100 LINE",
"1273 1400 LINE",
"237 1400 LINE",
"195 1100 LINE",
"879 1100 LINE",
"91 0 LINE"
);
}
);
width = 1116;
},
{
layerId = "81C5C66F-25B8-499A-A0AB-712FDA102FD8";
paths = (
{
closed = 1;
nodes = (
"233 0 LINE",
"1195 1340 LINE",
"1203 1400 LINE",
"237 1400 LINE",
"228 1340 LINE",
"1124 1340 LINE",
"163 0 LINE"
);
}
);
width = 1046;
}
);
leftKerningGroup = seven;
rightKerningGroup = seven;
unicode = 0037;
},
{
glyphname = eight;
lastChange = "2020-02-03 19:54:53 +0000";
layers = (
{
layerId = "10BC12B3-5274-42E3-B5BC-F74F362F0DF4";
paths = (
{
closed = 1;
nodes = (
"818 -26 OFFCURVE",
"1030 176 OFFCURVE",
"1030 426 CURVE SMOOTH",
"1030 542 OFFCURVE",
"984 652 OFFCURVE",
"900 736 CURVE",
"962 810 OFFCURVE",
"1000 902 OFFCURVE",
"1000 1002 CURVE SMOOTH",
"1000 1236 OFFCURVE",
"800 1426 OFFCURVE",
"554 1426 CURVE SMOOTH",
"308 1426 OFFCURVE",
"108 1236 OFFCURVE",
"108 1002 CURVE SMOOTH",
"108 902 OFFCURVE",
"146 810 OFFCURVE",
"208 736 CURVE",
"126 652 OFFCURVE",
"80 542 OFFCURVE",
"80 426 CURVE SMOOTH",
"80 174 OFFCURVE",
"290 -26 OFFCURVE",
"554 -26 CURVE SMOOTH"
);
},
{
closed = 1;
nodes = (
"466 274 OFFCURVE",
"394 342 OFFCURVE",
"394 426 CURVE SMOOTH",
"394 510 OFFCURVE",
"466 578 OFFCURVE",
"554 578 CURVE SMOOTH",
"642 578 OFFCURVE",
"714 510 OFFCURVE",
"714 426 CURVE SMOOTH",
"714 342 OFFCURVE",
"642 274 OFFCURVE",
"554 274 CURVE SMOOTH"
);
},
{
closed = 1;
nodes = (
"482 878 OFFCURVE",
"424 934 OFFCURVE",
"424 1002 CURVE SMOOTH",
"424 1070 OFFCURVE",
"482 1126 OFFCURVE",
"554 1126 CURVE SMOOTH",
"626 1126 OFFCURVE",
"684 1070 OFFCURVE",
"684 1002 CURVE SMOOTH",
"684 934 OFFCURVE",
"626 878 OFFCURVE",
"554 878 CURVE SMOOTH"
);
}
);
width = 1110;
},
{
layerId = "9AF1F7D9-E035-453E-B2A8-46DE370997D0";
paths = (
{
closed = 1;
nodes = (
"750 -26 OFFCURVE",
"944 152 OFFCURVE",
"944 370 CURVE SMOOTH",
"944 536 OFFCURVE",
"832 678 OFFCURVE",
"674 738 CURVE",
"808 794 OFFCURVE",
"906 920 OFFCURVE",
"906 1066 CURVE SMOOTH",
"906 1264 OFFCURVE",
"728 1426 OFFCURVE",
"512 1426 CURVE SMOOTH",
"296 1426 OFFCURVE",
"118 1264 OFFCURVE",
"118 1066 CURVE SMOOTH",
"118 920 OFFCURVE",
"216 794 OFFCURVE",
"350 738 CURVE",
"194 678 OFFCURVE",
"80 536 OFFCURVE",
"80 370 CURVE SMOOTH",
"80 152 OFFCURVE",
"274 -26 OFFCURVE",
"512 -26 CURVE SMOOTH"
);
},
{
closed = 1;
nodes = (
"312 34 OFFCURVE",
"146 184 OFFCURVE",
"146 370 CURVE SMOOTH",
"146 556 OFFCURVE",
"312 706 OFFCURVE",
"512 706 CURVE SMOOTH",
"716 706 OFFCURVE",
"878 556 OFFCURVE",
"878 370 CURVE SMOOTH",
"878 184 OFFCURVE",
"716 34 OFFCURVE",
"512 34 CURVE SMOOTH"
);
},
{
closed = 1;
nodes = (
"330 766 OFFCURVE",
"184 900 OFFCURVE",
"184 1066 CURVE SMOOTH",
"184 1232 OFFCURVE",
"330 1366 OFFCURVE",
"512 1366 CURVE SMOOTH",
"694 1366 OFFCURVE",
"840 1232 OFFCURVE",
"840 1066 CURVE SMOOTH",
"840 900 OFFCURVE",
"694 766 OFFCURVE",
"512 766 CURVE SMOOTH"
);
}
);
width = 1024;
},
{
layerId = "F9B50E00-60B3-4906-8473-0A03A162A9E3";
paths = (
{
closed = 1;
nodes = (
"823 -26 OFFCURVE",
"1054 168 OFFCURVE",
"1088 409 CURVE SMOOTH",
"1105 534 OFFCURVE",
"1069 646 OFFCURVE",
"1001 724 CURVE",
"1080 804 OFFCURVE",
"1126 894 OFFCURVE",
"1138 985 CURVE SMOOTH",
"1173 1228 OFFCURVE",
"992 1426 OFFCURVE",
"738 1426 CURVE SMOOTH",
"500 1426 OFFCURVE",
"283 1244 OFFCURVE",
"251 1019 CURVE SMOOTH",
"236 910 OFFCURVE",
"266 816 OFFCURVE",
"313 748 CURVE",
"213 658 OFFCURVE",
"157 550 OFFCURVE",
"142 443 CURVE SMOOTH",
"106 182 OFFCURVE",
"295 -26 OFFCURVE",
"567 -26 CURVE SMOOTH"
);
},
{
closed = 1;
nodes = (
"496 274 OFFCURVE",
"441 334 OFFCURVE",
"452 409 CURVE SMOOTH",
"464 502 OFFCURVE",
"556 578 OFFCURVE",
"652 578 CURVE SMOOTH",
"732 578 OFFCURVE",
"787 518 OFFCURVE",
"776 443 CURVE SMOOTH",
"763 350 OFFCURVE",
"672 274 OFFCURVE",
"576 274 CURVE SMOOTH"
);
},
{
closed = 1;
nodes = (
"597 878 OFFCURVE",
"554 926 OFFCURVE",
"562 985 CURVE SMOOTH",
"573 1062 OFFCURVE",
"649 1126 OFFCURVE",
"729 1126 CURVE SMOOTH",
"793 1126 OFFCURVE",
"836 1078 OFFCURVE",
"827 1019 CURVE SMOOTH",
"816 942 OFFCURVE",
"741 878 OFFCURVE",
"661 878 CURVE SMOOTH"
);
}
);
width = 1110;
},
{
layerId = "81C5C66F-25B8-499A-A0AB-712FDA102FD8";
paths = (
{
closed = 1;
nodes = (
"748 -26 OFFCURVE",
"965 150 OFFCURVE",
"996 367 CURVE SMOOTH",
"1019 534 OFFCURVE",
"926 677 OFFCURVE",
"778 737 CURVE",
"921 793 OFFCURVE",
"1035 918 OFFCURVE",
"1055 1063 CURVE SMOOTH",
"1083 1262 OFFCURVE",
"927 1426 OFFCURVE",
"709 1426 CURVE SMOOTH",
"495 1426 OFFCURVE",
"296 1266 OFFCURVE",
"268 1069 CURVE SMOOTH",
"248 922 OFFCURVE",
"329 795 OFFCURVE",
"454 739 CURVE",
"288 679 OFFCURVE",
"156 538 OFFCURVE",
"132 373 CURVE SMOOTH",
"102 154 OFFCURVE",
"272 -26 OFFCURVE",
"512 -26 CURVE SMOOTH"
);
},
{
closed = 1;
nodes = (
"315 34 OFFCURVE",
"172 182 OFFCURVE",
"198 367 CURVE SMOOTH",
"224 554 OFFCURVE",
"413 706 OFFCURVE",
"615 706 CURVE SMOOTH",
"817 706 OFFCURVE",
"956 558 OFFCURVE",
"930 373 CURVE SMOOTH",
"904 186 OFFCURVE",
"719 34 OFFCURVE",
"513 34 CURVE SMOOTH"
);
},
{
closed = 1;
nodes = (
"436 766 OFFCURVE",
"310 898 OFFCURVE",
"333 1063 CURVE SMOOTH",
"357 1230 OFFCURVE",
"524 1366 OFFCURVE",
"707 1366 CURVE SMOOTH",
"888 1366 OFFCURVE",
"1013 1234 OFFCURVE",
"990 1069 CURVE SMOOTH",
"967 902 OFFCURVE",
"800 766 OFFCURVE",
"616 766 CURVE SMOOTH"
);
}
);
width = 1024;
}
);
leftKerningGroup = eight;
rightKerningGroup = eight;
unicode = 0038;
},
{
glyphname = nine;
lastChange = "2020-02-03 19:54:53 +0000";
layers = (
{
layerId = "10BC12B3-5274-42E3-B5BC-F74F362F0DF4";
paths = (
{
closed = 1;
nodes = (
"604 0 LINE",
"994 676 LINE SMOOTH",
"1040 754 OFFCURVE",
"1060 840 OFFCURVE",
"1060 926 CURVE SMOOTH",
"1060 1202 OFFCURVE",
"834 1426 OFFCURVE",
"562 1426 CURVE SMOOTH",
"284 1426 OFFCURVE",
"60 1200 OFFCURVE",
"60 926 CURVE SMOOTH",
"60 670 OFFCURVE",
"250 458 OFFCURVE",
"504 428 CURVE",
"256 0 LINE"
);
},
{
closed = 1;
nodes = (
"446 726 OFFCURVE",
"360 818 OFFCURVE",
"360 928 CURVE SMOOTH",
"360 1028 OFFCURVE",
"446 1126 OFFCURVE",
"562 1126 CURVE SMOOTH",
"664 1126 OFFCURVE",
"760 1042 OFFCURVE",
"760 928 CURVE SMOOTH",
"760 824 OFFCURVE",
"680 726 OFFCURVE",
"560 726 CURVE SMOOTH"
);
}
);
width = 1120;
},
{
layerId = "9AF1F7D9-E035-453E-B2A8-46DE370997D0";
paths = (
{
closed = 1;
nodes = (
"468 0 LINE",
"888 734 LINE",
"934 824 OFFCURVE",
"960 870 OFFCURVE",
"960 974 CURVE SMOOTH",
"960 1222 OFFCURVE",
"756 1426 OFFCURVE",
"510 1426 CURVE SMOOTH",
"262 1426 OFFCURVE",
"60 1222 OFFCURVE",
"60 974 CURVE SMOOTH",
"60 624 OFFCURVE",
"444 412 OFFCURVE",
"740 588 CURVE",
"400 0 LINE"
);
},
{
closed = 1;
nodes = (
"292 582 OFFCURVE",
"116 756 OFFCURVE",
"116 972 CURVE SMOOTH",
"116 1182 OFFCURVE",
"280 1368 OFFCURVE",
"510 1368 CURVE SMOOTH",
"720 1368 OFFCURVE",
"902 1196 OFFCURVE",
"902 972 CURVE SMOOTH",
"902 764 OFFCURVE",
"732 582 OFFCURVE",
"508 582 CURVE SMOOTH"
);
}
);
width = 1020;
},
{
layerId = "F9B50E00-60B3-4906-8473-0A03A162A9E3";
paths = (
{
closed = 1;
nodes = (
"607 0 LINE",
"1095 669 LINE SMOOTH",
"1149 747 OFFCURVE",
"1177 832 OFFCURVE",
"1188 909 CURVE SMOOTH",
"1228 1194 OFFCURVE",
"1026 1426 OFFCURVE",
"746 1426 CURVE SMOOTH",
"476 1426 OFFCURVE",
"230 1208 OFFCURVE",
"192 943 CURVE SMOOTH",
"155 678 OFFCURVE",
"323 459 OFFCURVE",
"573 429 CURVE",
"253 0 LINE"
);
},
{
closed = 1;
nodes = (
"540 726 OFFCURVE",
"474 810 OFFCURVE",
"488 911 CURVE SMOOTH",
"503 1020 OFFCURVE",
"613 1126 OFFCURVE",
"737 1126 CURVE SMOOTH",
"831 1126 OFFCURVE",
"908 1050 OFFCURVE",
"893 945 CURVE SMOOTH",
"877 832 OFFCURVE",
"774 726 OFFCURVE",
"645 726 CURVE SMOOTH"
);
}
);
width = 1120;
},
{
layerId = "81C5C66F-25B8-499A-A0AB-712FDA102FD8";
paths = (
{
closed = 1;
nodes = (
"469 0 LINE",
"992 733 LINE",
"1050 823 OFFCURVE",
"1082 868 OFFCURVE",
"1096 971 CURVE SMOOTH",
"1132 1220 OFFCURVE",
"955 1426 OFFCURVE",
"707 1426 CURVE SMOOTH",
"461 1426 OFFCURVE",
"232 1224 OFFCURVE",
"197 977 CURVE SMOOTH",
"148 626 OFFCURVE",
"503 411 OFFCURVE",
"824 587 CURVE",
"399 0 LINE"
);
},
{
closed = 1;
nodes = (
"372 582 OFFCURVE",
"222 754 OFFCURVE",
"252 969 CURVE SMOOTH",
"282 1180 OFFCURVE",
"474 1368 OFFCURVE",
"706 1368 CURVE SMOOTH",
"914 1368 OFFCURVE",
"1070 1198 OFFCURVE",
"1039 975 CURVE SMOOTH",
"1010 766 OFFCURVE",
"812 582 OFFCURVE",
"586 582 CURVE SMOOTH"
);
}
);
width = 1020;
}
);
leftKerningGroup = nine;
rightKerningGroup = nine;
unicode = 0039;
},
{
glyphname = zeroinferior;
lastChange = "2020-02-04 03:08:18 +0000";
layers = (
{
layerId = "10BC12B3-5274-42E3-B5BC-F74F362F0DF4";
paths = (
{
closed = 1;
nodes = (
"463 -31 OFFCURVE",
"576 125 OFFCURVE",
"576 317 CURVE",
"576 506 OFFCURVE",
"463 662 OFFCURVE",
"324 662 CURVE",
"185 662 OFFCURVE",
"72 506 OFFCURVE",
"72 317 CURVE",
"72 125 OFFCURVE",
"185 -31 OFFCURVE",
"324 -31 CURVE"
);
},
{
closed = 1;
nodes = (
"269 137 OFFCURVE",
"240 238 OFFCURVE",
"240 317 CURVE",
"240 386 OFFCURVE",
"264 494 OFFCURVE",
"324 494 CURVE",
"377 494 OFFCURVE",
"408 391 OFFCURVE",
"408 317 CURVE",
"408 252 OFFCURVE",
"379 137 OFFCURVE",
"324 137 CURVE"
);
}
);
width = 648;
},
{
layerId = "9AF1F7D9-E035-453E-B2A8-46DE370997D0";
paths = (
{
closed = 1;
nodes = (
"463 -31 OFFCURVE",
"576 109 OFFCURVE",
"576 301 CURVE",
"576 493 OFFCURVE",
"463 636 OFFCURVE",
"324 636 CURVE",
"185 636 OFFCURVE",
"72 493 OFFCURVE",
"72 301 CURVE",
"72 109 OFFCURVE",
"185 -31 OFFCURVE",
"324 -31 CURVE"
);
},
{
closed = 1;
nodes = (
"218 41 OFFCURVE",
"144 167 OFFCURVE",
"144 301 CURVE",
"144 431 OFFCURVE",
"214 564 OFFCURVE",
"324 564 CURVE",
"430 564 OFFCURVE",
"504 438 OFFCURVE",
"504 301 CURVE",
"504 174 OFFCURVE",
"434 41 OFFCURVE",
"324 41 CURVE"
);
}
);
width = 648;
},
{
layerId = "F9B50E00-60B3-4906-8473-0A03A162A9E3";
paths = (
{
closed = 1;
nodes = (
"467 -31 OFFCURVE",
"592 117 OFFCURVE",
"618 300 CURVE",
"646 498 OFFCURVE",
"548 662 OFFCURVE",
"400 662 CURVE",
"270 662 OFFCURVE",
"144 514 OFFCURVE",
"119 334 CURVE",
"91 133 OFFCURVE",
"189 -31 OFFCURVE",
"336 -31 CURVE"
);
},
{
closed = 1;
nodes = (
"280 137 OFFCURVE",
"272 230 OFFCURVE",
"282 300 CURVE",
"293 378 OFFCURVE",
"342 494 OFFCURVE",
"410 494 CURVE",
"455 494 OFFCURVE",
"464 399 OFFCURVE",
"455 334 CURVE",
"445 260 OFFCURVE",
"390 137 OFFCURVE",
"326 137 CURVE"
);
}
);
width = 648;
},
{
layerId = "81C5C66F-25B8-499A-A0AB-712FDA102FD8";
paths = (
{
closed = 1;
nodes = (
"460 -31 OFFCURVE",
"591 107 OFFCURVE",
"618 298 CURVE",
"645 491 OFFCURVE",
"551 636 OFFCURVE",
"410 636 CURVE",
"273 636 OFFCURVE",
"142 495 OFFCURVE",
"115 304 CURVE",
"88 111 OFFCURVE",
"182 -31 OFFCURVE",
"323 -31 CURVE"
);
},
{
closed = 1;
nodes = (
"222 41 OFFCURVE",
"167 165 OFFCURVE",
"186 298 CURVE",
"204 429 OFFCURVE",
"295 564 OFFCURVE",
"407 564 CURVE",
"511 564 OFFCURVE",
"566 440 OFFCURVE",
"547 304 CURVE",
"529 176 OFFCURVE",
"438 41 OFFCURVE",
"326 41 CURVE"
);
}
);
width = 648;
}
);
leftKerningGroup = zero.dnom;
rightKerningGroup = zero.dnom;
unicode = 2080;
},
{
glyphname = oneinferior;
lastChange = "2020-02-04 03:08:24 +0000";
layers = (
{
layerId = "10BC12B3-5274-42E3-B5BC-F74F362F0DF4";
paths = (
{
closed = 1;
nodes = (
"322 0 LINE",
"322 631 LINE",
"120 631 LINE",
"96 463 LINE",
"154 463 LINE",
"154 0 LINE"
);
}
);
width = 466;
},
{
layerId = "9AF1F7D9-E035-453E-B2A8-46DE370997D0";
paths = (
{
closed = 1;
nodes = (
"257 0 LINE",
"257 631 LINE",
"106 631 LINE",
"96 559 LINE",
"185 559 LINE",
"185 0 LINE"
);
}
);
width = 401;
},
{
layerId = "F9B50E00-60B3-4906-8473-0A03A162A9E3";
paths = (
{
closed = 1;
nodes = (
"322 0 LINE",
"411 631 LINE",
"208 631 LINE",
"160 463 LINE",
"219 463 LINE",
"154 0 LINE"
);
}
);
width = 466;
},
{
layerId = "81C5C66F-25B8-499A-A0AB-712FDA102FD8";
paths = (
{
closed = 1;
nodes = (
"257 0 LINE",
"346 631 LINE",
"194 631 LINE",
"174 559 LINE",
"264 559 LINE",
"185 0 LINE"
);
}
);
width = 401;
}
);
leftKerningGroup = one.dnom;
rightKerningGroup = one.dnom;
unicode = 2081;
},
{
glyphname = twoinferior;
lastChange = "2020-02-04 03:08:31 +0000";
layers = (
{
layerId = "10BC12B3-5274-42E3-B5BC-F74F362F0DF4";
paths = (
{
closed = 1;
nodes = (
"571 0 LINE",
"571 168 LINE",
"403 168 LINE",
"490 245 OFFCURVE",
"583 314 OFFCURVE",
"583 418 CURVE",
"583 552 OFFCURVE",
"475 662 OFFCURVE",
"341 662 CURVE",
"206 662 OFFCURVE",
"96 552 OFFCURVE",
"96 418 CURVE",
"264 418 LINE",
"264 461 OFFCURVE",
"298 494 OFFCURVE",
"341 494 CURVE",
"382 494 OFFCURVE",
"415 461 OFFCURVE",
"415 418 CURVE",
"343 281 OFFCURVE",
"211 226 OFFCURVE",
"96 146 CURVE",
"96 0 LINE"
);
}
);
width = 727;
},
{
layerId = "9AF1F7D9-E035-453E-B2A8-46DE370997D0";
paths = (
{
closed = 1;
nodes = (
"526 0 LINE",
"526 72 LINE",
"218 72 LINE",
"341 156 OFFCURVE",
"526 326 OFFCURVE",
"526 446 CURVE SMOOTH",
"526 564 OFFCURVE",
"430 650 OFFCURVE",
"312 650 CURVE SMOOTH",
"192 650 OFFCURVE",
"96 564 OFFCURVE",
"96 446 CURVE",
"168 446 LINE",
"168 526 OFFCURVE",
"233 578 OFFCURVE",
"312 578 CURVE SMOOTH",
"391 578 OFFCURVE",
"454 526 OFFCURVE",
"454 446 CURVE SMOOTH",
"454 331 OFFCURVE",
"194 139 OFFCURVE",
"96 74 CURVE",
"96 0 LINE"
);
}
);
width = 670;
},
{
layerId = "F9B50E00-60B3-4906-8473-0A03A162A9E3";
paths = (
{
closed = 1;
nodes = (
"571 0 LINE",
"595 168 LINE",
"432 162 LINE",
"530 239 OFFCURVE",
"626 306 OFFCURVE",
"639 401 CURVE",
"659 544 OFFCURVE",
"560 662 OFFCURVE",
"417 662 CURVE",
"291 662 OFFCURVE",
"175 560 OFFCURVE",
"156 426 CURVE",
"322 410 LINE",
"328 453 OFFCURVE",
"376 494 OFFCURVE",
"427 494 CURVE",
"460 494 OFFCURVE",
"481 469 OFFCURVE",
"472 434 CURVE",
"380 289 OFFCURVE",
"237 231 OFFCURVE",
"110 151 CURVE",
"96 0 LINE"
);
}
);
width = 727;
},
{
layerId = "81C5C66F-25B8-499A-A0AB-712FDA102FD8";
paths = (
{
closed = 1;
nodes = (
"526 0 LINE",
"536 72 LINE",
"229 71 LINE",
"364 155 OFFCURVE",
"572 324 OFFCURVE",
"588 443 CURVE SMOOTH",
"605 562 OFFCURVE",
"520 650 OFFCURVE",
"400 650 CURVE SMOOTH",
"282 650 OFFCURVE",
"176 566 OFFCURVE",
"159 448 CURVE",
"230 444 LINE",
"242 524 OFFCURVE",
"316 578 OFFCURVE",
"397 578 CURVE SMOOTH",
"474 578 OFFCURVE",
"528 528 OFFCURVE",
"517 449 CURVE SMOOTH",
"501 333 OFFCURVE",
"212 140 OFFCURVE",
"105 75 CURVE",
"96 0 LINE"
);
}
);
width = 670;
}
);
leftKerningGroup = two.dnom;
rightKerningGroup = two.dnom;
unicode = 2082;
},
{
glyphname = threeinferior;
lastChange = "2020-02-04 03:08:37 +0000";
layers = (
{
layerId = "10BC12B3-5274-42E3-B5BC-F74F362F0DF4";
paths = (
{
closed = 1;
nodes = (
"415 -31 OFFCURVE",
"516 70 OFFCURVE",
"516 192 CURVE SMOOTH",
"516 242 OFFCURVE",
"499 295 OFFCURVE",
"463 334 CURVE",
"487 370 OFFCURVE",
"499 410 OFFCURVE",
"499 454 CURVE SMOOTH",
"499 569 OFFCURVE",
"406 662 OFFCURVE",
"290 662 CURVE SMOOTH",
"175 662 OFFCURVE",
"82 569 OFFCURVE",
"82 454 CURVE",
"250 454 LINE",
"250 475 OFFCURVE",
"269 494 OFFCURVE",
"290 494 CURVE SMOOTH",
"312 494 OFFCURVE",
"331 475 OFFCURVE",
"331 454 CURVE SMOOTH",
"331 425 OFFCURVE",
"314 382 OFFCURVE",
"238 382 CURVE",
"238 276 LINE",
"312 276 OFFCURVE",
"348 230 OFFCURVE",
"348 192 CURVE SMOOTH",
"348 161 OFFCURVE",
"324 137 OFFCURVE",
"295 137 CURVE SMOOTH",
"264 137 OFFCURVE",
"240 161 OFFCURVE",
"240 192 CURVE",
"72 192 LINE",
"72 70 OFFCURVE",
"173 -31 OFFCURVE",
"295 -31 CURVE SMOOTH"
);
}
);
width = 588;
},
{
layerId = "9AF1F7D9-E035-453E-B2A8-46DE370997D0";
paths = (
{
closed = 1;
nodes = (
"379 -31 OFFCURVE",
"468 46 OFFCURVE",
"468 156 CURVE SMOOTH",
"468 238 OFFCURVE",
"437 276 OFFCURVE",
"377 322 CURVE",
"415 341 OFFCURVE",
"449 403 OFFCURVE",
"449 466 CURVE SMOOTH",
"449 566 OFFCURVE",
"367 636 OFFCURVE",
"266 636 CURVE SMOOTH",
"166 636 OFFCURVE",
"84 566 OFFCURVE",
"84 466 CURVE",
"156 466 LINE",
"156 526 OFFCURVE",
"206 564 OFFCURVE",
"266 564 CURVE SMOOTH",
"326 564 OFFCURVE",
"377 526 OFFCURVE",
"377 466 CURVE SMOOTH",
"377 394 OFFCURVE",
"324 355 OFFCURVE",
"233 355 CURVE",
"233 283 LINE",
"336 283 OFFCURVE",
"396 235 OFFCURVE",
"396 156 CURVE SMOOTH",
"396 86 OFFCURVE",
"341 41 OFFCURVE",
"271 41 CURVE SMOOTH",
"199 41 OFFCURVE",
"144 86 OFFCURVE",
"144 156 CURVE",
"72 156 LINE",
"72 46 OFFCURVE",
"161 -31 OFFCURVE",
"271 -31 CURVE SMOOTH"
);
}
);
width = 540;
},
{
layerId = "F9B50E00-60B3-4906-8473-0A03A162A9E3";
paths = (
{
closed = 1;
nodes = (
"419 -31 OFFCURVE",
"525 62 OFFCURVE",
"541 175 CURVE SMOOTH",
"549 234 OFFCURVE",
"534 289 OFFCURVE",
"507 321 CURVE",
"543 363 OFFCURVE",
"555 402 OFFCURVE",
"560 437 CURVE SMOOTH",
"578 561 OFFCURVE",
"491 662 OFFCURVE",
"366 662 CURVE SMOOTH",
"260 662 OFFCURVE",
"163 577 OFFCURVE",
"147 462 CURVE",
"313 446 LINE",
"316 467 OFFCURVE",
"347 494 OFFCURVE",
"376 494 CURVE SMOOTH",
"390 494 OFFCURVE",
"399 483 OFFCURVE",
"397 471 CURVE SMOOTH",
"392 433 OFFCURVE",
"359 382 OFFCURVE",
"283 382 CURVE",
"286 276 LINE",
"359 276 OFFCURVE",
"382 238 OFFCURVE",
"377 209 CURVE SMOOTH",
"372 169 OFFCURVE",
"335 137 OFFCURVE",
"297 137 CURVE SMOOTH",
"275 137 OFFCURVE",
"261 153 OFFCURVE",
"266 184 CURVE",
"100 200 LINE",
"83 78 OFFCURVE",
"177 -31 OFFCURVE",
"307 -31 CURVE SMOOTH"
);
}
);
width = 588;
},
{
layerId = "81C5C66F-25B8-499A-A0AB-712FDA102FD8";
paths = (
{
closed = 1;
nodes = (
"376 -31 OFFCURVE",
"474 44 OFFCURVE",
"489 153 CURVE SMOOTH",
"501 236 OFFCURVE",
"474 275 OFFCURVE",
"422 320 CURVE",
"464 340 OFFCURVE",
"505 401 OFFCURVE",
"514 463 CURVE SMOOTH",
"528 564 OFFCURVE",
"455 636 OFFCURVE",
"352 636 CURVE SMOOTH",
"254 636 OFFCURVE",
"164 568 OFFCURVE",
"150 468 CURVE",
"221 464 LINE",
"230 524 OFFCURVE",
"287 564 OFFCURVE",
"349 564 CURVE SMOOTH",
"407 564 OFFCURVE",
"451 528 OFFCURVE",
"443 469 CURVE SMOOTH",
"433 396 OFFCURVE",
"372 355 OFFCURVE",
"281 355 CURVE",
"274 283 LINE",
"377 283 OFFCURVE",
"429 237 OFFCURVE",
"418 159 CURVE SMOOTH",
"408 88 OFFCURVE",
"345 41 OFFCURVE",
"273 41 CURVE SMOOTH",
"203 41 OFFCURVE",
"156 84 OFFCURVE",
"166 154 CURVE",
"94 158 LINE",
"79 48 OFFCURVE",
"158 -31 OFFCURVE",
"270 -31 CURVE SMOOTH"
);
}
);
width = 540;
}
);
leftKerningGroup = three.dnom;
rightKerningGroup = three.dnom;
unicode = 2083;
},
{
glyphname = fourinferior;
lastChange = "2020-02-04 03:08:42 +0000";
layers = (
{
layerId = "10BC12B3-5274-42E3-B5BC-F74F362F0DF4";
paths = (
{
closed = 1;
nodes = (
"499 0 LINE",
"499 86 LINE",
"552 86 LINE",
"552 254 LINE",
"499 254 LINE",
"499 631 LINE",
"314 631 LINE",
"96 288 LINE",
"96 86 LINE",
"331 86 LINE",
"331 0 LINE"
);
},
{
closed = 1;
nodes = (
"348 396 LINE",
"348 254 LINE",
"259 254 LINE"
);
}
);
width = 696;
},
{
layerId = "9AF1F7D9-E035-453E-B2A8-46DE370997D0";
paths = (
{
closed = 1;
nodes = (
"451 0 LINE",
"451 139 LINE",
"530 139 LINE",
"530 211 LINE",
"451 211 LINE",
"451 631 LINE",
"353 631 LINE",
"96 226 LINE",
"96 139 LINE",
"379 139 LINE",
"379 0 LINE"
);
},
{
closed = 1;
nodes = (
"379 535 LINE",
"379 211 LINE",
"173 211 LINE"
);
}
);
width = 674;
},
{
layerId = "F9B50E00-60B3-4906-8473-0A03A162A9E3";
paths = (
{
closed = 1;
nodes = (
"499 0 LINE",
"511 86 LINE",
"564 86 LINE",
"588 254 LINE",
"535 254 LINE",
"588 631 LINE",
"399 631 LINE",
"133 288 LINE",
"108 86 LINE",
"343 86 LINE",
"331 0 LINE"
);
},
{
closed = 1;
nodes = (
"407 396 LINE",
"384 254 LINE",
"298 254 LINE"
);
}
);
width = 696;
},
{
layerId = "81C5C66F-25B8-499A-A0AB-712FDA102FD8";
paths = (
{
closed = 1;
nodes = (
"451 0 LINE",
"471 139 LINE",
"550 139 LINE",
"560 211 LINE",
"481 211 LINE",
"540 631 LINE",
"441 631 LINE",
"127 226 LINE",
"116 139 LINE",
"399 139 LINE",
"379 0 LINE"
);
},
{
closed = 1;
nodes = (
"455 535 LINE",
"409 211 LINE",
"203 211 LINE"
);
}
);
width = 674;
}
);
leftKerningGroup = four.dnom;
rightKerningGroup = four.dnom;
unicode = 2084;
},
